{"glyphs":{"0":{"ha":628,"x_min":76,"x_max":551,"o":"m 460 229 l 460 743 l 551 743 l 551 229 l 460 229 m 76 229 l 76 743 l 168 743 l 168 229 l 76 229 m 311 906 l 311 993 l 317 993 l 317 906 l 311 906 m 311 -21 l 311 67 l 317 67 l 317 -21 l 311 -21 m 76 743 q 108 872 76 815 q 192 960 139 928 q 314 993 246 993 l 314 906 q 207 863 246 906 q 168 743 168 821 l 76 743 m 551 743 l 460 743 q 422 863 460 821 q 314 906 383 906 l 314 993 q 435 960 382 993 q 520 872 489 928 q 551 743 551 815 m 76 229 l 168 229 q 207 110 168 153 q 314 67 246 67 l 314 -21 q 192 12 246 -21 q 108 101 139 44 q 76 229 76 157 m 551 229 q 520 101 551 157 q 435 12 489 44 q 314 -21 382 -21 l 314 67 q 422 110 383 67 q 460 229 460 153 l 551 229 z "},"1":{"ha":408,"x_min":42,"x_max":311,"o":"m 101 717 l 42 779 l 219 972 l 219 846 l 101 717 m 219 0 l 219 972 l 311 972 l 311 0 l 219 0 z "},"2":{"ha":617,"x_min":83,"x_max":554,"o":"m 97 92 q 125 257 99 188 q 193 378 151 326 q 281 474 235 431 q 369 562 328 518 q 436 658 410 606 q 463 779 463 710 q 472 779 463 779 q 494 779 481 779 q 522 779 508 779 q 545 779 536 779 q 554 779 554 779 q 528 629 554 692 q 460 519 501 567 q 371 428 418 471 q 282 340 324 386 q 213 234 240 293 q 185 92 186 175 l 97 92 m 97 0 l 97 92 l 554 92 l 554 0 l 97 0 m 172 794 l 83 814 q 123 913 90 869 q 207 981 156 956 q 318 1007 258 1007 l 318 919 q 221 890 263 919 q 172 794 179 860 m 554 778 l 463 778 q 421 879 463 839 q 317 919 379 919 l 317 1007 q 438 977 385 1007 q 523 895 492 947 q 554 778 554 843 z "},"3":{"ha":603,"x_min":69,"x_max":540,"o":"m 303 471 l 303 558 q 398 608 360 558 q 436 735 436 658 l 528 735 q 499 600 528 660 q 419 506 469 540 q 303 471 368 471 m 449 206 l 449 329 l 540 329 l 540 206 l 449 206 m 218 471 l 218 558 l 304 558 l 304 471 l 218 471 m 436 733 q 398 856 436 807 q 303 906 360 906 l 303 993 q 419 959 368 993 q 499 867 469 925 q 528 733 528 808 l 436 733 m 540 207 q 509 90 540 142 q 424 8 478 38 q 303 -22 371 -22 l 303 65 q 407 106 365 65 q 449 207 449 147 l 540 207 m 540 329 l 449 329 q 407 431 449 390 q 303 471 365 471 l 303 558 q 424 528 371 558 q 509 447 478 499 q 540 329 540 394 m 158 781 l 69 800 q 109 899 76 856 q 193 967 142 942 q 304 993 244 993 l 304 906 q 207 876 249 906 q 158 781 165 846 m 158 190 q 207 96 165 126 q 304 65 249 65 l 304 -22 q 193 3 244 -22 q 109 73 142 29 q 69 171 76 117 l 158 190 z "},"4":{"ha":644,"x_min":49,"x_max":589,"o":"m 49 307 l 311 972 l 403 972 l 140 307 l 49 307 m 49 215 l 49 307 l 589 307 l 589 215 l 49 215 m 390 0 l 390 554 l 478 554 l 478 0 l 390 0 z "},"5":{"ha":638,"x_min":83,"x_max":554,"o":"m 97 410 l 97 972 l 189 972 l 189 410 l 97 410 m 463 228 l 463 410 l 554 410 l 554 228 l 463 228 m 97 881 l 97 972 l 532 972 l 532 881 l 97 881 m 463 408 q 421 514 463 472 q 318 556 379 556 l 324 639 q 442 609 390 639 q 524 527 494 579 q 554 408 554 475 l 463 408 m 122 410 q 149 527 122 475 q 222 609 175 579 q 325 639 268 639 l 319 556 q 226 514 264 556 q 189 410 189 472 l 122 410 m 554 228 q 523 99 554 156 q 438 10 492 43 q 317 -22 385 -22 l 317 65 q 424 108 386 65 q 463 228 463 151 l 554 228 m 172 190 q 221 96 179 126 q 318 65 263 65 l 318 -22 q 207 3 258 -22 q 123 73 156 29 q 83 171 90 117 l 172 190 z "},"6":{"ha":621,"x_min":83,"x_max":558,"o":"m 83 347 q 106 569 83 469 q 167 748 129 668 q 251 888 206 828 q 343 993 297 949 l 415 939 q 324 835 367 889 q 247 713 281 781 q 194 557 214 646 q 175 347 175 468 l 83 347 m 83 229 l 83 347 l 175 347 l 175 229 l 83 229 m 467 229 l 467 347 l 558 347 l 558 229 l 467 229 m 558 229 q 527 101 558 157 q 442 12 496 44 q 321 -21 389 -21 l 321 67 q 428 110 390 67 q 467 229 467 153 l 558 229 m 83 229 l 175 229 q 214 110 175 153 q 321 67 253 67 l 321 -21 q 199 12 253 -21 q 115 101 146 44 q 83 229 83 157 m 558 347 l 467 347 q 428 467 467 425 q 321 510 390 510 l 321 597 q 442 565 389 597 q 527 476 496 532 q 558 347 558 419 m 83 347 q 115 476 83 419 q 199 565 146 532 q 321 597 253 597 l 321 510 q 214 467 253 510 q 175 347 175 425 l 83 347 z "},"7":{"ha":568,"x_min":42,"x_max":526,"o":"m 131 0 l 435 881 l 526 881 l 222 0 l 131 0 m 42 881 l 42 972 l 526 972 l 526 881 l 42 881 z "},"8":{"ha":642,"x_min":83,"x_max":558,"o":"m 467 308 q 428 428 467 386 q 321 471 390 471 l 321 558 q 495 492 432 558 q 558 308 558 426 l 467 308 m 321 -21 q 147 45 210 -21 q 83 229 83 111 l 175 229 q 192 142 175 178 q 242 86 210 106 q 321 67 275 67 l 321 -21 m 83 229 l 83 308 l 175 308 l 175 229 l 83 229 m 321 -21 l 321 67 q 399 86 367 67 q 449 142 432 106 q 467 229 467 178 l 558 229 q 495 45 558 111 q 321 -21 432 -21 m 83 308 q 147 492 83 426 q 321 558 210 558 l 321 471 q 214 428 253 471 q 175 308 175 386 l 83 308 m 467 229 l 467 308 l 558 308 l 558 229 l 467 229 m 321 471 q 158 536 219 471 q 96 707 96 601 l 188 707 q 222 597 188 635 q 321 558 256 558 l 321 471 m 96 707 l 96 757 l 188 757 l 188 707 l 96 707 m 321 471 l 321 558 q 420 597 386 558 q 454 707 454 635 l 546 707 q 484 536 546 601 q 321 471 422 471 m 96 757 q 158 928 96 864 q 321 993 219 993 l 321 906 q 248 889 278 906 q 203 839 218 872 q 188 757 188 806 l 96 757 m 454 707 l 454 757 l 546 757 l 546 707 l 454 707 m 454 757 q 439 839 454 806 q 394 889 424 872 q 321 906 365 906 l 321 993 q 484 928 422 993 q 546 757 546 864 l 454 757 z "},"9":{"ha":621,"x_min":63,"x_max":538,"o":"m 538 625 q 515 403 538 503 q 453 224 492 304 q 369 84 415 144 q 278 -21 324 24 l 206 33 q 297 138 254 83 q 374 259 340 192 q 426 415 407 326 q 446 625 446 504 l 538 625 m 538 743 l 538 625 l 446 625 l 446 743 l 538 743 m 154 743 l 154 625 l 63 625 l 63 743 l 154 743 m 63 743 q 94 872 63 815 q 178 960 125 928 q 300 993 232 993 l 300 906 q 193 863 232 906 q 154 743 154 821 l 63 743 m 538 743 l 446 743 q 408 863 446 821 q 300 906 369 906 l 300 993 q 422 960 368 993 q 506 872 475 928 q 538 743 538 815 m 63 625 l 154 625 q 193 506 154 549 q 300 463 232 463 l 300 375 q 178 408 232 375 q 94 497 125 440 q 63 625 63 554 m 538 625 q 506 497 538 554 q 422 408 475 440 q 300 375 368 375 l 300 463 q 408 506 369 463 q 446 625 446 549 l 538 625 z "},"A":{"ha":650,"x_min":42,"x_max":608,"o":"m 158 208 l 158 296 l 513 296 l 513 208 l 158 208 m 369 972 l 133 0 l 42 0 l 278 972 l 369 972 m 372 972 l 608 0 l 517 0 l 281 972 l 372 972 z "},"Á":{"ha":650,"x_min":42,"x_max":608,"o":"m 158 208 l 158 296 l 513 296 l 513 208 l 158 208 m 369 972 l 133 0 l 42 0 l 278 972 l 369 972 m 372 972 l 608 0 l 517 0 l 281 972 l 372 972 m 339 1051 l 247 1051 l 338 1229 l 446 1229 l 339 1051 z "},"Â":{"ha":650,"x_min":42,"x_max":608,"o":"m 158 208 l 158 296 l 513 296 l 513 208 l 158 208 m 369 972 l 133 0 l 42 0 l 278 972 l 369 972 m 372 972 l 608 0 l 517 0 l 281 972 l 372 972 m 271 1229 l 363 1229 l 272 1051 l 164 1051 l 271 1229 m 367 1229 l 474 1051 l 365 1051 l 275 1229 l 367 1229 z "},"Ä":{"ha":650,"x_min":42,"x_max":608,"o":"m 158 208 l 158 296 l 513 296 l 513 208 l 158 208 m 369 972 l 133 0 l 42 0 l 278 972 l 369 972 m 372 972 l 608 0 l 517 0 l 281 972 l 372 972 m 228 1064 q 179 1083 199 1064 q 160 1132 160 1103 q 179 1181 160 1161 q 228 1201 199 1201 q 277 1181 257 1201 q 297 1132 297 1161 q 277 1083 297 1103 q 228 1064 257 1064 m 408 1064 q 360 1083 379 1064 q 340 1132 340 1103 q 360 1181 340 1161 q 408 1201 379 1201 q 458 1181 438 1201 q 478 1132 478 1161 q 458 1083 478 1103 q 408 1064 438 1064 z "},"À":{"ha":650,"x_min":42,"x_max":608,"o":"m 158 208 l 158 296 l 513 296 l 513 208 l 158 208 m 369 972 l 133 0 l 42 0 l 278 972 l 369 972 m 372 972 l 608 0 l 517 0 l 281 972 l 372 972 m 257 1051 l 150 1229 l 258 1229 l 349 1051 l 257 1051 z "},"Ā":{"ha":650,"x_min":42,"x_max":608,"o":"m 158 208 l 158 296 l 513 296 l 513 208 l 158 208 m 369 972 l 133 0 l 42 0 l 278 972 l 369 972 m 372 972 l 608 0 l 517 0 l 281 972 l 372 972 m 132 1085 l 132 1157 l 507 1157 l 507 1085 l 132 1085 z "},"Å":{"ha":650,"x_min":42,"x_max":608,"o":"m 158 208 l 158 296 l 513 296 l 513 208 l 158 208 m 369 972 l 133 0 l 42 0 l 278 972 l 369 972 m 372 972 l 608 0 l 517 0 l 281 972 l 372 972 m 356 1158 q 345 1184 356 1174 q 319 1194 335 1194 l 319 1261 q 393 1232 364 1261 q 422 1158 422 1203 l 356 1158 m 319 1056 q 247 1085 276 1056 q 217 1158 217 1115 l 283 1158 q 294 1133 283 1143 q 319 1122 304 1122 l 319 1056 m 319 1056 l 319 1122 q 345 1133 335 1122 q 356 1158 356 1143 l 422 1158 q 393 1085 422 1115 q 319 1056 364 1056 m 217 1158 q 247 1232 217 1203 q 319 1261 276 1261 l 319 1194 q 294 1184 304 1194 q 283 1158 283 1174 l 217 1158 z "},"Ã":{"ha":650,"x_min":42,"x_max":608,"o":"m 158 208 l 158 296 l 513 296 l 513 208 l 158 208 m 369 972 l 133 0 l 42 0 l 278 972 l 369 972 m 372 972 l 608 0 l 517 0 l 281 972 l 372 972 m 389 1110 q 345 1117 363 1110 q 314 1136 328 1125 q 285 1155 300 1147 q 250 1163 271 1163 l 250 1225 q 294 1217 276 1225 q 325 1199 311 1210 q 353 1180 339 1188 q 389 1172 368 1172 l 389 1110 m 147 1118 q 174 1197 147 1168 q 250 1225 201 1225 l 250 1163 q 224 1151 233 1163 q 214 1118 214 1139 l 147 1118 m 389 1110 l 389 1172 q 415 1184 406 1172 q 425 1217 425 1196 l 492 1217 q 465 1138 492 1167 q 389 1110 438 1110 z "},"Æ":{"ha":958,"x_min":42,"x_max":903,"o":"m 364 885 l 364 972 l 547 972 l 547 885 l 364 885 m 144 208 l 144 296 l 499 296 l 499 208 l 144 208 m 42 0 l 306 972 l 397 972 l 133 0 l 42 0 m 536 438 l 536 529 l 819 529 l 819 438 l 536 438 m 472 972 l 564 972 l 564 0 l 472 0 l 472 972 m 522 972 l 889 972 l 889 885 l 522 885 l 522 972 m 508 0 l 508 88 l 903 88 l 903 0 l 508 0 z "},"B":{"ha":604,"x_min":83,"x_max":542,"o":"m 271 460 l 271 551 q 392 597 349 551 q 436 724 436 643 l 528 724 q 494 589 528 649 q 403 494 461 529 q 271 460 344 460 m 133 0 l 133 88 l 285 88 l 285 0 l 133 0 m 133 460 l 133 551 l 285 551 l 285 460 l 133 460 m 450 249 l 450 285 l 542 285 l 542 249 l 450 249 m 450 283 q 406 413 450 367 q 285 460 363 460 l 285 551 q 417 516 358 551 q 508 420 475 481 q 542 283 542 360 l 450 283 m 133 885 l 133 972 l 271 972 l 271 885 l 133 885 m 528 722 l 436 722 q 392 842 436 800 q 271 885 349 885 l 271 972 q 406 941 349 972 q 496 853 464 910 q 528 722 528 797 m 542 250 q 510 119 542 175 q 420 31 478 63 q 285 0 363 0 l 285 88 q 406 131 363 88 q 450 250 450 174 l 542 250 m 83 0 l 83 972 l 175 972 l 175 0 l 83 0 z "},"C":{"ha":632,"x_min":69,"x_max":590,"o":"m 69 228 l 69 744 l 161 744 l 161 228 l 69 228 m 69 744 q 101 876 69 819 q 192 963 133 932 q 326 994 250 994 l 326 907 q 205 865 249 907 q 161 744 161 822 l 69 744 m 69 228 l 161 228 q 205 108 161 151 q 326 65 249 65 l 326 -22 q 192 9 250 -22 q 101 97 133 40 q 69 228 69 153 m 506 714 q 449 856 496 804 q 325 907 401 907 l 325 994 q 505 925 435 994 q 590 732 575 856 l 506 714 m 506 258 l 590 240 q 505 47 575 117 q 325 -22 435 -22 l 325 65 q 449 117 401 65 q 506 258 496 168 z "},"Ç":{"ha":632,"x_min":69,"x_max":590,"o":"m 69 228 l 69 744 l 161 744 l 161 228 l 69 228 m 69 744 q 101 876 69 819 q 192 963 133 932 q 326 994 250 994 l 326 907 q 205 865 249 907 q 161 744 161 822 l 69 744 m 69 228 l 161 228 q 205 108 161 151 q 326 65 249 65 l 326 -22 q 192 9 250 -22 q 101 97 133 40 q 69 228 69 153 m 506 714 q 449 856 496 804 q 325 907 401 907 l 325 994 q 505 925 435 994 q 590 732 575 856 l 506 714 m 506 258 l 590 240 q 505 47 575 117 q 325 -22 435 -22 l 325 65 q 449 117 401 65 q 506 258 496 168 m 378 -231 q 319 -224 351 -231 q 257 -201 286 -217 l 282 -139 q 346 -156 315 -151 q 393 -149 376 -161 q 400 -99 410 -137 l 483 -99 q 464 -196 492 -161 q 378 -231 436 -231 m 400 -99 q 382 -44 392 -67 q 360 0 372 -22 l 443 0 q 467 -40 456 -18 q 483 -99 478 -62 l 400 -99 z "},"D":{"ha":618,"x_min":83,"x_max":542,"o":"m 450 250 l 450 722 l 542 722 l 542 250 l 450 250 m 133 0 l 133 88 l 285 88 l 285 0 l 133 0 m 133 885 l 133 972 l 285 972 l 285 885 l 133 885 m 133 885 l 133 972 l 285 972 l 285 885 l 133 885 m 542 722 l 450 722 q 406 842 450 800 q 285 885 363 885 l 285 972 q 420 941 363 972 q 510 853 478 910 q 542 722 542 797 m 542 250 q 510 119 542 175 q 420 31 478 63 q 285 0 363 0 l 285 88 q 406 131 363 88 q 450 250 450 174 l 542 250 m 83 0 l 83 972 l 175 972 l 175 0 l 83 0 z "},"Ð":{"ha":618,"x_min":-47,"x_max":542,"o":"m 450 250 l 450 722 l 542 722 l 542 250 l 450 250 m 133 0 l 133 88 l 285 88 l 285 0 l 133 0 m 133 885 l 133 972 l 285 972 l 285 885 l 133 885 m 133 885 l 133 972 l 285 972 l 285 885 l 133 885 m 542 722 l 450 722 q 406 842 450 800 q 285 885 363 885 l 285 972 q 420 941 363 972 q 510 853 478 910 q 542 722 542 797 m 542 250 q 510 119 542 175 q 420 31 478 63 q 285 0 363 0 l 285 88 q 406 131 363 88 q 450 250 450 174 l 542 250 m 83 0 l 83 972 l 175 972 l 175 0 l 83 0 m -47 449 l -47 526 l 286 526 l 286 449 l -47 449 z "},"E":{"ha":569,"x_min":83,"x_max":514,"o":"m 119 0 l 119 88 l 514 88 l 514 0 l 119 0 m 147 438 l 147 529 l 431 529 l 431 438 l 147 438 m 83 972 l 175 972 l 175 0 l 83 0 l 83 972 m 133 972 l 500 972 l 500 885 l 133 885 l 133 972 z "},"É":{"ha":569,"x_min":83,"x_max":514,"o":"m 83 972 l 175 972 l 175 0 l 83 0 l 83 972 m 133 972 l 500 972 l 500 885 l 133 885 l 133 972 m 147 438 l 147 529 l 431 529 l 431 438 l 147 438 m 119 0 l 119 88 l 514 88 l 514 0 l 119 0 m 304 1051 l 213 1051 l 303 1229 l 411 1229 l 304 1051 z "},"Ê":{"ha":569,"x_min":83,"x_max":514,"o":"m 83 972 l 175 972 l 175 0 l 83 0 l 83 972 m 133 972 l 500 972 l 500 885 l 133 885 l 133 972 m 147 438 l 147 529 l 431 529 l 431 438 l 147 438 m 119 0 l 119 88 l 514 88 l 514 0 l 119 0 m 236 1229 l 328 1229 l 238 1051 l 129 1051 l 236 1229 m 332 1229 l 439 1051 l 331 1051 l 240 1229 l 332 1229 z "},"Ë":{"ha":569,"x_min":83,"x_max":514,"o":"m 119 0 l 119 88 l 514 88 l 514 0 l 119 0 m 147 438 l 147 529 l 431 529 l 431 438 l 147 438 m 83 972 l 175 972 l 175 0 l 83 0 l 83 972 m 133 972 l 500 972 l 500 885 l 133 885 l 133 972 m 193 1064 q 144 1083 164 1064 q 125 1132 125 1103 q 144 1181 125 1161 q 193 1201 164 1201 q 242 1181 222 1201 q 263 1132 263 1161 q 242 1083 263 1103 q 193 1064 222 1064 m 374 1064 q 325 1083 344 1064 q 306 1132 306 1103 q 325 1181 306 1161 q 374 1201 344 1201 q 423 1181 403 1201 q 443 1132 443 1161 q 423 1083 443 1103 q 374 1064 403 1064 z "},"È":{"ha":569,"x_min":83,"x_max":514,"o":"m 119 0 l 119 88 l 514 88 l 514 0 l 119 0 m 147 438 l 147 529 l 431 529 l 431 438 l 147 438 m 83 972 l 175 972 l 175 0 l 83 0 l 83 972 m 133 972 l 500 972 l 500 885 l 133 885 l 133 972 m 222 1051 l 115 1229 l 224 1229 l 314 1051 l 222 1051 z "},"Ē":{"ha":569,"x_min":83,"x_max":514,"o":"m 83 972 l 175 972 l 175 0 l 83 0 l 83 972 m 133 972 l 500 972 l 500 885 l 133 885 l 133 972 m 147 438 l 147 529 l 431 529 l 431 438 l 147 438 m 119 0 l 119 88 l 514 88 l 514 0 l 119 0 m 97 1085 l 97 1157 l 472 1157 l 472 1085 l 97 1085 z "},"F":{"ha":528,"x_min":83,"x_max":500,"o":"m 147 438 l 147 529 l 431 529 l 431 438 l 147 438 m 83 972 l 175 972 l 175 0 l 83 0 l 83 972 m 133 972 l 500 972 l 500 885 l 133 885 l 133 972 z "},"G":{"ha":667,"x_min":69,"x_max":590,"o":"m 319 419 l 319 507 l 582 507 l 582 419 l 319 419 m 490 226 l 490 503 l 582 503 l 582 226 l 490 226 m 69 228 l 69 744 l 161 744 l 161 228 l 69 228 m 69 744 q 101 876 69 819 q 192 963 133 932 q 326 994 250 994 l 326 907 q 205 865 249 907 q 161 744 161 822 l 69 744 m 69 228 l 161 228 q 205 108 161 151 q 326 65 249 65 l 326 -22 q 192 9 250 -22 q 101 97 133 40 q 69 228 69 153 m 506 714 q 449 856 496 804 q 325 907 401 907 l 325 994 q 505 925 435 994 q 590 732 575 856 l 506 714 m 582 228 q 550 97 582 153 q 460 9 518 40 q 325 -22 403 -22 l 325 65 q 447 108 403 65 q 490 228 490 151 l 582 228 z "},"H":{"ha":683,"x_min":83,"x_max":600,"o":"m 111 442 l 111 529 l 536 529 l 536 442 l 111 442 m 508 0 l 508 972 l 600 972 l 600 0 l 508 0 m 83 0 l 83 972 l 175 972 l 175 0 l 83 0 z "},"I":{"ha":286,"x_min":97,"x_max":189,"o":"m 97 0 l 97 972 l 189 972 l 189 0 l 97 0 z "},"Í":{"ha":286,"x_min":71,"x_max":269,"o":"m 97 0 l 97 972 l 189 972 l 189 0 l 97 0 m 163 1051 l 71 1051 l 161 1229 l 269 1229 l 163 1051 z "},"Î":{"ha":286,"x_min":-12,"x_max":297,"o":"m 97 0 l 97 972 l 189 972 l 189 0 l 97 0 m 94 1229 l 186 1229 l 96 1051 l -12 1051 l 94 1229 m 190 1229 l 297 1051 l 189 1051 l 99 1229 l 190 1229 z "},"Ï":{"ha":286,"x_min":-17,"x_max":301,"o":"m 97 0 l 97 972 l 189 972 l 189 0 l 97 0 m 51 1064 q 3 1083 22 1064 q -17 1132 -17 1103 q 3 1181 -17 1161 q 51 1201 22 1201 q 101 1181 81 1201 q 121 1132 121 1161 q 101 1083 121 1103 q 51 1064 81 1064 m 232 1064 q 183 1083 203 1064 q 164 1132 164 1103 q 183 1181 164 1161 q 232 1201 203 1201 q 281 1181 261 1201 q 301 1132 301 1161 q 281 1083 301 1103 q 232 1064 261 1064 z "},"Ì":{"ha":286,"x_min":-26,"x_max":189,"o":"m 97 0 l 97 972 l 189 972 l 189 0 l 97 0 m 81 1051 l -26 1229 l 82 1229 l 172 1051 l 81 1051 z "},"Ī":{"ha":286,"x_min":-44,"x_max":331,"o":"m 97 0 l 97 972 l 189 972 l 189 0 l 97 0 m -44 1085 l -44 1157 l 331 1157 l 331 1085 l -44 1085 z "},"J":{"ha":406,"x_min":28,"x_max":322,"o":"m 231 193 l 231 972 l 322 972 l 322 193 l 231 193 m 322 193 q 274 35 322 92 q 140 -22 226 -22 l 133 65 q 185 81 164 65 q 219 124 207 96 q 231 193 231 153 l 322 193 m 68 89 q 99 72 83 79 q 133 65 115 65 l 140 -22 q 81 -12 110 -22 q 28 17 51 -1 l 68 89 z "},"K":{"ha":489,"x_min":83,"x_max":517,"o":"m 106 525 l 401 972 l 499 972 l 203 525 l 106 525 m 419 0 l 106 525 l 203 525 l 517 0 l 419 0 m 83 0 l 83 972 l 175 972 l 175 0 l 83 0 z "},"L":{"ha":528,"x_min":83,"x_max":500,"o":"m 133 0 l 133 88 l 500 88 l 500 0 l 133 0 m 83 0 l 83 972 l 175 972 l 175 0 l 83 0 z "},"M":{"ha":797,"x_min":83,"x_max":714,"o":"m 354 0 l 572 972 l 664 972 l 446 0 l 354 0 m 350 0 l 132 972 l 224 972 l 442 0 l 350 0 m 83 0 l 83 972 l 175 972 l 175 0 l 83 0 m 622 0 l 622 972 l 714 972 l 714 0 l 622 0 z "},"N":{"ha":694,"x_min":83,"x_max":611,"o":"m 493 0 l 103 972 l 203 972 l 592 0 l 493 0 m 83 0 l 83 972 l 175 972 l 175 0 l 83 0 m 519 0 l 519 972 l 611 972 l 611 0 l 519 0 z "},"Ñ":{"ha":694,"x_min":83,"x_max":611,"o":"m 493 0 l 103 972 l 203 972 l 592 0 l 493 0 m 83 0 l 83 972 l 175 972 l 175 0 l 83 0 m 519 0 l 519 972 l 611 972 l 611 0 l 519 0 m 389 1110 q 345 1117 363 1110 q 314 1136 328 1125 q 285 1155 300 1147 q 250 1163 271 1163 l 250 1225 q 294 1217 276 1225 q 325 1199 311 1210 q 353 1180 339 1188 q 389 1172 368 1172 l 389 1110 m 147 1118 q 174 1197 147 1168 q 250 1225 201 1225 l 250 1163 q 224 1151 233 1163 q 214 1118 214 1139 l 147 1118 m 389 1110 l 389 1172 q 415 1184 406 1172 q 425 1217 425 1196 l 492 1217 q 465 1138 492 1167 q 389 1110 438 1110 z "},"O":{"ha":667,"x_min":76,"x_max":590,"o":"m 499 228 l 499 744 l 590 744 l 590 228 l 499 228 m 76 228 l 76 744 l 168 744 l 168 228 l 76 228 m 590 743 l 499 743 q 455 863 499 821 q 333 906 411 906 l 333 993 q 469 962 411 993 q 558 874 526 931 q 590 743 590 818 m 76 743 q 108 874 76 818 q 199 962 140 931 q 333 993 257 993 l 333 906 q 212 863 256 906 q 168 743 168 821 l 76 743 m 590 229 q 558 98 590 154 q 469 10 526 42 q 333 -21 411 -21 l 333 67 q 455 110 411 67 q 499 229 499 153 l 590 229 m 76 229 l 168 229 q 212 110 168 153 q 333 67 256 67 l 333 -21 q 199 10 257 -21 q 108 98 140 42 q 76 229 76 154 z "},"Ó":{"ha":667,"x_min":76,"x_max":590,"o":"m 499 228 l 499 744 l 590 744 l 590 228 l 499 228 m 76 228 l 76 744 l 168 744 l 168 228 l 76 228 m 590 743 l 499 743 q 455 863 499 821 q 333 906 411 906 l 333 993 q 469 962 411 993 q 558 874 526 931 q 590 743 590 818 m 76 743 q 108 874 76 818 q 199 962 140 931 q 333 993 257 993 l 333 906 q 212 863 256 906 q 168 743 168 821 l 76 743 m 590 229 q 558 98 590 154 q 469 10 526 42 q 333 -21 411 -21 l 333 67 q 455 110 411 67 q 499 229 499 153 l 590 229 m 76 229 l 168 229 q 212 110 168 153 q 333 67 256 67 l 333 -21 q 199 10 257 -21 q 108 98 140 42 q 76 229 76 154 m 353 1051 l 261 1051 l 351 1229 l 460 1229 l 353 1051 z "},"Ô":{"ha":667,"x_min":76,"x_max":590,"o":"m 499 228 l 499 744 l 590 744 l 590 228 l 499 228 m 76 228 l 76 744 l 168 744 l 168 228 l 76 228 m 590 743 l 499 743 q 455 863 499 821 q 333 906 411 906 l 333 993 q 469 962 411 993 q 558 874 526 931 q 590 743 590 818 m 76 743 q 108 874 76 818 q 199 962 140 931 q 333 993 257 993 l 333 906 q 212 863 256 906 q 168 743 168 821 l 76 743 m 590 229 q 558 98 590 154 q 469 10 526 42 q 333 -21 411 -21 l 333 67 q 455 110 411 67 q 499 229 499 153 l 590 229 m 76 229 l 168 229 q 212 110 168 153 q 333 67 256 67 l 333 -21 q 199 10 257 -21 q 108 98 140 42 q 76 229 76 154 m 285 1229 l 376 1229 l 286 1051 l 178 1051 l 285 1229 m 381 1229 l 488 1051 l 379 1051 l 289 1229 l 381 1229 z "},"Ö":{"ha":667,"x_min":76,"x_max":590,"o":"m 499 228 l 499 744 l 590 744 l 590 228 l 499 228 m 76 228 l 76 744 l 168 744 l 168 228 l 76 228 m 590 743 l 499 743 q 455 863 499 821 q 333 906 411 906 l 333 993 q 469 962 411 993 q 558 874 526 931 q 590 743 590 818 m 76 743 q 108 874 76 818 q 199 962 140 931 q 333 993 257 993 l 333 906 q 212 863 256 906 q 168 743 168 821 l 76 743 m 590 229 q 558 98 590 154 q 469 10 526 42 q 333 -21 411 -21 l 333 67 q 455 110 411 67 q 499 229 499 153 l 590 229 m 76 229 l 168 229 q 212 110 168 153 q 333 67 256 67 l 333 -21 q 199 10 257 -21 q 108 98 140 42 q 76 229 76 154 m 242 1064 q 193 1083 213 1064 q 174 1132 174 1103 q 193 1181 174 1161 q 242 1201 213 1201 q 291 1181 271 1201 q 311 1132 311 1161 q 291 1083 311 1103 q 242 1064 271 1064 m 422 1064 q 374 1083 393 1064 q 354 1132 354 1103 q 374 1181 354 1161 q 422 1201 393 1201 q 472 1181 451 1201 q 492 1132 492 1161 q 472 1083 492 1103 q 422 1064 451 1064 z "},"Ò":{"ha":667,"x_min":76,"x_max":590,"o":"m 499 228 l 499 744 l 590 744 l 590 228 l 499 228 m 76 228 l 76 744 l 168 744 l 168 228 l 76 228 m 590 743 l 499 743 q 455 863 499 821 q 333 906 411 906 l 333 993 q 469 962 411 993 q 558 874 526 931 q 590 743 590 818 m 76 743 q 108 874 76 818 q 199 962 140 931 q 333 993 257 993 l 333 906 q 212 863 256 906 q 168 743 168 821 l 76 743 m 590 229 q 558 98 590 154 q 469 10 526 42 q 333 -21 411 -21 l 333 67 q 455 110 411 67 q 499 229 499 153 l 590 229 m 76 229 l 168 229 q 212 110 168 153 q 333 67 256 67 l 333 -21 q 199 10 257 -21 q 108 98 140 42 q 76 229 76 154 m 271 1051 l 164 1229 l 272 1229 l 363 1051 l 271 1051 z "},"Ō":{"ha":667,"x_min":76,"x_max":590,"o":"m 499 228 l 499 744 l 590 744 l 590 228 l 499 228 m 76 228 l 76 744 l 168 744 l 168 228 l 76 228 m 590 743 l 499 743 q 455 863 499 821 q 333 906 411 906 l 333 993 q 469 962 411 993 q 558 874 526 931 q 590 743 590 818 m 76 743 q 108 874 76 818 q 199 962 140 931 q 333 993 257 993 l 333 906 q 212 863 256 906 q 168 743 168 821 l 76 743 m 590 229 q 558 98 590 154 q 469 10 526 42 q 333 -21 411 -21 l 333 67 q 455 110 411 67 q 499 229 499 153 l 590 229 m 76 229 l 168 229 q 212 110 168 153 q 333 67 256 67 l 333 -21 q 199 10 257 -21 q 108 98 140 42 q 76 229 76 154 m 146 1085 l 146 1157 l 521 1157 l 521 1085 l 146 1085 z "},"Ø":{"ha":667,"x_min":76,"x_max":590,"o":"m 499 228 l 499 744 l 590 744 l 590 228 l 499 228 m 76 228 l 76 744 l 168 744 l 168 228 l 76 228 m 590 743 l 499 743 q 455 863 499 821 q 333 906 411 906 l 333 993 q 469 962 411 993 q 558 874 526 931 q 590 743 590 818 m 76 743 q 108 874 76 818 q 199 962 140 931 q 333 993 257 993 l 333 906 q 212 863 256 906 q 168 743 168 821 l 76 743 m 590 229 q 558 98 590 154 q 469 10 526 42 q 333 -21 411 -21 l 333 67 q 455 110 411 67 q 499 229 499 153 l 590 229 m 76 229 l 168 229 q 212 110 168 153 q 333 67 256 67 l 333 -21 q 199 10 257 -21 q 108 98 140 42 q 76 229 76 154 m 106 -74 l 481 1046 l 560 1046 l 185 -74 l 106 -74 z "},"Õ":{"ha":667,"x_min":76,"x_max":590,"o":"m 499 228 l 499 744 l 590 744 l 590 228 l 499 228 m 76 228 l 76 744 l 168 744 l 168 228 l 76 228 m 590 743 l 499 743 q 455 863 499 821 q 333 906 411 906 l 333 993 q 469 962 411 993 q 558 874 526 931 q 590 743 590 818 m 76 743 q 108 874 76 818 q 199 962 140 931 q 333 993 257 993 l 333 906 q 212 863 256 906 q 168 743 168 821 l 76 743 m 590 229 q 558 98 590 154 q 469 10 526 42 q 333 -21 411 -21 l 333 67 q 455 110 411 67 q 499 229 499 153 l 590 229 m 76 229 l 168 229 q 212 110 168 153 q 333 67 256 67 l 333 -21 q 199 10 257 -21 q 108 98 140 42 q 76 229 76 154 m 403 1110 q 359 1117 376 1110 q 328 1136 342 1125 q 299 1155 314 1147 q 264 1163 285 1163 l 264 1225 q 308 1217 290 1225 q 339 1199 325 1210 q 367 1180 353 1188 q 403 1172 382 1172 l 403 1110 m 161 1118 q 188 1197 161 1168 q 264 1225 215 1225 l 264 1163 q 238 1151 247 1163 q 228 1118 228 1139 l 161 1118 m 403 1110 l 403 1172 q 429 1184 419 1172 q 439 1217 439 1196 l 506 1217 q 478 1138 506 1167 q 403 1110 451 1110 z "},"Œ":{"ha":1014,"x_min":76,"x_max":958,"o":"m 499 228 l 499 744 l 590 744 l 590 228 l 499 228 m 76 228 l 76 744 l 168 744 l 168 228 l 76 228 m 590 743 l 499 743 q 455 863 499 821 q 333 906 411 906 l 333 993 q 469 962 411 993 q 558 874 526 931 q 590 743 590 818 m 76 743 q 108 874 76 818 q 199 962 140 931 q 333 993 257 993 l 333 906 q 212 863 256 906 q 168 743 168 821 l 76 743 m 590 229 q 558 98 590 154 q 469 10 526 42 q 333 -21 411 -21 l 333 67 q 455 110 411 67 q 499 229 499 153 l 590 229 m 76 229 l 168 229 q 212 110 168 153 q 333 67 256 67 l 333 -21 q 199 10 257 -21 q 108 98 140 42 q 76 229 76 154 m 564 0 l 564 88 l 958 88 l 958 0 l 564 0 m 592 438 l 592 529 l 875 529 l 875 438 l 592 438 m 528 972 l 619 972 l 619 0 l 528 0 l 528 972 m 578 972 l 944 972 l 944 885 l 578 885 l 578 972 z "},"P":{"ha":583,"x_min":83,"x_max":542,"o":"m 119 885 l 119 972 l 286 972 l 286 885 l 119 885 m 119 388 l 119 475 l 286 475 l 286 388 l 119 388 m 450 636 l 450 722 l 542 722 l 542 636 l 450 636 m 542 722 l 450 722 q 406 842 450 800 q 285 885 363 885 l 285 972 q 420 941 363 972 q 510 853 478 910 q 542 722 542 797 m 542 638 q 510 506 542 563 q 420 419 478 450 q 285 388 363 388 l 285 475 q 406 518 363 475 q 450 638 450 561 l 542 638 m 83 0 l 83 972 l 175 972 l 175 0 l 83 0 z "},"Þ":{"ha":583,"x_min":83,"x_max":542,"o":"m 119 690 l 119 778 l 285 778 l 285 690 l 119 690 m 119 193 l 119 281 l 285 281 l 285 193 l 119 193 m 450 442 l 450 528 l 542 528 l 542 442 l 450 442 m 542 528 l 450 528 q 406 648 450 606 q 285 690 363 690 l 285 778 q 420 747 363 778 q 510 659 478 715 q 542 528 542 603 m 542 443 q 510 312 542 368 q 420 224 478 256 q 285 193 363 193 l 285 281 q 406 324 363 281 q 450 443 450 367 l 542 443 m 83 0 l 83 972 l 175 972 l 175 0 l 83 0 z "},"Q":{"ha":667,"x_min":76,"x_max":590,"o":"m 469 -185 q 403 -160 438 -182 q 338 -106 368 -139 q 289 -39 308 -72 l 321 1 q 408 -74 363 -43 q 507 -111 454 -104 l 469 -185 m 499 228 l 499 744 l 590 744 l 590 228 l 499 228 m 76 228 l 76 744 l 168 744 l 168 228 l 76 228 m 590 743 l 499 743 q 455 863 499 821 q 333 906 411 906 l 333 993 q 469 962 411 993 q 558 874 526 931 q 590 743 590 818 m 76 743 q 108 874 76 818 q 199 962 140 931 q 333 993 257 993 l 333 906 q 212 863 256 906 q 168 743 168 821 l 76 743 m 590 229 q 558 98 590 154 q 469 10 526 42 q 333 -21 411 -21 l 333 67 q 455 110 411 67 q 499 229 499 153 l 590 229 m 76 229 l 168 229 q 212 110 168 153 q 333 67 256 67 l 333 -21 q 199 10 257 -21 q 108 98 140 42 q 76 229 76 154 z "},"R":{"ha":597,"x_min":83,"x_max":542,"o":"m 444 0 l 265 483 l 363 483 l 542 0 l 444 0 m 119 432 l 119 519 l 286 519 l 286 432 l 119 432 m 119 885 l 119 972 l 286 972 l 286 885 l 119 885 m 450 681 l 450 724 l 542 724 l 542 681 l 450 681 m 542 722 l 450 722 q 406 842 450 800 q 285 885 363 885 l 285 972 q 420 941 363 972 q 510 853 478 910 q 542 722 542 797 m 542 682 q 510 551 542 607 q 420 463 478 494 q 285 432 363 432 l 285 519 q 406 563 363 519 q 450 682 450 606 l 542 682 m 83 0 l 83 972 l 175 972 l 175 0 l 83 0 z "},"S":{"ha":622,"x_min":49,"x_max":574,"o":"m 479 213 q 451 307 479 265 q 377 386 422 349 q 281 461 332 424 q 184 542 229 499 q 110 638 139 585 q 82 760 82 692 l 174 760 q 202 666 174 708 q 276 586 231 624 q 372 511 321 549 q 469 431 424 474 q 542 335 514 388 q 571 213 571 282 l 479 213 m 82 757 q 114 885 82 832 q 204 965 146 938 q 339 993 263 993 l 339 906 q 217 866 261 906 q 174 757 174 826 l 82 757 m 571 215 q 539 88 571 140 q 449 7 507 35 q 314 -21 392 -21 l 314 67 q 435 106 392 67 q 479 215 479 146 l 571 215 m 485 781 q 436 876 478 846 q 339 906 394 906 l 339 993 q 451 967 400 993 q 534 899 501 942 q 574 800 567 856 l 485 781 m 133 260 q 190 118 143 169 q 314 67 238 67 l 314 -21 q 134 49 204 -21 q 49 242 64 118 l 133 260 z "},"T":{"ha":597,"x_min":28,"x_max":569,"o":"m 28 885 l 28 972 l 569 972 l 569 885 l 28 885 m 253 0 l 253 972 l 344 972 l 344 0 l 253 0 z "},"U":{"ha":678,"x_min":83,"x_max":594,"o":"m 503 228 l 503 972 l 594 972 l 594 228 l 503 228 m 83 228 l 83 972 l 175 972 l 175 228 l 83 228 m 594 229 q 563 98 594 154 q 473 10 531 42 q 338 -21 415 -21 l 338 67 q 459 110 415 67 q 503 229 503 153 l 594 229 m 83 229 l 175 229 q 219 110 175 153 q 340 67 263 67 l 340 -21 q 206 10 264 -21 q 115 98 147 42 q 83 229 83 154 z "},"Ú":{"ha":678,"x_min":83,"x_max":594,"o":"m 503 228 l 503 972 l 594 972 l 594 228 l 503 228 m 83 228 l 83 972 l 175 972 l 175 228 l 83 228 m 594 229 q 563 98 594 154 q 473 10 531 42 q 338 -21 415 -21 l 338 67 q 459 110 415 67 q 503 229 503 153 l 594 229 m 83 229 l 175 229 q 219 110 175 153 q 340 67 263 67 l 340 -21 q 206 10 264 -21 q 115 98 147 42 q 83 229 83 154 m 358 1051 l 267 1051 l 357 1229 l 465 1229 l 358 1051 z "},"Û":{"ha":678,"x_min":83,"x_max":594,"o":"m 503 228 l 503 972 l 594 972 l 594 228 l 503 228 m 83 228 l 83 972 l 175 972 l 175 228 l 83 228 m 594 229 q 563 98 594 154 q 473 10 531 42 q 338 -21 415 -21 l 338 67 q 459 110 415 67 q 503 229 503 153 l 594 229 m 83 229 l 175 229 q 219 110 175 153 q 340 67 263 67 l 340 -21 q 206 10 264 -21 q 115 98 147 42 q 83 229 83 154 m 290 1229 l 382 1229 l 292 1051 l 183 1051 l 290 1229 m 386 1229 l 493 1051 l 385 1051 l 294 1229 l 386 1229 z "},"Ü":{"ha":678,"x_min":83,"x_max":594,"o":"m 503 228 l 503 972 l 594 972 l 594 228 l 503 228 m 83 228 l 83 972 l 175 972 l 175 228 l 83 228 m 594 229 q 563 98 594 154 q 473 10 531 42 q 338 -21 415 -21 l 338 67 q 459 110 415 67 q 503 229 503 153 l 594 229 m 83 229 l 175 229 q 219 110 175 153 q 340 67 263 67 l 340 -21 q 206 10 264 -21 q 115 98 147 42 q 83 229 83 154 m 247 1064 q 199 1083 218 1064 q 179 1132 179 1103 q 199 1181 179 1161 q 247 1201 218 1201 q 297 1181 276 1201 q 317 1132 317 1161 q 297 1083 317 1103 q 247 1064 276 1064 m 428 1064 q 379 1083 399 1064 q 360 1132 360 1103 q 379 1181 360 1161 q 428 1201 399 1201 q 477 1181 457 1201 q 497 1132 497 1161 q 477 1083 497 1103 q 428 1064 457 1064 z "},"Ù":{"ha":678,"x_min":83,"x_max":594,"o":"m 503 228 l 503 972 l 594 972 l 594 228 l 503 228 m 83 228 l 83 972 l 175 972 l 175 228 l 83 228 m 594 229 q 563 98 594 154 q 473 10 531 42 q 338 -21 415 -21 l 338 67 q 459 110 415 67 q 503 229 503 153 l 594 229 m 83 229 l 175 229 q 219 110 175 153 q 340 67 263 67 l 340 -21 q 206 10 264 -21 q 115 98 147 42 q 83 229 83 154 m 276 1051 l 169 1229 l 278 1229 l 368 1051 l 276 1051 z "},"Ū":{"ha":678,"x_min":83,"x_max":594,"o":"m 503 228 l 503 972 l 594 972 l 594 228 l 503 228 m 83 228 l 83 972 l 175 972 l 175 228 l 83 228 m 594 229 q 563 98 594 154 q 473 10 531 42 q 338 -21 415 -21 l 338 67 q 459 110 415 67 q 503 229 503 153 l 594 229 m 83 229 l 175 229 q 219 110 175 153 q 340 67 263 67 l 340 -21 q 206 10 264 -21 q 115 98 147 42 q 83 229 83 154 m 151 1085 l 151 1157 l 526 1157 l 526 1085 l 151 1085 z "},"V":{"ha":650,"x_min":42,"x_max":608,"o":"m 281 0 l 517 972 l 608 972 l 372 0 l 281 0 m 278 0 l 42 972 l 133 972 l 369 0 l 278 0 z "},"W":{"ha":996,"x_min":56,"x_max":940,"o":"m 647 0 l 457 972 l 549 972 l 739 0 l 647 0 m 232 0 l 56 972 l 147 972 l 324 0 l 232 0 m 257 0 l 447 972 l 539 972 l 349 0 l 257 0 m 672 0 l 849 972 l 940 972 l 764 0 l 672 0 z "},"Ẃ":{"ha":996,"x_min":56,"x_max":940,"o":"m 647 0 l 457 972 l 549 972 l 739 0 l 647 0 m 232 0 l 56 972 l 147 972 l 324 0 l 232 0 m 257 0 l 447 972 l 539 972 l 349 0 l 257 0 m 672 0 l 849 972 l 940 972 l 764 0 l 672 0 m 517 1051 l 425 1051 l 515 1229 l 624 1229 l 517 1051 z "},"Ŵ":{"ha":996,"x_min":56,"x_max":940,"o":"m 647 0 l 457 972 l 549 972 l 739 0 l 647 0 m 232 0 l 56 972 l 147 972 l 324 0 l 232 0 m 257 0 l 447 972 l 539 972 l 349 0 l 257 0 m 672 0 l 849 972 l 940 972 l 764 0 l 672 0 m 449 1229 l 540 1229 l 450 1051 l 342 1051 l 449 1229 m 544 1229 l 651 1051 l 543 1051 l 453 1229 l 544 1229 z "},"Ẅ":{"ha":996,"x_min":56,"x_max":940,"o":"m 647 0 l 457 972 l 549 972 l 739 0 l 647 0 m 232 0 l 56 972 l 147 972 l 324 0 l 232 0 m 257 0 l 447 972 l 539 972 l 349 0 l 257 0 m 672 0 l 849 972 l 940 972 l 764 0 l 672 0 m 406 1064 q 357 1083 376 1064 q 338 1132 338 1103 q 357 1181 338 1161 q 406 1201 376 1201 q 455 1181 435 1201 q 475 1132 475 1161 q 455 1083 475 1103 q 406 1064 435 1064 m 586 1064 q 538 1083 557 1064 q 518 1132 518 1103 q 538 1181 518 1161 q 586 1201 557 1201 q 635 1181 615 1201 q 656 1132 656 1161 q 635 1083 656 1103 q 586 1064 615 1064 z "},"Ẁ":{"ha":996,"x_min":56,"x_max":940,"o":"m 647 0 l 457 972 l 549 972 l 739 0 l 647 0 m 232 0 l 56 972 l 147 972 l 324 0 l 232 0 m 257 0 l 447 972 l 539 972 l 349 0 l 257 0 m 672 0 l 849 972 l 940 972 l 764 0 l 672 0 m 435 1051 l 328 1229 l 436 1229 l 526 1051 l 435 1051 z "},"X":{"ha":600,"x_min":42,"x_max":558,"o":"m 467 0 l 42 972 l 133 972 l 558 0 l 467 0 m 42 0 l 254 486 l 346 486 l 133 0 l 42 0 m 254 486 l 467 972 l 558 972 l 346 486 l 254 486 z "},"Y":{"ha":592,"x_min":42,"x_max":550,"o":"m 250 331 l 458 972 l 550 972 l 342 331 l 250 331 m 250 0 l 250 331 l 342 331 l 342 0 l 250 0 m 250 331 l 42 972 l 133 972 l 342 331 l 250 331 z "},"Ý":{"ha":592,"x_min":42,"x_max":550,"o":"m 250 331 l 458 972 l 550 972 l 342 331 l 250 331 m 250 0 l 250 331 l 342 331 l 342 0 l 250 0 m 250 331 l 42 972 l 133 972 l 342 331 l 250 331 m 315 1051 l 224 1051 l 314 1229 l 422 1229 l 315 1051 z "},"Ŷ":{"ha":592,"x_min":42,"x_max":550,"o":"m 250 331 l 458 972 l 550 972 l 342 331 l 250 331 m 250 0 l 250 331 l 342 331 l 342 0 l 250 0 m 250 331 l 42 972 l 133 972 l 342 331 l 250 331 m 247 1229 l 339 1229 l 249 1051 l 140 1051 l 247 1229 m 343 1229 l 450 1051 l 342 1051 l 251 1229 l 343 1229 z "},"Ÿ":{"ha":592,"x_min":42,"x_max":550,"o":"m 250 331 l 458 972 l 550 972 l 342 331 l 250 331 m 250 0 l 250 331 l 342 331 l 342 0 l 250 0 m 250 331 l 42 972 l 133 972 l 342 331 l 250 331 m 204 1064 q 156 1083 175 1064 q 136 1132 136 1103 q 156 1181 136 1161 q 204 1201 175 1201 q 253 1181 233 1201 q 274 1132 274 1161 q 253 1083 274 1103 q 204 1064 233 1064 m 385 1064 q 336 1083 356 1064 q 317 1132 317 1103 q 336 1181 317 1161 q 385 1201 356 1201 q 434 1181 414 1201 q 454 1132 454 1161 q 434 1083 454 1103 q 385 1064 414 1064 z "},"Ỳ":{"ha":592,"x_min":42,"x_max":550,"o":"m 250 331 l 458 972 l 550 972 l 342 331 l 250 331 m 250 0 l 250 331 l 342 331 l 342 0 l 250 0 m 250 331 l 42 972 l 133 972 l 342 331 l 250 331 m 233 1051 l 126 1229 l 235 1229 l 325 1051 l 233 1051 z "},"Z":{"ha":628,"x_min":56,"x_max":572,"o":"m 56 88 l 476 885 l 572 885 l 151 88 l 56 88 m 56 0 l 56 88 l 572 88 l 572 0 l 56 0 m 56 885 l 56 972 l 572 972 l 572 885 l 56 885 z "},"a":{"ha":613,"x_min":63,"x_max":550,"o":"m 458 0 l 458 486 l 550 486 l 550 0 l 458 0 m 285 -21 l 285 63 q 378 90 340 63 q 438 172 417 118 q 458 299 458 225 l 511 299 q 482 132 511 204 q 402 19 453 60 q 285 -21 351 -21 m 285 -21 q 174 8 225 -21 q 93 88 124 38 q 63 201 63 139 l 154 201 q 194 102 154 142 q 285 63 235 63 l 285 -21 m 63 201 q 94 315 63 265 q 178 393 125 364 q 299 422 232 422 l 299 339 q 196 300 238 339 q 154 201 154 261 l 63 201 m 299 339 l 299 422 l 532 422 l 532 339 l 299 339 m 458 299 l 458 488 l 511 488 l 511 299 l 458 299 m 550 486 l 458 486 q 417 588 458 547 q 313 628 375 628 l 313 715 q 434 685 381 715 q 519 603 488 656 q 550 486 550 551 m 167 503 l 78 522 q 117 621 85 578 q 201 690 150 664 q 313 715 253 715 l 313 628 q 215 598 257 628 q 167 503 174 568 z "},"á":{"ha":613,"x_min":63,"x_max":550,"o":"m 458 0 l 458 486 l 550 486 l 550 0 l 458 0 m 285 -21 l 285 63 q 378 90 340 63 q 438 172 417 118 q 458 299 458 225 l 511 299 q 482 132 511 204 q 402 19 453 60 q 285 -21 351 -21 m 285 -21 q 174 8 225 -21 q 93 88 124 38 q 63 201 63 139 l 154 201 q 194 102 154 142 q 285 63 235 63 l 285 -21 m 63 201 q 94 315 63 265 q 178 393 125 364 q 299 422 232 422 l 299 339 q 196 300 238 339 q 154 201 154 261 l 63 201 m 299 339 l 299 422 l 532 422 l 532 339 l 299 339 m 458 299 l 458 488 l 511 488 l 511 299 l 458 299 m 550 486 l 458 486 q 417 588 458 547 q 313 628 375 628 l 313 715 q 434 685 381 715 q 519 603 488 656 q 550 486 550 551 m 167 503 l 78 522 q 117 621 85 578 q 201 690 150 664 q 313 715 253 715 l 313 628 q 215 598 257 628 q 167 503 174 568 m 318 788 l 226 788 l 317 965 l 425 965 l 318 788 z "},"â":{"ha":613,"x_min":63,"x_max":550,"o":"m 458 0 l 458 486 l 550 486 l 550 0 l 458 0 m 285 -21 l 285 63 q 378 90 340 63 q 438 172 417 118 q 458 299 458 225 l 511 299 q 482 132 511 204 q 402 19 453 60 q 285 -21 351 -21 m 285 -21 q 174 8 225 -21 q 93 88 124 38 q 63 201 63 139 l 154 201 q 194 102 154 142 q 285 63 235 63 l 285 -21 m 63 201 q 94 315 63 265 q 178 393 125 364 q 299 422 232 422 l 299 339 q 196 300 238 339 q 154 201 154 261 l 63 201 m 299 339 l 299 422 l 532 422 l 532 339 l 299 339 m 458 299 l 458 488 l 511 488 l 511 299 l 458 299 m 550 486 l 458 486 q 417 588 458 547 q 313 628 375 628 l 313 715 q 434 685 381 715 q 519 603 488 656 q 550 486 550 551 m 167 503 l 78 522 q 117 621 85 578 q 201 690 150 664 q 313 715 253 715 l 313 628 q 215 598 257 628 q 167 503 174 568 m 250 965 l 342 965 l 251 788 l 143 788 l 250 965 m 346 965 l 453 788 l 344 788 l 254 965 l 346 965 z "},"ä":{"ha":613,"x_min":63,"x_max":550,"o":"m 458 0 l 458 486 l 550 486 l 550 0 l 458 0 m 285 -21 l 285 63 q 378 90 340 63 q 438 172 417 118 q 458 299 458 225 l 511 299 q 482 132 511 204 q 402 19 453 60 q 285 -21 351 -21 m 285 -21 q 174 8 225 -21 q 93 88 124 38 q 63 201 63 139 l 154 201 q 194 102 154 142 q 285 63 235 63 l 285 -21 m 63 201 q 94 315 63 265 q 178 393 125 364 q 299 422 232 422 l 299 339 q 196 300 238 339 q 154 201 154 261 l 63 201 m 299 339 l 299 422 l 532 422 l 532 339 l 299 339 m 458 299 l 458 488 l 511 488 l 511 299 l 458 299 m 550 486 l 458 486 q 417 588 458 547 q 313 628 375 628 l 313 715 q 434 685 381 715 q 519 603 488 656 q 550 486 550 551 m 167 503 l 78 522 q 117 621 85 578 q 201 690 150 664 q 313 715 253 715 l 313 628 q 215 598 257 628 q 167 503 174 568 m 207 800 q 158 819 178 800 q 139 868 139 839 q 158 917 139 897 q 207 938 178 938 q 256 917 236 938 q 276 868 276 897 q 256 819 276 839 q 207 800 236 800 m 388 800 q 339 819 358 800 q 319 868 319 839 q 339 917 319 897 q 388 938 358 938 q 437 917 417 938 q 457 868 457 897 q 437 819 457 839 q 388 800 417 800 z "},"à":{"ha":613,"x_min":63,"x_max":550,"o":"m 458 0 l 458 486 l 550 486 l 550 0 l 458 0 m 285 -21 l 285 63 q 378 90 340 63 q 438 172 417 118 q 458 299 458 225 l 511 299 q 482 132 511 204 q 402 19 453 60 q 285 -21 351 -21 m 285 -21 q 174 8 225 -21 q 93 88 124 38 q 63 201 63 139 l 154 201 q 194 102 154 142 q 285 63 235 63 l 285 -21 m 63 201 q 94 315 63 265 q 178 393 125 364 q 299 422 232 422 l 299 339 q 196 300 238 339 q 154 201 154 261 l 63 201 m 299 339 l 299 422 l 532 422 l 532 339 l 299 339 m 458 299 l 458 488 l 511 488 l 511 299 l 458 299 m 550 486 l 458 486 q 417 588 458 547 q 313 628 375 628 l 313 715 q 434 685 381 715 q 519 603 488 656 q 550 486 550 551 m 167 503 l 78 522 q 117 621 85 578 q 201 690 150 664 q 313 715 253 715 l 313 628 q 215 598 257 628 q 167 503 174 568 m 236 788 l 129 965 l 238 965 l 328 788 l 236 788 z "},"ā":{"ha":613,"x_min":63,"x_max":550,"o":"m 458 0 l 458 486 l 550 486 l 550 0 l 458 0 m 285 -21 l 285 63 q 378 90 340 63 q 438 172 417 118 q 458 299 458 225 l 511 299 q 482 132 511 204 q 402 19 453 60 q 285 -21 351 -21 m 285 -21 q 174 8 225 -21 q 93 88 124 38 q 63 201 63 139 l 154 201 q 194 102 154 142 q 285 63 235 63 l 285 -21 m 63 201 q 94 315 63 265 q 178 393 125 364 q 299 422 232 422 l 299 339 q 196 300 238 339 q 154 201 154 261 l 63 201 m 299 339 l 299 422 l 532 422 l 532 339 l 299 339 m 458 299 l 458 488 l 511 488 l 511 299 l 458 299 m 550 486 l 458 486 q 417 588 458 547 q 313 628 375 628 l 313 715 q 434 685 381 715 q 519 603 488 656 q 550 486 550 551 m 167 503 l 78 522 q 117 621 85 578 q 201 690 150 664 q 313 715 253 715 l 313 628 q 215 598 257 628 q 167 503 174 568 m 111 821 l 111 893 l 486 893 l 486 821 l 111 821 z "},"å":{"ha":613,"x_min":63,"x_max":550,"o":"m 458 0 l 458 486 l 550 486 l 550 0 l 458 0 m 285 -21 l 285 63 q 378 90 340 63 q 438 172 417 118 q 458 299 458 225 l 511 299 q 482 132 511 204 q 402 19 453 60 q 285 -21 351 -21 m 285 -21 q 174 8 225 -21 q 93 88 124 38 q 63 201 63 139 l 154 201 q 194 102 154 142 q 285 63 235 63 l 285 -21 m 63 201 q 94 315 63 265 q 178 393 125 364 q 299 422 232 422 l 299 339 q 196 300 238 339 q 154 201 154 261 l 63 201 m 299 339 l 299 422 l 532 422 l 532 339 l 299 339 m 458 299 l 458 488 l 511 488 l 511 299 l 458 299 m 550 486 l 458 486 q 417 588 458 547 q 313 628 375 628 l 313 715 q 434 685 381 715 q 519 603 488 656 q 550 486 550 551 m 167 503 l 78 522 q 117 621 85 578 q 201 690 150 664 q 313 715 253 715 l 313 628 q 215 598 257 628 q 167 503 174 568 m 335 894 q 324 920 335 910 q 299 931 314 931 l 299 997 q 372 968 343 997 q 401 894 401 939 l 335 894 m 299 792 q 226 822 256 792 q 196 894 196 851 l 263 894 q 273 869 263 879 q 299 858 283 858 l 299 792 m 299 792 l 299 858 q 324 869 314 858 q 335 894 335 879 l 401 894 q 372 822 401 851 q 299 792 343 792 m 196 894 q 226 968 196 939 q 299 997 256 997 l 299 931 q 273 920 283 931 q 263 894 263 910 l 196 894 z "},"ã":{"ha":613,"x_min":63,"x_max":550,"o":"m 458 0 l 458 486 l 550 486 l 550 0 l 458 0 m 285 -21 l 285 63 q 378 90 340 63 q 438 172 417 118 q 458 299 458 225 l 511 299 q 482 132 511 204 q 402 19 453 60 q 285 -21 351 -21 m 285 -21 q 174 8 225 -21 q 93 88 124 38 q 63 201 63 139 l 154 201 q 194 102 154 142 q 285 63 235 63 l 285 -21 m 63 201 q 94 315 63 265 q 178 393 125 364 q 299 422 232 422 l 299 339 q 196 300 238 339 q 154 201 154 261 l 63 201 m 299 339 l 299 422 l 532 422 l 532 339 l 299 339 m 458 299 l 458 488 l 511 488 l 511 299 l 458 299 m 550 486 l 458 486 q 417 588 458 547 q 313 628 375 628 l 313 715 q 434 685 381 715 q 519 603 488 656 q 550 486 550 551 m 167 503 l 78 522 q 117 621 85 578 q 201 690 150 664 q 313 715 253 715 l 313 628 q 215 598 257 628 q 167 503 174 568 m 368 846 q 324 853 342 846 q 293 872 307 861 q 265 891 279 883 q 229 899 250 899 l 229 961 q 273 953 256 961 q 304 935 290 946 q 333 916 318 924 q 368 908 347 908 l 368 846 m 126 854 q 153 933 126 904 q 229 961 181 961 l 229 899 q 203 887 213 899 q 193 854 193 875 l 126 854 m 368 846 l 368 908 q 394 920 385 908 q 404 953 404 932 l 471 953 q 444 874 471 903 q 368 846 417 846 z "},"æ":{"ha":1025,"x_min":63,"x_max":976,"o":"m 313 -21 l 313 63 q 406 81 371 63 q 456 143 440 100 q 472 257 472 186 l 553 257 q 522 115 553 178 q 436 16 490 53 q 313 -21 382 -21 m 285 -21 l 285 63 q 378 90 340 63 q 438 172 417 118 q 458 299 458 225 l 511 299 q 482 132 511 204 q 402 19 453 60 q 285 -21 351 -21 m 285 -21 q 174 8 225 -21 q 93 88 124 38 q 63 201 63 139 l 154 201 q 194 102 154 142 q 285 63 235 63 l 285 -21 m 63 201 q 94 315 63 265 q 178 393 125 364 q 299 422 232 422 l 299 339 q 196 300 238 339 q 154 201 154 261 l 63 201 m 299 339 l 299 422 l 532 422 l 532 339 l 299 339 m 458 299 l 458 488 l 511 488 l 511 299 l 458 299 m 550 486 l 458 486 q 417 588 458 547 q 313 628 375 628 l 313 715 q 434 685 381 715 q 519 603 488 656 q 550 486 550 551 m 167 503 l 78 522 q 117 621 85 578 q 201 690 150 664 q 313 715 253 715 l 313 628 q 215 598 257 628 q 167 503 174 568 m 510 315 l 510 394 l 976 394 l 976 315 l 510 315 m 738 -22 l 738 65 l 743 65 l 743 -22 l 738 -22 m 501 228 l 501 465 l 593 465 l 593 228 l 501 228 m 885 394 l 885 486 l 976 486 l 976 394 l 885 394 m 976 486 l 885 486 q 843 588 885 547 q 739 628 801 628 l 739 715 q 860 685 807 715 q 945 603 914 656 q 976 486 976 551 m 888 190 l 976 171 q 937 73 969 117 q 853 3 904 29 q 742 -22 803 -22 l 742 65 q 839 96 797 65 q 888 190 881 126 m 501 465 q 533 594 501 538 q 617 683 564 650 q 739 715 671 715 l 739 628 q 632 585 671 628 q 593 465 593 543 l 501 465 m 501 228 l 593 228 q 632 108 593 151 q 739 65 671 65 l 739 -22 q 617 10 671 -22 q 533 99 564 43 q 501 228 501 156 z "},"b":{"ha":622,"x_min":83,"x_max":560,"o":"m 83 693 l 83 972 l 175 972 l 175 693 l 83 693 m 175 0 l 83 0 l 83 694 l 175 694 l 175 0 m 560 208 l 468 208 l 468 486 l 560 486 l 560 208 m 468 486 q 426 585 468 546 q 322 624 385 624 l 342 715 q 453 685 404 715 q 531 603 503 656 q 560 486 560 551 l 468 486 m 122 486 q 151 603 122 551 q 230 685 181 656 q 342 715 279 715 l 322 624 q 217 585 258 624 q 175 486 175 546 l 122 486 m 468 208 l 560 208 q 531 91 560 143 q 453 9 503 39 q 342 -21 404 -21 l 322 71 q 426 110 385 71 q 468 208 468 149 m 122 208 l 175 208 q 217 110 175 149 q 322 71 258 71 l 342 -21 q 230 9 279 -21 q 151 91 181 39 q 122 208 122 143 z "},"c":{"ha":565,"x_min":63,"x_max":533,"o":"m 63 226 l 63 468 l 154 468 l 154 226 l 63 226 m 63 467 q 94 595 63 539 q 178 684 125 651 q 300 717 232 717 l 300 629 q 193 587 232 629 q 154 467 154 544 l 63 467 m 444 504 q 396 599 438 569 q 299 629 354 629 l 299 717 q 410 691 360 717 q 494 622 461 665 q 533 524 526 579 l 444 504 m 63 228 l 154 228 q 193 108 154 151 q 300 65 232 65 l 300 -22 q 178 10 232 -22 q 94 99 125 43 q 63 228 63 156 m 444 190 l 533 171 q 494 73 526 117 q 410 3 461 29 q 299 -22 360 -22 l 299 65 q 396 96 354 65 q 444 190 438 126 z "},"ç":{"ha":565,"x_min":63,"x_max":533,"o":"m 63 226 l 63 468 l 154 468 l 154 226 l 63 226 m 63 467 q 94 595 63 539 q 178 684 125 651 q 300 717 232 717 l 300 629 q 193 587 232 629 q 154 467 154 544 l 63 467 m 444 504 q 396 599 438 569 q 299 629 354 629 l 299 717 q 410 691 360 717 q 494 622 461 665 q 533 524 526 579 l 444 504 m 63 228 l 154 228 q 193 108 154 151 q 300 65 232 65 l 300 -22 q 178 10 232 -22 q 94 99 125 43 q 63 228 63 156 m 444 190 l 533 171 q 494 73 526 117 q 410 3 461 29 q 299 -22 360 -22 l 299 65 q 396 96 354 65 q 444 190 438 126 m 351 -231 q 292 -224 325 -231 q 231 -201 260 -217 l 256 -139 q 319 -156 289 -151 q 367 -149 350 -161 q 374 -99 383 -137 l 457 -99 q 438 -196 465 -161 q 351 -231 410 -231 m 374 -99 q 356 -44 365 -67 q 333 0 346 -22 l 417 0 q 440 -40 429 -18 q 457 -99 451 -62 l 374 -99 z "},"d":{"ha":622,"x_min":63,"x_max":539,"o":"m 539 693 l 447 693 l 447 972 l 539 972 l 539 693 m 447 0 l 447 694 l 539 694 l 539 0 l 447 0 m 63 208 l 63 486 l 154 486 l 154 208 l 63 208 m 154 486 l 63 486 q 91 603 63 551 q 169 685 119 656 q 281 715 218 715 l 300 624 q 196 585 238 624 q 154 486 154 546 m 500 486 l 447 486 q 406 585 447 546 q 300 624 364 624 l 281 715 q 393 685 343 715 q 472 603 443 656 q 500 486 500 551 m 154 208 q 196 110 154 149 q 300 71 238 71 l 281 -21 q 169 9 218 -21 q 91 91 119 39 q 63 208 63 143 l 154 208 m 500 208 q 472 91 500 143 q 393 9 443 39 q 281 -21 343 -21 l 300 71 q 406 110 364 71 q 447 208 447 149 l 500 208 z "},"ð":{"ha":586,"x_min":49,"x_max":524,"o":"m 432 474 q 410 651 432 564 q 345 828 389 739 q 233 1014 301 918 l 304 1053 q 428 858 379 953 q 500 667 476 763 q 524 474 524 572 l 432 474 m 224 824 l 182 890 l 433 1035 l 475 968 l 224 824 m 432 228 l 432 467 l 524 467 l 524 228 l 432 228 m 49 228 l 49 467 l 140 467 l 140 228 l 49 228 m 283 628 l 283 715 l 289 715 l 289 628 l 283 628 m 283 -21 l 283 67 l 289 67 l 289 -21 l 283 -21 m 49 465 q 80 594 49 538 q 165 683 111 650 q 286 715 218 715 l 286 628 q 179 585 218 628 q 140 465 140 543 l 49 465 m 524 465 l 432 465 q 394 585 432 543 q 286 628 356 628 l 286 715 q 408 683 354 715 q 492 594 461 650 q 524 465 524 538 m 49 229 l 140 229 q 179 110 140 153 q 286 67 218 67 l 286 -21 q 165 12 218 -21 q 80 101 111 44 q 49 229 49 157 m 524 229 q 492 101 524 157 q 408 12 461 44 q 286 -21 354 -21 l 286 67 q 394 110 356 67 q 432 229 432 153 l 524 229 z "},"e":{"ha":572,"x_min":49,"x_max":524,"o":"m 57 315 l 57 394 l 524 394 l 524 315 l 57 315 m 285 -22 l 285 65 l 290 65 l 290 -22 l 285 -22 m 49 228 l 49 465 l 140 465 l 140 228 l 49 228 m 432 394 l 432 486 l 524 486 l 524 394 l 432 394 m 524 486 l 432 486 q 390 588 432 547 q 286 628 349 628 l 286 715 q 408 685 354 715 q 492 603 461 656 q 524 486 524 551 m 435 190 l 524 171 q 484 73 517 117 q 401 3 451 29 q 289 -22 350 -22 l 289 65 q 386 96 344 65 q 435 190 428 126 m 49 465 q 80 594 49 538 q 165 683 111 650 q 286 715 218 715 l 286 628 q 179 585 218 628 q 140 465 140 543 l 49 465 m 49 228 l 140 228 q 179 108 140 151 q 286 65 218 65 l 286 -22 q 165 10 218 -22 q 80 99 111 43 q 49 228 49 156 z "},"é":{"ha":572,"x_min":49,"x_max":524,"o":"m 57 315 l 57 394 l 524 394 l 524 315 l 57 315 m 285 -22 l 285 65 l 290 65 l 290 -22 l 285 -22 m 49 228 l 49 465 l 140 465 l 140 228 l 49 228 m 432 394 l 432 486 l 524 486 l 524 394 l 432 394 m 524 486 l 432 486 q 390 588 432 547 q 286 628 349 628 l 286 715 q 408 685 354 715 q 492 603 461 656 q 524 486 524 551 m 435 190 l 524 171 q 484 73 517 117 q 401 3 451 29 q 289 -22 350 -22 l 289 65 q 386 96 344 65 q 435 190 428 126 m 49 465 q 80 594 49 538 q 165 683 111 650 q 286 715 218 715 l 286 628 q 179 585 218 628 q 140 465 140 543 l 49 465 m 49 228 l 140 228 q 179 108 140 151 q 286 65 218 65 l 286 -22 q 165 10 218 -22 q 80 99 111 43 q 49 228 49 156 m 306 774 l 214 774 l 304 951 l 413 951 l 306 774 z "},"ê":{"ha":572,"x_min":49,"x_max":524,"o":"m 57 315 l 57 394 l 524 394 l 524 315 l 57 315 m 285 -22 l 285 65 l 290 65 l 290 -22 l 285 -22 m 49 228 l 49 465 l 140 465 l 140 228 l 49 228 m 432 394 l 432 486 l 524 486 l 524 394 l 432 394 m 524 486 l 432 486 q 390 588 432 547 q 286 628 349 628 l 286 715 q 408 685 354 715 q 492 603 461 656 q 524 486 524 551 m 435 190 l 524 171 q 484 73 517 117 q 401 3 451 29 q 289 -22 350 -22 l 289 65 q 386 96 344 65 q 435 190 428 126 m 49 465 q 80 594 49 538 q 165 683 111 650 q 286 715 218 715 l 286 628 q 179 585 218 628 q 140 465 140 543 l 49 465 m 49 228 l 140 228 q 179 108 140 151 q 286 65 218 65 l 286 -22 q 165 10 218 -22 q 80 99 111 43 q 49 228 49 156 m 238 951 l 329 951 l 239 774 l 131 774 l 238 951 m 333 951 l 440 774 l 332 774 l 242 951 l 333 951 z "},"ë":{"ha":572,"x_min":49,"x_max":524,"o":"m 57 315 l 57 394 l 524 394 l 524 315 l 57 315 m 285 -22 l 285 65 l 290 65 l 290 -22 l 285 -22 m 49 228 l 49 465 l 140 465 l 140 228 l 49 228 m 432 394 l 432 486 l 524 486 l 524 394 l 432 394 m 524 486 l 432 486 q 390 588 432 547 q 286 628 349 628 l 286 715 q 408 685 354 715 q 492 603 461 656 q 524 486 524 551 m 435 190 l 524 171 q 484 73 517 117 q 401 3 451 29 q 289 -22 350 -22 l 289 65 q 386 96 344 65 q 435 190 428 126 m 49 465 q 80 594 49 538 q 165 683 111 650 q 286 715 218 715 l 286 628 q 179 585 218 628 q 140 465 140 543 l 49 465 m 49 228 l 140 228 q 179 108 140 151 q 286 65 218 65 l 286 -22 q 165 10 218 -22 q 80 99 111 43 q 49 228 49 156 m 194 786 q 146 806 165 786 q 126 854 126 825 q 146 903 126 883 q 194 924 165 924 q 244 903 224 924 q 264 854 264 883 q 244 806 264 825 q 194 786 224 786 m 375 786 q 326 806 346 786 q 307 854 307 825 q 326 903 307 883 q 375 924 346 924 q 424 903 404 924 q 444 854 444 883 q 424 806 444 825 q 375 786 404 786 z "},"è":{"ha":572,"x_min":49,"x_max":524,"o":"m 57 315 l 57 394 l 524 394 l 524 315 l 57 315 m 285 -22 l 285 65 l 290 65 l 290 -22 l 285 -22 m 49 228 l 49 465 l 140 465 l 140 228 l 49 228 m 432 394 l 432 486 l 524 486 l 524 394 l 432 394 m 524 486 l 432 486 q 390 588 432 547 q 286 628 349 628 l 286 715 q 408 685 354 715 q 492 603 461 656 q 524 486 524 551 m 435 190 l 524 171 q 484 73 517 117 q 401 3 451 29 q 289 -22 350 -22 l 289 65 q 386 96 344 65 q 435 190 428 126 m 49 465 q 80 594 49 538 q 165 683 111 650 q 286 715 218 715 l 286 628 q 179 585 218 628 q 140 465 140 543 l 49 465 m 49 228 l 140 228 q 179 108 140 151 q 286 65 218 65 l 286 -22 q 165 10 218 -22 q 80 99 111 43 q 49 228 49 156 m 224 774 l 117 951 l 225 951 l 315 774 l 224 774 z "},"ē":{"ha":572,"x_min":49,"x_max":524,"o":"m 57 315 l 57 394 l 524 394 l 524 315 l 57 315 m 285 -22 l 285 65 l 290 65 l 290 -22 l 285 -22 m 49 228 l 49 465 l 140 465 l 140 228 l 49 228 m 432 394 l 432 486 l 524 486 l 524 394 l 432 394 m 524 486 l 432 486 q 390 588 432 547 q 286 628 349 628 l 286 715 q 408 685 354 715 q 492 603 461 656 q 524 486 524 551 m 435 190 l 524 171 q 484 73 517 117 q 401 3 451 29 q 289 -22 350 -22 l 289 65 q 386 96 344 65 q 435 190 428 126 m 49 465 q 80 594 49 538 q 165 683 111 650 q 286 715 218 715 l 286 628 q 179 585 218 628 q 140 465 140 543 l 49 465 m 49 228 l 140 228 q 179 108 140 151 q 286 65 218 65 l 286 -22 q 165 10 218 -22 q 80 99 111 43 q 49 228 49 156 m 99 807 l 99 879 l 474 879 l 474 807 l 99 807 z "},"f":{"ha":424,"x_min":35,"x_max":410,"o":"m 115 0 l 115 778 l 207 778 l 207 0 l 115 0 m 35 611 l 35 694 l 382 694 l 382 611 l 35 611 m 115 778 q 164 936 115 879 q 297 993 213 993 l 304 906 q 252 890 274 906 q 219 847 231 875 q 207 778 207 818 l 115 778 m 369 882 q 338 899 354 893 q 304 906 322 906 l 297 993 q 358 983 328 993 q 410 954 388 974 l 369 882 z "},"g":{"ha":622,"x_min":63,"x_max":539,"o":"m 447 -28 l 447 694 l 539 694 l 539 -28 l 447 -28 m 63 221 l 63 486 l 154 486 l 154 221 l 63 221 m 154 486 l 63 486 q 91 603 63 551 q 169 685 119 656 q 281 715 218 715 l 300 624 q 196 585 238 624 q 154 486 154 546 m 500 486 l 447 486 q 406 585 447 546 q 300 624 364 624 l 281 715 q 393 685 343 715 q 472 603 443 656 q 500 486 500 551 m 154 221 q 196 122 154 161 q 300 83 238 83 l 281 -8 q 169 22 218 -8 q 91 103 119 51 q 63 221 63 156 l 154 221 m 500 221 q 472 103 500 156 q 393 22 443 51 q 281 -8 343 -8 l 300 83 q 406 122 364 83 q 447 221 447 161 l 500 221 m 539 -28 q 508 -145 539 -93 q 423 -227 476 -197 q 301 -257 369 -257 l 301 -169 q 406 -128 364 -169 q 447 -28 447 -87 l 539 -28 m 156 -44 q 204 -139 163 -108 q 301 -169 246 -169 l 301 -257 q 190 -231 242 -257 q 106 -162 139 -206 q 67 -64 74 -118 l 156 -44 z "},"h":{"ha":622,"x_min":83,"x_max":560,"o":"m 83 0 l 83 694 l 175 694 l 175 0 l 83 0 m 468 0 l 468 486 l 560 486 l 560 0 l 468 0 m 468 486 q 426 585 468 546 q 322 624 385 624 l 342 715 q 453 685 404 715 q 531 603 503 656 q 560 486 560 551 l 468 486 m 122 486 q 151 603 122 551 q 230 685 181 656 q 342 715 279 715 l 322 624 q 217 585 258 624 q 175 486 175 546 l 122 486 m 83 0 l 83 993 l 175 993 l 175 0 l 83 0 z "},"i":{"ha":286,"x_min":75,"x_max":213,"o":"m 97 0 l 97 694 l 189 694 l 189 0 l 97 0 m 143 786 q 94 806 114 786 q 75 854 75 825 q 94 903 75 883 q 143 924 114 924 q 192 903 172 924 q 213 854 213 883 q 192 806 213 825 q 143 786 172 786 z "},"ı":{"ha":286,"x_min":97,"x_max":189,"o":"m 97 0 l 97 694 l 189 694 l 189 0 l 97 0 z "},"í":{"ha":286,"x_min":72,"x_max":271,"o":"m 97 0 l 97 694 l 189 694 l 189 0 l 97 0 m 164 774 l 72 774 l 163 951 l 271 951 l 164 774 z "},"î":{"ha":286,"x_min":-11,"x_max":299,"o":"m 97 0 l 97 694 l 189 694 l 189 0 l 97 0 m 96 951 l 188 951 l 97 774 l -11 774 l 96 951 m 192 951 l 299 774 l 190 774 l 100 951 l 192 951 z "},"ï":{"ha":286,"x_min":-15,"x_max":303,"o":"m 97 0 l 97 694 l 189 694 l 189 0 l 97 0 m 53 786 q 4 806 24 786 q -15 854 -15 825 q 4 903 -15 883 q 53 924 24 924 q 102 903 82 924 q 122 854 122 883 q 102 806 122 825 q 53 786 82 786 m 233 786 q 185 806 204 786 q 165 854 165 825 q 185 903 165 883 q 233 924 204 924 q 283 903 263 924 q 303 854 303 883 q 283 806 303 825 q 233 786 263 786 z "},"ì":{"ha":286,"x_min":-25,"x_max":189,"o":"m 97 0 l 97 694 l 189 694 l 189 0 l 97 0 m 82 774 l -25 951 l 83 951 l 174 774 l 82 774 z "},"ī":{"ha":286,"x_min":-43,"x_max":332,"o":"m 97 0 l 97 694 l 189 694 l 189 0 l 97 0 m -43 807 l -43 879 l 332 879 l 332 807 l -43 807 z "},"j":{"ha":308,"x_min":-83,"x_max":261,"o":"m 211 1 q 163 -157 211 -100 q 29 -214 115 -214 l 22 -126 q 74 -111 53 -126 q 108 -67 96 -96 q 119 1 119 -39 l 211 1 m -43 -103 q -12 -119 -28 -112 q 22 -126 4 -126 l 29 -214 q -31 -203 -1 -214 q -83 -175 -60 -193 l -43 -103 m 119 0 l 119 694 l 211 694 l 211 0 l 119 0 m 192 788 q 143 807 163 788 q 124 856 124 826 q 143 905 124 885 q 192 925 163 925 q 241 905 221 925 q 261 856 261 885 q 241 807 261 826 q 192 788 221 788 z "},"ȷ":{"ha":308,"x_min":-83,"x_max":211,"o":"m 211 1 q 163 -157 211 -100 q 29 -214 115 -214 l 22 -126 q 74 -111 53 -126 q 108 -67 96 -96 q 119 1 119 -39 l 211 1 m -43 -103 q -12 -119 -28 -112 q 22 -126 4 -126 l 29 -214 q -31 -203 -1 -214 q -83 -175 -60 -193 l -43 -103 m 119 0 l 119 694 l 211 694 l 211 0 l 119 0 z "},"k":{"ha":551,"x_min":83,"x_max":517,"o":"m 422 0 l 175 385 l 258 425 l 517 0 l 422 0 m 161 264 l 96 329 l 381 694 l 501 694 l 161 264 m 83 0 l 83 993 l 175 993 l 175 0 l 83 0 z "},"l":{"ha":286,"x_min":97,"x_max":189,"o":"m 97 0 l 97 993 l 189 993 l 189 0 l 97 0 z "},"m":{"ha":949,"x_min":83,"x_max":886,"o":"m 83 0 l 83 694 l 175 694 l 175 0 l 83 0 m 439 0 l 439 486 l 531 486 l 531 0 l 439 0 m 121 486 q 148 603 121 551 q 222 685 175 656 q 326 715 268 715 l 307 624 q 213 585 251 624 q 175 486 175 546 l 121 486 m 439 486 q 401 585 439 546 q 307 624 364 624 l 326 715 q 431 685 385 715 q 504 603 478 656 q 531 486 531 551 l 439 486 m 794 0 l 794 486 l 886 486 l 886 0 l 794 0 m 476 486 q 503 603 476 551 q 577 685 531 656 q 682 715 624 715 l 663 624 q 569 585 607 624 q 531 486 531 546 l 476 486 m 794 486 q 757 585 794 546 q 663 624 719 624 l 682 715 q 787 685 740 715 q 860 603 833 656 q 886 486 886 551 l 794 486 z "},"n":{"ha":622,"x_min":83,"x_max":560,"o":"m 83 0 l 83 694 l 175 694 l 175 0 l 83 0 m 468 0 l 468 486 l 560 486 l 560 0 l 468 0 m 468 486 q 426 585 468 546 q 322 624 385 624 l 342 715 q 453 685 404 715 q 531 603 503 656 q 560 486 560 551 l 468 486 m 122 486 q 151 603 122 551 q 230 685 181 656 q 342 715 279 715 l 322 624 q 217 585 258 624 q 175 486 175 546 l 122 486 z "},"ñ":{"ha":622,"x_min":83,"x_max":560,"o":"m 83 0 l 83 694 l 175 694 l 175 0 l 83 0 m 468 0 l 468 486 l 560 486 l 560 0 l 468 0 m 468 486 q 426 585 468 546 q 322 624 385 624 l 342 715 q 453 685 404 715 q 531 603 503 656 q 560 486 560 551 l 468 486 m 122 486 q 151 603 122 551 q 230 685 181 656 q 342 715 279 715 l 322 624 q 217 585 258 624 q 175 486 175 546 l 122 486 m 400 832 q 356 840 374 832 q 325 858 339 847 q 297 877 311 869 q 261 885 282 885 l 261 947 q 305 940 288 947 q 336 921 322 932 q 365 902 350 910 q 400 894 379 894 l 400 832 m 158 840 q 185 919 158 890 q 261 947 213 947 l 261 885 q 235 873 244 885 q 225 840 225 861 l 158 840 m 400 832 l 400 894 q 426 906 417 894 q 436 939 436 918 l 503 939 q 476 860 503 889 q 400 832 449 832 z "},"o":{"ha":572,"x_min":49,"x_max":524,"o":"m 432 228 l 432 467 l 524 467 l 524 228 l 432 228 m 49 228 l 49 467 l 140 467 l 140 228 l 49 228 m 283 628 l 283 715 l 289 715 l 289 628 l 283 628 m 283 -21 l 283 67 l 289 67 l 289 -21 l 283 -21 m 49 465 q 80 594 49 538 q 165 683 111 650 q 286 715 218 715 l 286 628 q 179 585 218 628 q 140 465 140 543 l 49 465 m 524 465 l 432 465 q 394 585 432 543 q 286 628 356 628 l 286 715 q 408 683 354 715 q 492 594 461 650 q 524 465 524 538 m 49 229 l 140 229 q 179 110 140 153 q 286 67 218 67 l 286 -21 q 165 12 218 -21 q 80 101 111 44 q 49 229 49 157 m 524 229 q 492 101 524 157 q 408 12 461 44 q 286 -21 354 -21 l 286 67 q 394 110 356 67 q 432 229 432 153 l 524 229 z "},"ó":{"ha":572,"x_min":49,"x_max":524,"o":"m 432 228 l 432 467 l 524 467 l 524 228 l 432 228 m 49 228 l 49 467 l 140 467 l 140 228 l 49 228 m 283 628 l 283 715 l 289 715 l 289 628 l 283 628 m 283 -21 l 283 67 l 289 67 l 289 -21 l 283 -21 m 49 465 q 80 594 49 538 q 165 683 111 650 q 286 715 218 715 l 286 628 q 179 585 218 628 q 140 465 140 543 l 49 465 m 524 465 l 432 465 q 394 585 432 543 q 286 628 356 628 l 286 715 q 408 683 354 715 q 492 594 461 650 q 524 465 524 538 m 49 229 l 140 229 q 179 110 140 153 q 286 67 218 67 l 286 -21 q 165 12 218 -21 q 80 101 111 44 q 49 229 49 157 m 524 229 q 492 101 524 157 q 408 12 461 44 q 286 -21 354 -21 l 286 67 q 394 110 356 67 q 432 229 432 153 l 524 229 m 306 774 l 214 774 l 304 951 l 413 951 l 306 774 z "},"ô":{"ha":572,"x_min":49,"x_max":524,"o":"m 432 228 l 432 467 l 524 467 l 524 228 l 432 228 m 49 228 l 49 467 l 140 467 l 140 228 l 49 228 m 283 628 l 283 715 l 289 715 l 289 628 l 283 628 m 283 -21 l 283 67 l 289 67 l 289 -21 l 283 -21 m 49 465 q 80 594 49 538 q 165 683 111 650 q 286 715 218 715 l 286 628 q 179 585 218 628 q 140 465 140 543 l 49 465 m 524 465 l 432 465 q 394 585 432 543 q 286 628 356 628 l 286 715 q 408 683 354 715 q 492 594 461 650 q 524 465 524 538 m 49 229 l 140 229 q 179 110 140 153 q 286 67 218 67 l 286 -21 q 165 12 218 -21 q 80 101 111 44 q 49 229 49 157 m 524 229 q 492 101 524 157 q 408 12 461 44 q 286 -21 354 -21 l 286 67 q 394 110 356 67 q 432 229 432 153 l 524 229 m 238 951 l 329 951 l 239 774 l 131 774 l 238 951 m 333 951 l 440 774 l 332 774 l 242 951 l 333 951 z "},"ö":{"ha":572,"x_min":49,"x_max":524,"o":"m 432 228 l 432 467 l 524 467 l 524 228 l 432 228 m 49 228 l 49 467 l 140 467 l 140 228 l 49 228 m 283 628 l 283 715 l 289 715 l 289 628 l 283 628 m 283 -21 l 283 67 l 289 67 l 289 -21 l 283 -21 m 49 465 q 80 594 49 538 q 165 683 111 650 q 286 715 218 715 l 286 628 q 179 585 218 628 q 140 465 140 543 l 49 465 m 524 465 l 432 465 q 394 585 432 543 q 286 628 356 628 l 286 715 q 408 683 354 715 q 492 594 461 650 q 524 465 524 538 m 49 229 l 140 229 q 179 110 140 153 q 286 67 218 67 l 286 -21 q 165 12 218 -21 q 80 101 111 44 q 49 229 49 157 m 524 229 q 492 101 524 157 q 408 12 461 44 q 286 -21 354 -21 l 286 67 q 394 110 356 67 q 432 229 432 153 l 524 229 m 194 786 q 146 806 165 786 q 126 854 126 825 q 146 903 126 883 q 194 924 165 924 q 244 903 224 924 q 264 854 264 883 q 244 806 264 825 q 194 786 224 786 m 375 786 q 326 806 346 786 q 307 854 307 825 q 326 903 307 883 q 375 924 346 924 q 424 903 404 924 q 444 854 444 883 q 424 806 444 825 q 375 786 404 786 z "},"ò":{"ha":572,"x_min":49,"x_max":524,"o":"m 432 228 l 432 467 l 524 467 l 524 228 l 432 228 m 49 228 l 49 467 l 140 467 l 140 228 l 49 228 m 283 628 l 283 715 l 289 715 l 289 628 l 283 628 m 283 -21 l 283 67 l 289 67 l 289 -21 l 283 -21 m 49 465 q 80 594 49 538 q 165 683 111 650 q 286 715 218 715 l 286 628 q 179 585 218 628 q 140 465 140 543 l 49 465 m 524 465 l 432 465 q 394 585 432 543 q 286 628 356 628 l 286 715 q 408 683 354 715 q 492 594 461 650 q 524 465 524 538 m 49 229 l 140 229 q 179 110 140 153 q 286 67 218 67 l 286 -21 q 165 12 218 -21 q 80 101 111 44 q 49 229 49 157 m 524 229 q 492 101 524 157 q 408 12 461 44 q 286 -21 354 -21 l 286 67 q 394 110 356 67 q 432 229 432 153 l 524 229 m 224 774 l 117 951 l 225 951 l 315 774 l 224 774 z "},"ō":{"ha":572,"x_min":49,"x_max":524,"o":"m 432 228 l 432 467 l 524 467 l 524 228 l 432 228 m 49 228 l 49 467 l 140 467 l 140 228 l 49 228 m 283 628 l 283 715 l 289 715 l 289 628 l 283 628 m 283 -21 l 283 67 l 289 67 l 289 -21 l 283 -21 m 49 465 q 80 594 49 538 q 165 683 111 650 q 286 715 218 715 l 286 628 q 179 585 218 628 q 140 465 140 543 l 49 465 m 524 465 l 432 465 q 394 585 432 543 q 286 628 356 628 l 286 715 q 408 683 354 715 q 492 594 461 650 q 524 465 524 538 m 49 229 l 140 229 q 179 110 140 153 q 286 67 218 67 l 286 -21 q 165 12 218 -21 q 80 101 111 44 q 49 229 49 157 m 524 229 q 492 101 524 157 q 408 12 461 44 q 286 -21 354 -21 l 286 67 q 394 110 356 67 q 432 229 432 153 l 524 229 m 99 807 l 99 879 l 474 879 l 474 807 l 99 807 z "},"ø":{"ha":572,"x_min":49,"x_max":524,"o":"m 83 -75 l 407 769 l 486 769 l 163 -75 l 83 -75 m 432 228 l 432 467 l 524 467 l 524 228 l 432 228 m 49 228 l 49 467 l 140 467 l 140 228 l 49 228 m 283 628 l 283 715 l 289 715 l 289 628 l 283 628 m 283 -21 l 283 67 l 289 67 l 289 -21 l 283 -21 m 49 465 q 80 594 49 538 q 165 683 111 650 q 286 715 218 715 l 286 628 q 179 585 218 628 q 140 465 140 543 l 49 465 m 524 465 l 432 465 q 394 585 432 543 q 286 628 356 628 l 286 715 q 408 683 354 715 q 492 594 461 650 q 524 465 524 538 m 49 229 l 140 229 q 179 110 140 153 q 286 67 218 67 l 286 -21 q 165 12 218 -21 q 80 101 111 44 q 49 229 49 157 m 524 229 q 492 101 524 157 q 408 12 461 44 q 286 -21 354 -21 l 286 67 q 394 110 356 67 q 432 229 432 153 l 524 229 z "},"õ":{"ha":572,"x_min":49,"x_max":524,"o":"m 432 228 l 432 467 l 524 467 l 524 228 l 432 228 m 49 228 l 49 467 l 140 467 l 140 228 l 49 228 m 283 628 l 283 715 l 289 715 l 289 628 l 283 628 m 283 -21 l 283 67 l 289 67 l 289 -21 l 283 -21 m 49 465 q 80 594 49 538 q 165 683 111 650 q 286 715 218 715 l 286 628 q 179 585 218 628 q 140 465 140 543 l 49 465 m 524 465 l 432 465 q 394 585 432 543 q 286 628 356 628 l 286 715 q 408 683 354 715 q 492 594 461 650 q 524 465 524 538 m 49 229 l 140 229 q 179 110 140 153 q 286 67 218 67 l 286 -21 q 165 12 218 -21 q 80 101 111 44 q 49 229 49 157 m 524 229 q 492 101 524 157 q 408 12 461 44 q 286 -21 354 -21 l 286 67 q 394 110 356 67 q 432 229 432 153 l 524 229 m 356 832 q 312 840 329 832 q 281 858 294 847 q 252 877 267 869 q 217 885 238 885 l 217 947 q 260 940 243 947 q 292 921 278 932 q 320 902 306 910 q 356 894 335 894 l 356 832 m 114 840 q 141 919 114 890 q 217 947 168 947 l 217 885 q 190 873 200 885 q 181 840 181 861 l 114 840 m 356 832 l 356 894 q 382 906 372 894 q 392 939 392 918 l 458 939 q 431 860 458 889 q 356 832 404 832 z "},"œ":{"ha":958,"x_min":49,"x_max":910,"o":"m 432 228 l 432 467 l 524 467 l 524 228 l 432 228 m 49 228 l 49 467 l 140 467 l 140 228 l 49 228 m 283 628 l 283 715 l 289 715 l 289 628 l 283 628 m 283 -21 l 283 67 l 289 67 l 289 -21 l 283 -21 m 49 465 q 80 594 49 538 q 165 683 111 650 q 286 715 218 715 l 286 628 q 179 585 218 628 q 140 465 140 543 l 49 465 m 524 465 l 432 465 q 394 585 432 543 q 286 628 356 628 l 286 715 q 408 683 354 715 q 492 594 461 650 q 524 465 524 538 m 49 229 l 140 229 q 179 110 140 153 q 286 67 218 67 l 286 -21 q 165 12 218 -21 q 80 101 111 44 q 49 229 49 157 m 524 229 q 492 101 524 157 q 408 12 461 44 q 286 -21 354 -21 l 286 67 q 394 110 356 67 q 432 229 432 153 l 524 229 m 443 315 l 443 394 l 910 394 l 910 315 l 443 315 m 671 -22 l 671 65 l 676 65 l 676 -22 l 671 -22 m 435 228 l 435 465 l 526 465 l 526 228 l 435 228 m 818 394 l 818 486 l 910 486 l 910 394 l 818 394 m 910 486 l 818 486 q 776 588 818 547 q 672 628 735 628 l 672 715 q 794 685 740 715 q 878 603 847 656 q 910 486 910 551 m 821 190 l 910 171 q 870 73 903 117 q 787 3 838 29 q 675 -22 736 -22 l 675 65 q 772 96 731 65 q 821 190 814 126 m 435 465 q 466 594 435 538 q 551 683 497 650 q 672 715 604 715 l 672 628 q 565 585 604 628 q 526 465 526 543 l 435 465 m 435 228 l 526 228 q 565 108 526 151 q 672 65 604 65 l 672 -22 q 551 10 604 -22 q 466 99 497 43 q 435 228 435 156 z "},"p":{"ha":622,"x_min":83,"x_max":560,"o":"m 83 1 l 175 1 l 175 -278 l 83 -278 l 83 1 m 175 694 l 175 0 l 83 0 l 83 694 l 175 694 m 560 486 l 560 208 l 468 208 l 468 486 l 560 486 m 468 208 l 560 208 q 531 91 560 143 q 453 9 503 39 q 342 -21 404 -21 l 322 71 q 426 110 385 71 q 468 208 468 149 m 122 208 l 175 208 q 217 110 175 149 q 322 71 258 71 l 342 -21 q 230 9 279 -21 q 151 91 181 39 q 122 208 122 143 m 468 486 q 426 585 468 546 q 322 624 385 624 l 342 715 q 453 685 404 715 q 531 603 503 656 q 560 486 560 551 l 468 486 m 122 486 q 151 603 122 551 q 230 685 181 656 q 342 715 279 715 l 322 624 q 217 585 258 624 q 175 486 175 546 l 122 486 z "},"þ":{"ha":622,"x_min":83,"x_max":560,"o":"m 83 693 l 83 972 l 175 972 l 175 693 l 83 693 m 83 1 l 175 1 l 175 -278 l 83 -278 l 83 1 m 175 694 l 175 0 l 83 0 l 83 694 l 175 694 m 560 486 l 560 208 l 468 208 l 468 486 l 560 486 m 468 208 l 560 208 q 531 91 560 143 q 453 9 503 39 q 342 -21 404 -21 l 322 71 q 426 110 385 71 q 468 208 468 149 m 122 208 l 175 208 q 217 110 175 149 q 322 71 258 71 l 342 -21 q 230 9 279 -21 q 151 91 181 39 q 122 208 122 143 m 468 486 q 426 585 468 546 q 322 624 385 624 l 342 715 q 453 685 404 715 q 531 603 503 656 q 560 486 560 551 l 468 486 m 122 486 q 151 603 122 551 q 230 685 181 656 q 342 715 279 715 l 322 624 q 217 585 258 624 q 175 486 175 546 l 122 486 z "},"q":{"ha":622,"x_min":63,"x_max":539,"o":"m 539 1 l 539 -278 l 447 -278 l 447 1 l 539 1 m 447 694 l 539 694 l 539 0 l 447 0 l 447 694 m 63 486 l 154 486 l 154 208 l 63 208 l 63 486 m 154 208 q 196 110 154 149 q 300 71 238 71 l 281 -21 q 169 9 218 -21 q 91 91 119 39 q 63 208 63 143 l 154 208 m 500 208 q 472 91 500 143 q 393 9 443 39 q 281 -21 343 -21 l 300 71 q 406 110 364 71 q 447 208 447 149 l 500 208 m 154 486 l 63 486 q 91 603 63 551 q 169 685 119 656 q 281 715 218 715 l 300 624 q 196 585 238 624 q 154 486 154 546 m 500 486 l 447 486 q 406 585 447 546 q 300 624 364 624 l 281 715 q 393 685 343 715 q 472 603 443 656 q 500 486 500 551 z "},"r":{"ha":431,"x_min":83,"x_max":410,"o":"m 83 0 l 83 694 l 175 694 l 175 0 l 83 0 m 121 479 q 144 597 121 544 q 208 678 168 649 q 299 708 249 708 l 293 617 q 208 578 242 617 q 175 479 175 539 l 121 479 m 374 586 q 337 608 360 600 q 293 617 314 617 l 299 708 q 359 697 331 708 q 410 667 388 685 l 374 586 z "},"s":{"ha":558,"x_min":49,"x_max":510,"o":"m 415 174 q 390 236 415 211 q 326 281 365 261 q 244 322 288 301 q 161 367 200 342 q 97 432 122 393 q 72 528 72 471 q 81 528 72 528 q 104 528 90 528 q 132 528 118 528 q 155 528 146 528 q 164 528 164 528 q 189 465 164 490 q 253 421 214 440 q 335 381 292 401 q 418 335 379 361 q 482 270 457 308 q 507 174 507 232 q 498 174 507 174 q 475 174 489 174 q 447 174 461 174 q 424 174 433 174 q 415 174 415 174 m 283 -21 l 283 67 q 378 97 340 67 q 415 174 415 128 l 507 174 q 478 74 507 118 q 398 5 449 31 q 283 -21 347 -21 m 72 528 q 99 625 72 582 q 172 692 125 668 q 275 717 218 717 l 275 629 q 196 601 228 629 q 164 528 164 572 l 72 528 m 138 192 q 186 97 144 128 q 283 67 228 67 l 283 -21 q 172 5 224 -21 q 88 74 121 31 q 49 172 56 118 l 138 192 m 421 504 q 372 599 414 569 q 275 629 331 629 l 275 717 q 387 691 336 717 q 470 622 438 665 q 510 524 503 579 l 421 504 z "},"ß":{"ha":663,"x_min":83,"x_max":600,"o":"m 83 0 l 83 722 l 171 722 l 171 0 l 83 0 m 264 0 l 278 83 l 363 83 l 363 0 l 264 0 m 264 447 l 264 531 l 363 531 l 363 447 l 264 447 m 513 249 l 513 282 l 600 282 l 600 249 l 513 249 m 471 696 l 471 724 l 558 724 l 558 696 l 471 696 m 83 722 q 112 857 83 801 q 194 942 140 913 q 321 972 247 972 l 321 889 q 210 844 250 889 q 171 722 171 800 l 83 722 m 558 722 l 471 722 q 431 844 471 800 q 321 889 392 889 l 321 972 q 449 942 396 972 q 530 857 501 913 q 558 722 558 801 m 558 697 q 530 563 558 619 q 449 477 501 507 q 321 447 396 447 l 321 531 q 431 575 392 531 q 471 697 471 619 l 558 697 m 600 281 l 513 281 q 473 403 513 358 q 363 447 433 447 l 363 531 q 490 501 438 531 q 572 415 543 471 q 600 281 600 360 m 600 250 q 572 116 600 172 q 490 30 543 60 q 363 0 438 0 l 363 83 q 473 128 433 83 q 513 250 513 172 l 600 250 z "},"t":{"ha":451,"x_min":49,"x_max":424,"o":"m 129 193 l 129 974 l 221 972 l 221 193 l 129 193 m 49 611 l 49 694 l 396 694 l 396 611 l 49 611 m 129 194 l 221 194 q 233 126 221 154 q 266 82 244 97 q 318 67 288 67 l 311 -21 q 178 36 226 -21 q 129 194 129 93 m 383 90 l 424 18 q 372 -10 401 0 q 311 -21 342 -21 l 318 67 q 352 74 336 67 q 383 90 368 81 z "},"u":{"ha":622,"x_min":63,"x_max":539,"o":"m 539 694 l 539 0 l 447 0 l 447 694 l 539 694 m 154 694 l 154 208 l 63 208 l 63 694 l 154 694 m 154 208 q 196 110 154 149 q 300 71 238 71 l 281 -21 q 169 9 218 -21 q 91 91 119 39 q 63 208 63 143 l 154 208 m 500 208 q 472 91 500 143 q 393 9 443 39 q 281 -21 343 -21 l 300 71 q 406 110 364 71 q 447 208 447 149 l 500 208 z "},"ú":{"ha":622,"x_min":63,"x_max":539,"o":"m 539 694 l 539 0 l 447 0 l 447 694 l 539 694 m 154 694 l 154 208 l 63 208 l 63 694 l 154 694 m 154 208 q 196 110 154 149 q 300 71 238 71 l 281 -21 q 169 9 218 -21 q 91 91 119 39 q 63 208 63 143 l 154 208 m 500 208 q 472 91 500 143 q 393 9 443 39 q 281 -21 343 -21 l 300 71 q 406 110 364 71 q 447 208 447 149 l 500 208 m 315 774 l 224 774 l 314 951 l 422 951 l 315 774 z "},"û":{"ha":622,"x_min":63,"x_max":539,"o":"m 539 694 l 539 0 l 447 0 l 447 694 l 539 694 m 154 694 l 154 208 l 63 208 l 63 694 l 154 694 m 154 208 q 196 110 154 149 q 300 71 238 71 l 281 -21 q 169 9 218 -21 q 91 91 119 39 q 63 208 63 143 l 154 208 m 500 208 q 472 91 500 143 q 393 9 443 39 q 281 -21 343 -21 l 300 71 q 406 110 364 71 q 447 208 447 149 l 500 208 m 247 951 l 339 951 l 249 774 l 140 774 l 247 951 m 343 951 l 450 774 l 342 774 l 251 951 l 343 951 z "},"ü":{"ha":622,"x_min":63,"x_max":539,"o":"m 539 694 l 539 0 l 447 0 l 447 694 l 539 694 m 154 694 l 154 208 l 63 208 l 63 694 l 154 694 m 154 208 q 196 110 154 149 q 300 71 238 71 l 281 -21 q 169 9 218 -21 q 91 91 119 39 q 63 208 63 143 l 154 208 m 500 208 q 472 91 500 143 q 393 9 443 39 q 281 -21 343 -21 l 300 71 q 406 110 364 71 q 447 208 447 149 l 500 208 m 204 786 q 156 806 175 786 q 136 854 136 825 q 156 903 136 883 q 204 924 175 924 q 253 903 233 924 q 274 854 274 883 q 253 806 274 825 q 204 786 233 786 m 385 786 q 336 806 356 786 q 317 854 317 825 q 336 903 317 883 q 385 924 356 924 q 434 903 414 924 q 454 854 454 883 q 434 806 454 825 q 385 786 414 786 z "},"ù":{"ha":622,"x_min":63,"x_max":539,"o":"m 539 694 l 539 0 l 447 0 l 447 694 l 539 694 m 154 694 l 154 208 l 63 208 l 63 694 l 154 694 m 154 208 q 196 110 154 149 q 300 71 238 71 l 281 -21 q 169 9 218 -21 q 91 91 119 39 q 63 208 63 143 l 154 208 m 500 208 q 472 91 500 143 q 393 9 443 39 q 281 -21 343 -21 l 300 71 q 406 110 364 71 q 447 208 447 149 l 500 208 m 233 774 l 126 951 l 235 951 l 325 774 l 233 774 z "},"ū":{"ha":622,"x_min":63,"x_max":539,"o":"m 539 694 l 539 0 l 447 0 l 447 694 l 539 694 m 154 694 l 154 208 l 63 208 l 63 694 l 154 694 m 154 208 q 196 110 154 149 q 300 71 238 71 l 281 -21 q 169 9 218 -21 q 91 91 119 39 q 63 208 63 143 l 154 208 m 500 208 q 472 91 500 143 q 393 9 443 39 q 281 -21 343 -21 l 300 71 q 406 110 364 71 q 447 208 447 149 l 500 208 m 108 807 l 108 879 l 483 879 l 483 807 l 108 807 z "},"v":{"ha":638,"x_min":42,"x_max":596,"o":"m 274 0 l 504 694 l 596 694 l 365 0 l 274 0 m 272 0 l 42 694 l 133 694 l 364 0 l 272 0 z "},"w":{"ha":925,"x_min":42,"x_max":883,"o":"m 604 0 l 792 694 l 883 694 l 696 0 l 604 0 m 229 0 l 42 694 l 133 694 l 321 0 l 229 0 m 229 0 l 417 694 l 508 694 l 321 0 l 229 0 m 604 0 l 417 694 l 508 694 l 696 0 l 604 0 z "},"ẃ":{"ha":925,"x_min":42,"x_max":883,"o":"m 604 0 l 792 694 l 883 694 l 696 0 l 604 0 m 229 0 l 42 694 l 133 694 l 321 0 l 229 0 m 229 0 l 417 694 l 508 694 l 321 0 l 229 0 m 604 0 l 417 694 l 508 694 l 696 0 l 604 0 m 482 774 l 390 774 l 481 951 l 589 951 l 482 774 z "},"ŵ":{"ha":925,"x_min":42,"x_max":883,"o":"m 604 0 l 792 694 l 883 694 l 696 0 l 604 0 m 229 0 l 42 694 l 133 694 l 321 0 l 229 0 m 229 0 l 417 694 l 508 694 l 321 0 l 229 0 m 604 0 l 417 694 l 508 694 l 696 0 l 604 0 m 414 951 l 506 951 l 415 774 l 307 774 l 414 951 m 510 951 l 617 774 l 508 774 l 418 951 l 510 951 z "},"ẅ":{"ha":925,"x_min":42,"x_max":883,"o":"m 604 0 l 792 694 l 883 694 l 696 0 l 604 0 m 229 0 l 42 694 l 133 694 l 321 0 l 229 0 m 229 0 l 417 694 l 508 694 l 321 0 l 229 0 m 604 0 l 417 694 l 508 694 l 696 0 l 604 0 m 371 786 q 322 806 342 786 q 303 854 303 825 q 322 903 303 883 q 371 924 342 924 q 420 903 400 924 q 440 854 440 883 q 420 806 440 825 q 371 786 400 786 m 551 786 q 503 806 522 786 q 483 854 483 825 q 503 903 483 883 q 551 924 522 924 q 601 903 581 924 q 621 854 621 883 q 601 806 621 825 q 551 786 581 786 z "},"ẁ":{"ha":925,"x_min":42,"x_max":883,"o":"m 604 0 l 792 694 l 883 694 l 696 0 l 604 0 m 229 0 l 42 694 l 133 694 l 321 0 l 229 0 m 229 0 l 417 694 l 508 694 l 321 0 l 229 0 m 604 0 l 417 694 l 508 694 l 696 0 l 604 0 m 400 774 l 293 951 l 401 951 l 492 774 l 400 774 z "},"x":{"ha":581,"x_min":42,"x_max":539,"o":"m 439 0 l 42 694 l 142 694 l 539 0 l 439 0 m 42 0 l 240 347 l 340 347 l 142 0 l 42 0 m 240 347 l 439 694 l 539 694 l 340 347 l 240 347 z "},"y":{"ha":639,"x_min":42,"x_max":597,"o":"m 82 -260 l 100 -179 q 190 -168 153 -193 q 251 -69 228 -143 l 343 -69 q 236 -237 303 -192 q 82 -260 169 -283 m 251 -69 l 506 694 l 597 694 l 343 -69 l 251 -69 m 282 -26 l 42 694 l 133 694 l 331 100 l 282 -26 z "},"ý":{"ha":639,"x_min":42,"x_max":597,"o":"m 82 -260 l 100 -179 q 190 -168 153 -193 q 251 -69 228 -143 l 343 -69 q 236 -237 303 -192 q 82 -260 169 -283 m 251 -69 l 506 694 l 597 694 l 343 -69 l 251 -69 m 282 -26 l 42 694 l 133 694 l 331 100 l 282 -26 m 339 774 l 247 774 l 338 951 l 446 951 l 339 774 z "},"ŷ":{"ha":639,"x_min":42,"x_max":597,"o":"m 82 -260 l 100 -179 q 190 -168 153 -193 q 251 -69 228 -143 l 343 -69 q 236 -237 303 -192 q 82 -260 169 -283 m 251 -69 l 506 694 l 597 694 l 343 -69 l 251 -69 m 282 -26 l 42 694 l 133 694 l 331 100 l 282 -26 m 271 951 l 363 951 l 272 774 l 164 774 l 271 951 m 367 951 l 474 774 l 365 774 l 275 951 l 367 951 z "},"ÿ":{"ha":639,"x_min":42,"x_max":597,"o":"m 82 -260 l 100 -179 q 190 -168 153 -193 q 251 -69 228 -143 l 343 -69 q 236 -237 303 -192 q 82 -260 169 -283 m 251 -69 l 506 694 l 597 694 l 343 -69 l 251 -69 m 282 -26 l 42 694 l 133 694 l 331 100 l 282 -26 m 228 786 q 179 806 199 786 q 160 854 160 825 q 179 903 160 883 q 228 924 199 924 q 277 903 257 924 q 297 854 297 883 q 277 806 297 825 q 228 786 257 786 m 408 786 q 360 806 379 786 q 340 854 340 825 q 360 903 340 883 q 408 924 379 924 q 458 903 438 924 q 478 854 478 883 q 458 806 478 825 q 408 786 438 786 z "},"ỳ":{"ha":639,"x_min":42,"x_max":597,"o":"m 82 -260 l 100 -179 q 190 -168 153 -193 q 251 -69 228 -143 l 343 -69 q 236 -237 303 -192 q 82 -260 169 -283 m 251 -69 l 506 694 l 597 694 l 343 -69 l 251 -69 m 282 -26 l 42 694 l 133 694 l 331 100 l 282 -26 m 257 774 l 150 951 l 258 951 l 349 774 l 257 774 z "},"z":{"ha":583,"x_min":76,"x_max":507,"o":"m 76 88 l 403 607 l 507 607 l 182 88 l 76 88 m 76 0 l 76 88 l 507 88 l 507 0 l 76 0 m 76 607 l 76 694 l 507 694 l 507 607 l 76 607 z "},"ª":{"ha":490,"x_min":63,"x_max":428,"o":"m 360 443 l 360 808 l 428 808 l 428 443 l 360 443 m 229 428 l 229 490 q 299 511 269 490 q 344 572 328 532 q 360 667 360 611 l 399 667 q 377 542 399 596 q 317 458 356 488 q 229 428 278 428 m 229 428 q 147 449 185 428 q 85 509 108 471 q 63 594 63 547 l 131 594 q 161 520 131 550 q 229 490 192 490 l 229 428 m 63 594 q 85 679 63 642 q 149 738 108 717 q 239 760 189 760 l 239 697 q 162 668 193 697 q 131 594 131 639 l 63 594 m 239 697 l 239 760 l 414 760 l 414 697 l 239 697 m 360 667 l 360 808 l 399 808 l 399 667 l 360 667 m 428 808 l 360 808 q 328 883 360 853 q 250 914 297 914 l 250 979 q 342 957 301 979 q 405 896 382 935 q 428 808 428 857 m 140 821 l 74 835 q 132 938 82 896 q 250 979 182 979 l 250 914 q 177 891 208 914 q 140 821 146 868 z "},"º":{"ha":482,"x_min":63,"x_max":419,"o":"m 350 628 l 350 807 l 419 807 l 419 628 l 350 628 m 63 628 l 63 807 l 132 807 l 132 628 l 63 628 m 239 928 l 239 993 l 243 993 l 243 928 l 239 928 m 239 442 l 239 507 l 243 507 l 243 442 l 239 442 m 63 806 q 86 902 63 860 q 150 969 110 944 q 242 993 190 993 l 242 928 q 160 896 189 928 q 132 806 132 864 l 63 806 m 419 806 l 350 806 q 322 896 350 864 q 242 928 293 928 l 242 993 q 332 969 292 993 q 396 902 372 944 q 419 806 419 860 m 63 629 l 132 629 q 160 539 132 571 q 242 507 189 507 l 242 442 q 150 466 190 442 q 86 533 110 490 q 63 629 63 575 m 419 629 q 396 533 419 575 q 332 466 372 490 q 242 442 292 442 l 242 507 q 322 539 293 507 q 350 629 350 571 l 419 629 z "},"ऄ":{"ha":790,"x_min":35,"x_max":825,"o":"m 390 671 q 354 768 390 729 q 264 807 318 807 l 264 894 q 376 865 326 894 q 453 785 425 836 q 482 671 482 735 l 390 671 m 133 682 l 44 701 q 83 800 51 757 q 162 869 114 843 q 265 894 210 894 l 265 807 q 176 771 214 807 q 133 682 139 735 m 381 367 l 381 450 l 681 450 l 681 367 l 381 367 m 394 269 q 352 389 394 342 q 244 436 310 436 l 244 519 q 366 487 313 519 q 451 398 419 454 q 482 269 482 342 l 394 269 m 258 21 q 94 87 153 21 q 35 271 35 153 l 122 271 q 158 149 122 193 q 258 104 194 104 l 258 21 m 258 21 l 258 104 q 359 149 324 104 q 394 271 394 193 l 482 271 q 456 137 482 193 q 379 51 429 81 q 258 21 329 21 m 188 436 l 188 524 l 258 524 l 258 436 l 188 436 m 257 436 l 257 524 q 352 566 314 524 q 390 672 390 608 l 482 672 q 452 552 482 606 q 372 467 422 499 q 257 436 321 436 m 601 0 l 601 875 l 689 875 l 689 0 l 601 0 m 632 788 l 632 875 l 825 875 l 825 788 l 632 788 m 600 875 q 590 958 611 928 q 513 1000 569 989 l 526 1083 q 630 1044 592 1071 q 683 975 668 1017 q 688 875 697 933 l 600 875 m 513 1000 q 410 1040 449 1014 q 357 1108 371 1067 q 351 1208 343 1150 l 439 1208 q 449 1125 428 1156 q 526 1083 471 1094 l 513 1000 z "},"ॲ":{"ha":790,"x_min":35,"x_max":865,"o":"m 390 671 q 354 768 390 729 q 264 807 318 807 l 264 894 q 376 865 326 894 q 453 785 425 836 q 482 671 482 735 l 390 671 m 133 682 l 44 701 q 83 800 51 757 q 162 869 114 843 q 265 894 210 894 l 265 807 q 176 771 214 807 q 133 682 139 735 m 381 367 l 381 450 l 681 450 l 681 367 l 381 367 m 394 269 q 352 389 394 342 q 244 436 310 436 l 244 519 q 366 487 313 519 q 451 398 419 454 q 482 269 482 342 l 394 269 m 258 21 q 94 87 153 21 q 35 271 35 153 l 122 271 q 158 149 122 193 q 258 104 194 104 l 258 21 m 258 21 l 258 104 q 359 149 324 104 q 394 271 394 193 l 482 271 q 456 137 482 193 q 379 51 429 81 q 258 21 329 21 m 188 436 l 188 524 l 258 524 l 258 436 l 188 436 m 257 436 l 257 524 q 352 566 314 524 q 390 672 390 608 l 482 672 q 452 552 482 606 q 372 467 422 499 q 257 436 321 436 m 601 0 l 601 875 l 689 875 l 689 0 l 601 0 m 632 788 l 632 875 l 825 875 l 825 788 l 632 788 m 610 960 l 610 1035 q 714 1060 667 1035 q 790 1131 761 1086 l 865 1094 q 753 995 821 1031 q 610 960 685 960 m 610 960 q 467 995 535 960 q 354 1094 399 1031 l 429 1131 q 506 1060 458 1086 q 610 1035 554 1035 l 610 960 z "},"अ":{"ha":790,"x_min":35,"x_max":825,"o":"m 390 671 q 354 768 390 729 q 264 807 318 807 l 264 894 q 376 865 326 894 q 453 785 425 836 q 482 671 482 735 l 390 671 m 133 682 l 44 701 q 83 800 51 757 q 162 869 114 843 q 265 894 210 894 l 265 807 q 176 771 214 807 q 133 682 139 735 m 381 367 l 381 450 l 681 450 l 681 367 l 381 367 m 394 269 q 352 389 394 342 q 244 436 310 436 l 244 519 q 366 487 313 519 q 451 398 419 454 q 482 269 482 342 l 394 269 m 258 21 q 94 87 153 21 q 35 271 35 153 l 122 271 q 158 149 122 193 q 258 104 194 104 l 258 21 m 258 21 l 258 104 q 359 149 324 104 q 394 271 394 193 l 482 271 q 456 137 482 193 q 379 51 429 81 q 258 21 329 21 m 188 436 l 188 524 l 258 524 l 258 436 l 188 436 m 257 436 l 257 524 q 352 566 314 524 q 390 672 390 608 l 482 672 q 452 552 482 606 q 372 467 422 499 q 257 436 321 436 m 601 0 l 601 875 l 689 875 l 689 0 l 601 0 m 632 788 l 632 875 l 825 875 l 825 788 l 632 788 z "},"आ":{"ha":1081,"x_min":35,"x_max":1115,"o":"m 390 671 q 354 768 390 729 q 264 807 318 807 l 264 894 q 376 865 326 894 q 453 785 425 836 q 482 671 482 735 l 390 671 m 133 682 l 44 701 q 83 800 51 757 q 162 869 114 843 q 265 894 210 894 l 265 807 q 176 771 214 807 q 133 682 139 735 m 381 367 l 381 450 l 681 450 l 681 367 l 381 367 m 394 269 q 352 389 394 342 q 244 436 310 436 l 244 519 q 366 487 313 519 q 451 398 419 454 q 482 269 482 342 l 394 269 m 258 21 q 94 87 153 21 q 35 271 35 153 l 122 271 q 158 149 122 193 q 258 104 194 104 l 258 21 m 258 21 l 258 104 q 359 149 324 104 q 394 271 394 193 l 482 271 q 456 137 482 193 q 379 51 429 81 q 258 21 329 21 m 188 436 l 188 524 l 258 524 l 258 436 l 188 436 m 257 436 l 257 524 q 352 566 314 524 q 390 672 390 608 l 482 672 q 452 552 482 606 q 372 467 422 499 q 257 436 321 436 m 601 0 l 601 875 l 689 875 l 689 0 l 601 0 m 632 788 l 632 875 l 825 875 l 825 788 l 632 788 m 892 0 l 892 861 l 979 861 l 979 0 l 892 0 m 756 788 l 756 875 l 1115 875 l 1115 788 l 756 788 z "},"इ":{"ha":546,"x_min":-35,"x_max":581,"o":"m -35 788 l -35 875 l 581 875 l 581 788 l -35 788 m 278 0 l 278 83 q 372 115 339 83 q 406 201 406 146 l 493 201 q 436 53 493 107 q 278 0 379 0 m 269 333 q 120 378 174 333 q 67 504 67 424 l 158 504 q 191 440 158 463 q 283 417 224 417 l 269 333 m 406 201 q 370 301 406 267 q 269 333 335 336 l 283 417 q 397 391 350 417 q 468 317 443 365 q 493 201 493 269 l 406 201 m 67 504 q 122 626 67 582 q 276 671 178 671 l 276 588 q 190 566 221 588 q 158 504 158 544 l 67 504 m 276 588 l 276 671 l 436 671 l 436 588 l 276 588 m 349 625 l 349 854 l 436 854 l 436 625 l 349 625 m 54 150 l 138 150 q 160 101 138 119 q 221 83 182 83 l 221 18 q 99 53 143 18 q 54 150 54 88 m 96 269 l 179 228 q 138 150 138 179 l 54 150 q 96 269 54 208 m 96 269 l 221 214 l 221 67 l 138 67 l 96 269 m 286 0 q 217 10 247 0 q 149 42 186 19 l 163 125 q 228 93 200 103 q 286 83 256 83 l 286 0 m 263 -164 l 88 147 l 163 189 l 339 -119 l 263 -164 z "},"ई":{"ha":546,"x_min":-35,"x_max":581,"o":"m 244 1026 l 161 1042 q 191 1147 161 1101 q 273 1220 221 1193 q 390 1247 325 1247 l 390 1172 q 286 1131 328 1172 q 244 1026 244 1089 m 390 808 q 273 839 325 808 q 191 922 221 869 q 161 1042 161 975 l 244 1026 q 286 919 244 963 q 390 875 328 875 l 390 808 m 444 1163 q 416 1169 431 1167 q 389 1172 401 1172 l 389 1247 q 439 1242 413 1247 q 488 1228 465 1238 l 444 1163 m -35 788 l -35 875 l 581 875 l 581 788 l -35 788 m 278 0 l 278 83 q 372 115 339 83 q 406 201 406 146 l 493 201 q 436 53 493 107 q 278 0 379 0 m 269 333 q 120 378 174 333 q 67 504 67 424 l 158 504 q 191 440 158 463 q 283 417 224 417 l 269 333 m 406 201 q 370 301 406 267 q 269 333 335 336 l 283 417 q 397 391 350 417 q 468 317 443 365 q 493 201 493 269 l 406 201 m 67 504 q 122 626 67 582 q 276 671 178 671 l 276 588 q 190 566 221 588 q 158 504 158 544 l 67 504 m 276 588 l 276 671 l 436 671 l 436 588 l 276 588 m 349 625 l 349 854 l 436 854 l 436 625 l 349 625 m 54 150 l 138 150 q 160 101 138 119 q 221 83 182 83 l 221 18 q 99 53 143 18 q 54 150 54 88 m 96 269 l 179 228 q 138 150 138 179 l 54 150 q 96 269 54 208 m 96 269 l 221 214 l 221 67 l 138 67 l 96 269 m 286 0 q 217 10 247 0 q 149 42 186 19 l 163 125 q 228 93 200 103 q 286 83 256 83 l 286 0 m 263 -164 l 88 147 l 163 189 l 339 -119 l 263 -164 z "},"उ":{"ha":553,"x_min":-35,"x_max":588,"o":"m 397 660 q 356 751 397 715 q 251 788 314 788 l 251 854 q 373 828 319 854 q 458 759 426 803 q 489 660 489 715 l 397 660 m -35 788 l -35 875 l 588 875 l 588 788 l -35 788 m 401 258 q 359 378 401 331 q 251 425 317 425 l 251 508 q 373 476 319 508 q 458 387 426 443 q 489 258 489 331 l 401 258 m 265 10 q 101 76 160 10 q 42 260 42 142 l 129 260 q 165 138 129 182 q 265 93 201 93 l 265 10 m 265 10 l 265 93 q 366 138 331 93 q 401 260 401 182 l 489 260 q 463 126 489 182 q 386 40 436 69 q 265 10 336 10 m 194 425 l 194 513 l 265 513 l 265 425 l 194 425 m 264 425 l 264 513 q 359 555 321 513 q 397 661 397 597 l 489 661 q 459 541 489 594 q 378 456 429 488 q 264 425 328 425 z "},"ऊ":{"ha":792,"x_min":-35,"x_max":826,"o":"m 186 788 l 186 875 l 826 875 l 826 788 l 186 788 m 529 35 l 529 122 q 654 159 610 122 q 699 260 699 196 l 786 260 q 756 138 786 189 q 667 61 725 88 q 529 35 610 35 m 457 350 l 421 421 q 479 458 446 444 q 543 472 513 472 l 543 385 q 502 376 525 385 q 457 350 479 368 m 699 260 q 658 352 699 319 q 543 385 617 385 l 543 472 q 674 447 619 472 q 757 374 728 422 q 786 260 786 326 l 699 260 m 397 660 q 356 751 397 715 q 251 788 314 788 l 251 854 q 373 828 319 854 q 458 759 426 803 q 489 660 489 715 l 397 660 m -35 788 l -35 875 l 588 875 l 588 788 l -35 788 m 401 258 q 359 378 401 331 q 251 425 317 425 l 251 508 q 373 476 319 508 q 458 387 426 443 q 489 258 489 331 l 401 258 m 265 10 q 101 76 160 10 q 42 260 42 142 l 129 260 q 165 138 129 182 q 265 93 201 93 l 265 10 m 265 10 l 265 93 q 366 138 331 93 q 401 260 401 182 l 489 260 q 463 126 489 182 q 386 40 436 69 q 265 10 336 10 m 194 425 l 194 513 l 265 513 l 265 425 l 194 425 m 264 425 l 264 513 q 359 555 321 513 q 397 661 397 597 l 489 661 q 459 541 489 594 q 378 456 429 488 q 264 425 328 425 z "},"ऋ":{"ha":1169,"x_min":-35,"x_max":1204,"o":"m 479 294 l 479 421 l 688 603 l 688 479 l 479 294 m 940 -11 q 832 15 879 -11 q 758 85 785 40 q 731 189 731 131 l 814 189 q 849 102 814 136 q 940 68 885 68 l 940 -11 m 940 -11 l 940 68 q 1031 103 994 68 q 1067 189 1067 138 l 1150 171 q 1122 78 1150 119 q 1047 13 1094 36 q 940 -11 1000 -11 m 731 189 q 761 292 731 247 q 845 363 792 338 q 968 389 899 389 l 968 314 q 857 279 900 314 q 814 189 814 244 l 731 189 m 954 314 q 799 345 867 314 q 692 431 731 376 q 654 556 654 485 l 738 556 q 799 436 738 483 q 954 389 860 389 l 954 314 m 654 556 q 676 646 654 607 q 736 707 697 685 q 824 729 775 729 l 824 650 q 762 624 786 650 q 738 556 738 597 l 654 556 m 893 594 q 874 634 893 618 q 824 650 854 650 l 824 729 q 903 712 868 729 q 957 665 938 694 q 976 594 976 635 l 893 594 m 633 788 l 633 875 l 1204 875 l 1204 788 l 633 788 m 849 464 l 811 539 q 872 555 850 540 q 893 594 893 569 l 976 594 q 963 533 978 560 q 919 488 947 506 q 849 464 890 471 m 171 0 l 107 65 l 461 422 l 461 292 l 171 0 m 299 488 q 190 559 242 557 q 71 522 138 561 l 32 603 q 147 648 94 638 q 251 635 200 658 q 358 546 303 613 l 299 488 m 461 292 l 299 488 l 358 546 l 521 351 l 461 292 m -35 788 l -35 875 l 411 875 l 411 788 l -35 788 m 451 0 l 451 861 l 539 861 l 539 0 l 451 0 m 315 788 l 315 875 l 675 875 l 675 788 l 315 788 z "},"ॠ":{"ha":1143,"x_min":-35,"x_max":1178,"o":"m 983 -117 q 844 -98 899 -131 q 775 7 790 -65 l 858 22 q 894 -34 865 -17 q 971 -44 924 -51 l 983 -117 m 775 7 q 810 138 761 85 q 961 210 860 192 l 985 132 q 886 91 919 119 q 858 22 853 63 l 775 7 m 985 132 q 812 143 882 114 q 731 238 742 172 l 819 254 q 871 213 826 225 q 979 214 915 201 l 985 132 m 983 -117 l 971 -44 q 1038 -4 1017 -33 q 1051 68 1060 25 l 1135 83 q 1107 -50 1147 3 q 983 -117 1067 -103 m 731 238 q 774 356 718 304 q 932 426 829 408 l 954 356 q 852 315 890 344 q 819 254 814 286 l 731 238 m 954 356 q 733 416 813 356 q 654 583 654 476 l 738 583 q 763 501 738 536 q 838 449 789 467 q 954 431 886 431 l 954 356 m 654 583 q 676 674 654 635 q 736 735 697 713 q 824 757 775 757 l 824 678 q 779 666 799 678 q 749 633 760 654 q 738 583 738 611 l 654 583 m 893 622 q 874 662 893 646 q 824 678 854 678 l 824 757 q 903 740 868 757 q 957 692 938 722 q 976 622 976 663 l 893 622 m 606 788 l 606 875 l 1178 875 l 1178 788 l 606 788 m 849 492 l 811 567 q 872 583 850 568 q 893 622 893 597 l 976 622 q 963 560 978 588 q 919 516 947 533 q 849 492 890 499 m 479 294 l 479 421 l 688 603 l 688 479 l 479 294 m 171 0 l 107 65 l 461 422 l 461 292 l 171 0 m 299 488 q 190 559 242 557 q 71 522 138 561 l 32 603 q 147 648 94 638 q 251 635 200 658 q 358 546 303 613 l 299 488 m 461 292 l 299 488 l 358 546 l 521 351 l 461 292 m -35 788 l -35 875 l 411 875 l 411 788 l -35 788 m 451 0 l 451 861 l 539 861 l 539 0 l 451 0 m 315 788 l 315 875 l 675 875 l 675 788 l 315 788 z "},"ऌ":{"ha":818,"x_min":-35,"x_max":853,"o":"m 631 171 l 631 813 l 718 813 l 718 171 l 631 171 m 274 788 l 274 875 l 853 875 l 853 788 l 274 788 m 376 415 q 444 590 376 526 q 635 653 513 653 l 635 569 q 509 529 554 569 q 464 415 464 489 l 376 415 m 633 569 l 633 653 l 656 653 l 656 569 l 633 569 m 411 -21 q 232 17 307 -21 q 117 127 157 54 q 76 301 76 200 l 164 301 q 229 126 164 189 q 411 63 294 63 l 411 -21 m 76 301 l 76 361 l 164 361 l 164 301 l 76 301 m 76 360 q 130 576 76 499 q 278 653 183 653 l 278 569 q 194 514 224 569 q 164 360 164 458 l 76 360 m 376 296 l 376 415 l 464 415 l 464 296 l 376 296 m 376 415 q 351 529 376 489 q 278 569 325 569 l 278 653 q 415 592 365 654 q 464 415 464 529 l 376 415 m -35 788 l -35 875 l 619 875 l 619 788 l -35 788 m 631 238 l 631 653 l 718 653 l 718 238 l 631 238 m 531 75 q 579 183 531 143 q 715 226 628 224 l 722 153 q 642 131 675 153 q 610 75 610 108 l 531 75 m 749 -81 q 588 -39 646 -81 q 531 75 531 3 l 610 75 q 649 17 610 40 q 749 -6 689 -6 l 749 -81 z "},"ॡ":{"ha":818,"x_min":-35,"x_max":853,"o":"m 631 143 l 631 813 l 718 813 l 718 171 l 631 143 m 274 788 l 274 875 l 853 875 l 853 788 l 274 788 m 376 415 q 444 590 376 526 q 635 653 513 653 l 635 569 q 509 529 554 569 q 464 415 464 489 l 376 415 m 633 569 l 633 653 l 656 653 l 656 569 l 633 569 m 411 -21 q 232 17 307 -21 q 117 127 157 54 q 76 301 76 200 l 164 301 q 229 126 164 189 q 411 63 294 63 l 411 -21 m 76 301 l 76 361 l 164 361 l 164 301 l 76 301 m 76 360 q 130 576 76 499 q 278 653 183 653 l 278 569 q 194 514 224 569 q 164 360 164 458 l 76 360 m 376 296 l 376 415 l 464 415 l 464 296 l 376 296 m 376 415 q 351 529 376 489 q 278 569 325 569 l 278 653 q 415 592 365 654 q 464 415 464 529 l 376 415 m -35 788 l -35 875 l 619 875 l 619 788 l -35 788 m 631 238 l 631 653 l 718 653 l 718 238 l 631 238 m 539 -132 q 591 -20 533 -64 q 758 35 649 24 l 778 -31 q 653 -58 697 -35 q 610 -118 608 -81 l 539 -132 m 807 -244 q 615 -224 686 -254 q 539 -132 544 -194 l 610 -118 q 661 -174 613 -157 q 794 -182 710 -192 l 807 -244 m 775 -22 q 613 -31 676 -50 q 533 47 549 -12 l 610 68 q 660 31 621 39 q 758 38 699 24 l 775 -22 m 533 47 q 563 161 518 111 q 701 238 607 211 l 718 171 q 628 128 657 156 q 610 68 600 101 l 533 47 z "},"ऍ":{"ha":625,"x_min":-35,"x_max":671,"o":"m 451 -21 q 255 26 328 -21 q 150 171 182 74 q 118 418 118 268 l 210 418 q 232 220 210 299 q 307 104 254 142 q 451 67 360 67 l 451 -21 m 118 418 l 118 839 l 210 839 l 210 418 l 118 418 m 444 597 l 444 840 l 536 840 l 536 597 l 444 597 m -35 788 l -35 875 l 660 875 l 660 788 l -35 788 m 536 597 q 513 460 536 519 q 443 364 490 400 q 325 319 396 328 l 311 407 q 388 442 358 415 q 431 508 417 468 q 444 597 444 549 l 536 597 m 415 960 l 415 1035 q 519 1060 472 1035 q 596 1131 567 1086 l 671 1094 q 558 995 626 1031 q 415 960 490 960 m 415 960 q 272 995 340 960 q 160 1094 204 1031 l 235 1131 q 312 1060 264 1086 q 415 1035 360 1035 l 415 960 z "},"ऎ":{"ha":625,"x_min":-35,"x_max":660,"o":"m 451 -21 q 255 26 328 -21 q 150 171 182 74 q 118 418 118 268 l 210 418 q 232 220 210 299 q 307 104 254 142 q 451 67 360 67 l 451 -21 m 118 418 l 118 839 l 210 839 l 210 418 l 118 418 m 444 597 l 444 840 l 536 840 l 536 597 l 444 597 m -35 788 l -35 875 l 660 875 l 660 788 l -35 788 m 536 597 q 513 460 536 519 q 443 364 490 400 q 325 319 396 328 l 311 407 q 388 442 358 415 q 431 508 417 468 q 444 597 444 549 l 536 597 m 458 875 q 449 958 469 928 q 371 1000 428 989 l 385 1083 q 488 1044 450 1071 q 541 975 526 1017 q 546 875 556 933 l 458 875 m 371 1000 q 268 1040 307 1014 q 215 1108 229 1067 q 210 1208 201 1150 l 297 1208 q 308 1125 286 1156 q 385 1083 329 1094 l 371 1000 z "},"ए":{"ha":625,"x_min":-35,"x_max":660,"o":"m 451 -21 q 255 26 328 -21 q 150 171 182 74 q 118 418 118 268 l 210 418 q 232 220 210 299 q 307 104 254 142 q 451 67 360 67 l 451 -21 m 118 418 l 118 839 l 210 839 l 210 418 l 118 418 m 444 597 l 444 840 l 536 840 l 536 597 l 444 597 m -35 788 l -35 875 l 660 875 l 660 788 l -35 788 m 536 597 q 513 460 536 519 q 443 364 490 400 q 325 319 396 328 l 311 407 q 388 442 358 415 q 431 508 417 468 q 444 597 444 549 l 536 597 z "},"ऐ":{"ha":625,"x_min":-35,"x_max":660,"o":"m 451 -21 q 255 26 328 -21 q 150 171 182 74 q 118 418 118 268 l 210 418 q 232 220 210 299 q 307 104 254 142 q 451 67 360 67 l 451 -21 m 118 418 l 118 839 l 210 839 l 210 418 l 118 418 m 444 597 l 444 840 l 536 840 l 536 597 l 444 597 m -35 788 l -35 875 l 660 875 l 660 788 l -35 788 m 536 597 q 513 460 536 519 q 443 364 490 400 q 325 319 396 328 l 311 407 q 388 442 358 415 q 431 508 417 468 q 444 597 444 549 l 536 597 m 426 875 l 297 1071 l 360 1128 l 525 875 l 426 875 m 297 1071 q 223 1135 263 1124 q 132 1114 183 1146 l 93 1185 q 245 1217 178 1232 q 360 1128 313 1201 l 297 1071 z "},"ऑ":{"ha":1081,"x_min":35,"x_max":1115,"o":"m 390 671 q 354 768 390 729 q 264 807 318 807 l 264 894 q 376 865 326 894 q 453 785 425 836 q 482 671 482 735 l 390 671 m 133 682 l 44 701 q 83 800 51 757 q 162 869 114 843 q 265 894 210 894 l 265 807 q 176 771 214 807 q 133 682 139 735 m 381 367 l 381 450 l 681 450 l 681 367 l 381 367 m 394 269 q 352 389 394 342 q 244 436 310 436 l 244 519 q 366 487 313 519 q 451 398 419 454 q 482 269 482 342 l 394 269 m 258 21 q 94 87 153 21 q 35 271 35 153 l 122 271 q 158 149 122 193 q 258 104 194 104 l 258 21 m 258 21 l 258 104 q 359 149 324 104 q 394 271 394 193 l 482 271 q 456 137 482 193 q 379 51 429 81 q 258 21 329 21 m 188 436 l 188 524 l 258 524 l 258 436 l 188 436 m 257 436 l 257 524 q 352 566 314 524 q 390 672 390 608 l 482 672 q 452 552 482 606 q 372 467 422 499 q 257 436 321 436 m 601 0 l 601 875 l 689 875 l 689 0 l 601 0 m 632 788 l 632 875 l 825 875 l 825 788 l 632 788 m 892 0 l 892 861 l 979 861 l 979 0 l 892 0 m 756 788 l 756 875 l 1115 875 l 1115 788 l 756 788 m 844 960 l 844 1035 q 949 1060 901 1035 q 1025 1131 996 1086 l 1100 1094 q 988 995 1056 1031 q 844 960 919 960 m 844 960 q 701 995 769 960 q 589 1094 633 1031 l 664 1131 q 741 1060 693 1086 q 844 1035 789 1035 l 844 960 z "},"ऒ":{"ha":1081,"x_min":35,"x_max":1115,"o":"m 390 671 q 354 768 390 729 q 264 807 318 807 l 264 894 q 376 865 326 894 q 453 785 425 836 q 482 671 482 735 l 390 671 m 133 682 l 44 701 q 83 800 51 757 q 162 869 114 843 q 265 894 210 894 l 265 807 q 176 771 214 807 q 133 682 139 735 m 381 367 l 381 450 l 681 450 l 681 367 l 381 367 m 394 269 q 352 389 394 342 q 244 436 310 436 l 244 519 q 366 487 313 519 q 451 398 419 454 q 482 269 482 342 l 394 269 m 258 21 q 94 87 153 21 q 35 271 35 153 l 122 271 q 158 149 122 193 q 258 104 194 104 l 258 21 m 258 21 l 258 104 q 359 149 324 104 q 394 271 394 193 l 482 271 q 456 137 482 193 q 379 51 429 81 q 258 21 329 21 m 188 436 l 188 524 l 258 524 l 258 436 l 188 436 m 257 436 l 257 524 q 352 566 314 524 q 390 672 390 608 l 482 672 q 452 552 482 606 q 372 467 422 499 q 257 436 321 436 m 601 0 l 601 875 l 689 875 l 689 0 l 601 0 m 632 788 l 632 875 l 825 875 l 825 788 l 632 788 m 892 0 l 892 861 l 979 861 l 979 0 l 892 0 m 756 788 l 756 875 l 1115 875 l 1115 788 l 756 788 m 904 875 q 894 958 915 928 q 817 1000 874 989 l 831 1083 q 934 1044 896 1071 q 987 975 972 1017 q 992 875 1001 933 l 904 875 m 817 1000 q 714 1040 753 1014 q 661 1108 675 1067 q 656 1208 647 1150 l 743 1208 q 753 1125 732 1156 q 831 1083 775 1094 l 817 1000 z "},"ओ":{"ha":1081,"x_min":35,"x_max":1115,"o":"m 390 671 q 354 768 390 729 q 264 807 318 807 l 264 894 q 376 865 326 894 q 453 785 425 836 q 482 671 482 735 l 390 671 m 133 682 l 44 701 q 83 800 51 757 q 162 869 114 843 q 265 894 210 894 l 265 807 q 176 771 214 807 q 133 682 139 735 m 381 367 l 381 450 l 681 450 l 681 367 l 381 367 m 394 269 q 352 389 394 342 q 244 436 310 436 l 244 519 q 366 487 313 519 q 451 398 419 454 q 482 269 482 342 l 394 269 m 258 21 q 94 87 153 21 q 35 271 35 153 l 122 271 q 158 149 122 193 q 258 104 194 104 l 258 21 m 258 21 l 258 104 q 359 149 324 104 q 394 271 394 193 l 482 271 q 456 137 482 193 q 379 51 429 81 q 258 21 329 21 m 188 436 l 188 524 l 258 524 l 258 436 l 188 436 m 257 436 l 257 524 q 352 566 314 524 q 390 672 390 608 l 482 672 q 452 552 482 606 q 372 467 422 499 q 257 436 321 436 m 601 0 l 601 875 l 689 875 l 689 0 l 601 0 m 632 788 l 632 875 l 825 875 l 825 788 l 632 788 m 892 0 l 892 861 l 979 861 l 979 0 l 892 0 m 756 788 l 756 875 l 1115 875 l 1115 788 l 756 788 m 872 875 l 743 1071 l 806 1128 l 971 875 l 872 875 m 743 1071 q 669 1135 708 1124 q 578 1114 629 1146 l 539 1185 q 691 1217 624 1232 q 806 1128 758 1201 l 743 1071 z "},"औ":{"ha":1081,"x_min":35,"x_max":1115,"o":"m 390 671 q 354 768 390 729 q 264 807 318 807 l 264 894 q 376 865 326 894 q 453 785 425 836 q 482 671 482 735 l 390 671 m 133 682 l 44 701 q 83 800 51 757 q 162 869 114 843 q 265 894 210 894 l 265 807 q 176 771 214 807 q 133 682 139 735 m 381 367 l 381 450 l 681 450 l 681 367 l 381 367 m 394 269 q 352 389 394 342 q 244 436 310 436 l 244 519 q 366 487 313 519 q 451 398 419 454 q 482 269 482 342 l 394 269 m 258 21 q 94 87 153 21 q 35 271 35 153 l 122 271 q 158 149 122 193 q 258 104 194 104 l 258 21 m 258 21 l 258 104 q 359 149 324 104 q 394 271 394 193 l 482 271 q 456 137 482 193 q 379 51 429 81 q 258 21 329 21 m 188 436 l 188 524 l 258 524 l 258 436 l 188 436 m 257 436 l 257 524 q 352 566 314 524 q 390 672 390 608 l 482 672 q 452 552 482 606 q 372 467 422 499 q 257 436 321 436 m 601 0 l 601 875 l 689 875 l 689 0 l 601 0 m 632 788 l 632 875 l 825 875 l 825 788 l 632 788 m 892 0 l 892 861 l 979 861 l 979 0 l 892 0 m 756 788 l 756 875 l 1115 875 l 1115 788 l 756 788 m 867 875 l 693 1015 l 724 1081 l 979 875 l 867 875 m 539 999 l 476 1042 q 551 1109 510 1089 q 636 1122 592 1129 q 724 1081 681 1115 l 693 1015 q 611 1046 651 1050 q 539 999 571 1042 m 889 875 l 788 1117 l 863 1150 l 979 875 l 889 875 m 788 1117 q 731 1183 768 1165 q 650 1186 694 1201 l 629 1275 q 726 1277 681 1288 q 806 1235 771 1267 q 863 1150 840 1203 l 788 1117 z "},"ॳ":{"ha":790,"x_min":35,"x_max":825,"o":"m 601 761 l 601 1056 l 689 1056 l 689 761 l 601 761 m 390 671 q 354 768 390 729 q 264 807 318 807 l 264 894 q 376 865 326 894 q 453 785 425 836 q 482 671 482 735 l 390 671 m 133 682 l 44 701 q 83 800 51 757 q 162 869 114 843 q 265 894 210 894 l 265 807 q 176 771 214 807 q 133 682 139 735 m 381 367 l 381 450 l 681 450 l 681 367 l 381 367 m 394 269 q 352 389 394 342 q 244 436 310 436 l 244 519 q 366 487 313 519 q 451 398 419 454 q 482 269 482 342 l 394 269 m 258 21 q 94 87 153 21 q 35 271 35 153 l 122 271 q 158 149 122 193 q 258 104 194 104 l 258 21 m 258 21 l 258 104 q 359 149 324 104 q 394 271 394 193 l 482 271 q 456 137 482 193 q 379 51 429 81 q 258 21 329 21 m 188 436 l 188 524 l 258 524 l 258 436 l 188 436 m 257 436 l 257 524 q 352 566 314 524 q 390 672 390 608 l 482 672 q 452 552 482 606 q 372 467 422 499 q 257 436 321 436 m 601 0 l 601 875 l 689 875 l 689 0 l 601 0 m 632 788 l 632 875 l 825 875 l 825 788 l 632 788 z "},"ॴ":{"ha":1081,"x_min":35,"x_max":1115,"o":"m 892 761 l 892 1056 l 978 1056 l 978 761 l 892 761 m 390 671 q 354 768 390 729 q 264 807 318 807 l 264 894 q 376 865 326 894 q 453 785 425 836 q 482 671 482 735 l 390 671 m 133 682 l 44 701 q 83 800 51 757 q 162 869 114 843 q 265 894 210 894 l 265 807 q 176 771 214 807 q 133 682 139 735 m 381 367 l 381 450 l 681 450 l 681 367 l 381 367 m 394 269 q 352 389 394 342 q 244 436 310 436 l 244 519 q 366 487 313 519 q 451 398 419 454 q 482 269 482 342 l 394 269 m 258 21 q 94 87 153 21 q 35 271 35 153 l 122 271 q 158 149 122 193 q 258 104 194 104 l 258 21 m 258 21 l 258 104 q 359 149 324 104 q 394 271 394 193 l 482 271 q 456 137 482 193 q 379 51 429 81 q 258 21 329 21 m 188 436 l 188 524 l 258 524 l 258 436 l 188 436 m 257 436 l 257 524 q 352 566 314 524 q 390 672 390 608 l 482 672 q 452 552 482 606 q 372 467 422 499 q 257 436 321 436 m 601 0 l 601 875 l 689 875 l 689 0 l 601 0 m 632 788 l 632 875 l 825 875 l 825 788 l 632 788 m 892 0 l 892 861 l 979 861 l 979 0 l 892 0 m 756 788 l 756 875 l 1115 875 l 1115 788 l 756 788 z "},"ॵ":{"ha":1081,"x_min":35,"x_max":1115,"o":"m 871 867 q 883 950 896 915 q 818 1011 869 985 l 853 1088 q 943 1022 913 1058 q 976 942 974 986 q 956 844 979 899 l 871 867 m 818 1011 q 729 1076 760 1040 q 696 1156 699 1111 q 717 1254 693 1200 l 801 1231 q 789 1147 776 1182 q 853 1088 801 1113 l 818 1011 m 874 838 q 835 913 865 892 q 747 924 804 933 l 731 1006 q 841 1006 796 1017 q 915 960 886 994 q 956 869 943 926 l 874 838 m 747 924 q 637 924 682 913 q 563 969 592 935 q 522 1060 535 1003 l 604 1092 q 643 1017 613 1038 q 731 1006 674 997 l 747 924 m 390 671 q 354 768 390 729 q 264 807 318 807 l 264 894 q 376 865 326 894 q 453 785 425 836 q 482 671 482 735 l 390 671 m 133 682 l 44 701 q 83 800 51 757 q 162 869 114 843 q 265 894 210 894 l 265 807 q 176 771 214 807 q 133 682 139 735 m 381 367 l 381 450 l 681 450 l 681 367 l 381 367 m 394 269 q 352 389 394 342 q 244 436 310 436 l 244 519 q 366 487 313 519 q 451 398 419 454 q 482 269 482 342 l 394 269 m 258 21 q 94 87 153 21 q 35 271 35 153 l 122 271 q 158 149 122 193 q 258 104 194 104 l 258 21 m 258 21 l 258 104 q 359 149 324 104 q 394 271 394 193 l 482 271 q 456 137 482 193 q 379 51 429 81 q 258 21 329 21 m 188 436 l 188 524 l 258 524 l 258 436 l 188 436 m 257 436 l 257 524 q 352 566 314 524 q 390 672 390 608 l 482 672 q 452 552 482 606 q 372 467 422 499 q 257 436 321 436 m 601 0 l 601 875 l 689 875 l 689 0 l 601 0 m 632 788 l 632 875 l 825 875 l 825 788 l 632 788 m 892 0 l 892 861 l 979 861 l 979 0 l 892 0 m 756 788 l 756 875 l 1115 875 l 1115 788 l 756 788 z "},"ॶ":{"ha":790,"x_min":35,"x_max":825,"o":"m 390 671 q 354 768 390 729 q 264 807 318 807 l 264 894 q 376 865 326 894 q 453 785 425 836 q 482 671 482 735 l 390 671 m 133 682 l 44 701 q 83 800 51 757 q 162 869 114 843 q 265 894 210 894 l 265 807 q 176 771 214 807 q 133 682 139 735 m 381 367 l 381 450 l 681 450 l 681 367 l 381 367 m 394 269 q 352 389 394 342 q 244 436 310 436 l 244 519 q 366 487 313 519 q 451 398 419 454 q 482 269 482 342 l 394 269 m 258 21 q 94 87 153 21 q 35 271 35 153 l 122 271 q 158 149 122 193 q 258 104 194 104 l 258 21 m 258 21 l 258 104 q 359 149 324 104 q 394 271 394 193 l 482 271 q 456 137 482 193 q 379 51 429 81 q 258 21 329 21 m 188 436 l 188 524 l 258 524 l 258 436 l 188 436 m 257 436 l 257 524 q 352 566 314 524 q 390 672 390 608 l 482 672 q 452 552 482 606 q 372 467 422 499 q 257 436 321 436 m 601 0 l 601 875 l 689 875 l 689 0 l 601 0 m 632 788 l 632 875 l 825 875 l 825 788 l 632 788 m 399 -199 l 399 -126 q 510 -115 449 -126 q 628 -81 571 -103 l 647 -153 q 517 -187 583 -175 q 399 -199 451 -199 m 399 -199 q 280 -187 346 -199 q 150 -153 214 -175 l 169 -81 q 288 -115 226 -103 q 399 -126 349 -126 l 399 -199 z "},"ॷ":{"ha":790,"x_min":35,"x_max":825,"o":"m 390 671 q 354 768 390 729 q 264 807 318 807 l 264 894 q 376 865 326 894 q 453 785 425 836 q 482 671 482 735 l 390 671 m 133 682 l 44 701 q 83 800 51 757 q 162 869 114 843 q 265 894 210 894 l 265 807 q 176 771 214 807 q 133 682 139 735 m 381 367 l 381 450 l 681 450 l 681 367 l 381 367 m 394 269 q 352 389 394 342 q 244 436 310 436 l 244 519 q 366 487 313 519 q 451 398 419 454 q 482 269 482 342 l 394 269 m 258 21 q 94 87 153 21 q 35 271 35 153 l 122 271 q 158 149 122 193 q 258 104 194 104 l 258 21 m 258 21 l 258 104 q 359 149 324 104 q 394 271 394 193 l 482 271 q 456 137 482 193 q 379 51 429 81 q 258 21 329 21 m 188 436 l 188 524 l 258 524 l 258 436 l 188 436 m 257 436 l 257 524 q 352 566 314 524 q 390 672 390 608 l 482 672 q 452 552 482 606 q 372 467 422 499 q 257 436 321 436 m 601 0 l 601 875 l 689 875 l 689 0 l 601 0 m 632 788 l 632 875 l 825 875 l 825 788 l 632 788 m 399 -199 l 399 -126 q 510 -115 449 -126 q 628 -81 571 -103 l 647 -153 q 517 -187 583 -175 q 399 -199 451 -199 m 399 -199 q 280 -187 346 -199 q 150 -153 214 -175 l 169 -81 q 288 -115 226 -103 q 399 -126 349 -126 l 399 -199 m 399 -324 l 399 -251 q 510 -240 449 -251 q 628 -206 571 -228 l 647 -278 q 517 -312 583 -300 q 399 -324 451 -324 m 399 -324 q 280 -312 346 -324 q 150 -278 214 -300 l 169 -206 q 288 -240 226 -228 q 399 -251 349 -251 l 399 -324 z "},"ा":{"ha":290,"x_min":-35,"x_max":325,"o":"m 101 0 l 101 861 l 189 861 l 189 0 l 101 0 m -35 788 l -35 875 l 325 875 l 325 788 l -35 788 z "},"ि":{"ha":264,"x_min":-35,"x_max":639,"o":"m 558 1018 q 447 1158 511 1108 q 317 1208 383 1208 l 289 1292 q 437 1264 371 1292 q 553 1185 503 1236 q 639 1060 604 1133 l 558 1018 m 96 854 l 71 976 l 160 992 l 188 854 l 96 854 m 71 976 q 76 1138 54 1067 q 154 1251 99 1210 q 289 1292 210 1292 l 317 1208 q 209 1181 247 1208 q 160 1103 171 1153 q 160 992 149 1054 l 71 976 m 101 0 l 101 861 l 189 861 l 189 0 l 101 0 m -35 788 l -35 875 l 325 875 l 325 788 l -35 788 z "},"ी":{"ha":290,"x_min":-244,"x_max":325,"o":"m 78 976 q 44 1104 65 1053 q -5 1182 22 1156 q -62 1208 -32 1208 l -76 1292 q 42 1256 -7 1292 q 123 1153 92 1221 q 167 992 154 1086 l 78 976 m -228 1004 q -231 1151 -244 1086 q -176 1254 -217 1217 q -76 1292 -136 1292 l -62 1208 q -144 1153 -124 1208 q -146 1017 -164 1099 l -228 1004 m 96 854 l 78 976 l 167 992 l 188 854 l 96 854 m 101 0 l 101 861 l 189 861 l 189 0 l 101 0 m -35 788 l -35 875 l 325 875 l 325 788 l -35 788 z "},"ॉ":{"ha":290,"x_min":-201,"x_max":325,"o":"m 101 0 l 101 861 l 189 861 l 189 0 l 101 0 m -35 788 l -35 875 l 325 875 l 325 788 l -35 788 m 54 960 l 54 1035 q 158 1060 111 1035 q 235 1131 206 1086 l 310 1094 q 197 995 265 1031 q 54 960 129 960 m 54 960 q -89 995 -21 960 q -201 1094 -157 1031 l -126 1131 q -49 1060 -97 1086 q 54 1035 -1 1035 l 54 960 z "},"ॊ":{"ha":290,"x_min":-143,"x_max":325,"o":"m 101 0 l 101 861 l 189 861 l 189 0 l 101 0 m -35 788 l -35 875 l 325 875 l 325 788 l -35 788 m 114 875 q 104 958 125 928 q 26 1000 83 989 l 40 1083 q 144 1044 106 1071 q 197 975 182 1017 q 201 875 211 933 l 114 875 m 26 1000 q -76 1040 -37 1014 q -129 1108 -115 1067 q -135 1208 -143 1150 l -47 1208 q -37 1125 -58 1156 q 40 1083 -15 1094 l 26 1000 z "},"ो":{"ha":290,"x_min":-251,"x_max":325,"o":"m 101 0 l 101 861 l 189 861 l 189 0 l 101 0 m -35 788 l -35 875 l 325 875 l 325 788 l -35 788 m 82 875 l -47 1071 l 15 1128 l 181 875 l 82 875 m -47 1071 q -122 1135 -82 1124 q -212 1114 -161 1146 l -251 1185 q -99 1217 -167 1232 q 15 1128 -32 1201 l -47 1071 z "},"ौ":{"ha":290,"x_min":-314,"x_max":325,"o":"m 101 0 l 101 861 l 189 861 l 189 0 l 101 0 m -35 788 l -35 875 l 325 875 l 325 788 l -35 788 m 76 875 l -97 1015 l -67 1081 l 189 875 l 76 875 m -251 999 l -314 1042 q -240 1109 -281 1089 q -154 1122 -199 1129 q -67 1081 -110 1115 l -97 1015 q -179 1046 -139 1050 q -251 999 -219 1042 m 99 875 l -3 1117 l 72 1150 l 189 875 l 99 875 m -3 1117 q -59 1183 -22 1165 q -140 1186 -96 1201 l -161 1275 q -65 1277 -110 1288 q 15 1235 -19 1267 q 72 1150 50 1203 l -3 1117 z "},"ऻ":{"ha":290,"x_min":-35,"x_max":325,"o":"m 101 0 l 101 861 l 189 861 l 189 0 l 101 0 m -35 788 l -35 875 l 325 875 l 325 788 l -35 788 m 101 761 l 101 1056 l 189 1056 l 189 761 l 101 761 z "},"ॏ":{"ha":290,"x_min":-268,"x_max":325,"o":"m 81 867 q 92 950 106 915 q 28 1011 79 985 l 63 1088 q 153 1022 122 1058 q 186 942 183 986 q 165 844 189 899 l 81 867 m 28 1011 q -61 1076 -31 1040 q -94 1156 -92 1111 q -74 1254 -97 1200 l 11 1231 q -1 1147 -14 1182 q 63 1088 11 1113 l 28 1011 m 83 838 q 44 913 75 892 q -43 924 14 933 l -60 1006 q 51 1006 6 1017 q 124 960 96 994 q 165 869 153 926 l 83 838 m -43 924 q -153 924 -108 913 q -227 969 -199 935 q -268 1060 -256 1003 l -186 1092 q -147 1017 -178 1038 q -60 1006 -117 997 l -43 924 m 101 0 l 101 861 l 189 861 l 189 0 l 101 0 m -35 788 l -35 875 l 325 875 l 325 788 l -35 788 z "},"क":{"ha":865,"x_min":-35,"x_max":900,"o":"m 536 788 l 536 875 l 900 875 l 900 788 l 536 788 m -35 788 l -35 875 l 390 875 l 390 788 l -35 788 m 61 367 l 61 383 l 149 383 l 149 367 l 61 367 m 404 325 l 404 425 l 471 425 l 471 325 l 404 325 m 149 382 l 61 382 q 85 528 61 468 q 156 621 110 589 q 265 653 201 653 l 271 569 q 181 520 214 569 q 149 382 149 471 m 471 424 l 404 424 q 366 528 404 486 q 271 569 328 569 l 265 653 q 371 623 325 653 q 444 541 417 593 q 471 424 471 489 m 149 368 q 181 230 149 279 q 271 181 214 181 l 265 97 q 156 129 201 97 q 85 222 110 161 q 61 368 61 283 l 149 368 m 471 326 q 444 209 471 261 q 371 127 417 157 q 265 97 325 97 l 271 181 q 366 222 328 181 q 404 326 404 264 l 471 326 m 747 382 q 715 520 747 471 q 625 569 682 569 l 631 653 q 740 621 694 653 q 810 528 786 589 q 835 382 835 468 l 747 382 m 425 424 q 452 541 425 489 q 526 623 479 593 q 631 653 572 653 l 625 569 q 530 528 568 569 q 492 424 492 486 l 425 424 m 747 376 l 747 382 l 835 382 l 835 376 l 747 376 m 608 101 l 594 186 q 707 244 667 193 q 747 376 747 294 l 835 376 q 808 235 835 294 q 730 141 781 175 q 608 101 679 107 m 404 0 l 404 861 l 492 861 l 492 0 l 404 0 m 268 788 l 268 875 l 628 875 l 628 788 l 268 788 z "},"ख":{"ha":954,"x_min":-35,"x_max":989,"o":"m 422 -21 q 275 33 335 -21 q 165 199 215 86 l 261 199 q 305 122 282 153 q 356 77 328 92 q 422 63 385 63 l 422 -21 m 165 199 l 61 425 l 158 425 l 261 199 l 165 199 m 422 -21 l 422 63 q 513 103 472 63 q 592 213 554 143 l 667 164 q 590 65 629 106 q 510 1 551 24 q 422 -21 468 -21 m 640 154 q 536 188 582 154 q 463 279 490 221 q 436 411 436 338 l 524 411 q 540 323 524 363 q 583 260 556 283 q 646 238 611 238 l 640 154 m 640 154 l 646 238 q 707 257 681 238 q 749 309 733 276 q 765 383 765 342 l 832 383 q 807 266 832 318 q 739 184 782 214 q 640 154 696 154 m 436 410 q 463 542 436 483 q 536 633 490 600 q 640 667 582 667 l 646 583 q 583 560 611 583 q 540 499 556 538 q 524 410 524 460 l 436 410 m -35 788 l -35 875 l 778 875 l 778 788 l -35 788 m 765 438 q 749 512 765 479 q 707 564 733 544 q 646 583 681 583 l 640 667 q 739 637 696 667 q 807 555 782 607 q 832 438 832 503 l 765 438 m 86 372 l 46 456 q 192 475 136 456 q 272 536 249 494 q 286 642 296 578 l 374 642 q 369 536 382 585 q 328 451 357 488 q 256 393 299 414 q 158 372 213 372 l 86 372 m 286 642 l 257 833 l 344 833 l 374 642 l 286 642 m 765 0 l 765 861 l 853 861 l 853 0 l 765 0 m 629 788 l 629 875 l 989 875 l 989 788 l 629 788 z "},"ग":{"ha":696,"x_min":-35,"x_max":731,"o":"m -35 788 l -35 875 l 426 875 l 426 788 l -35 788 m 196 418 l 196 875 l 283 875 l 283 418 l 196 418 m 151 253 l 151 336 q 201 358 183 336 q 218 419 218 381 l 283 419 q 249 297 283 342 q 151 253 214 253 m 32 294 l 74 378 q 151 336 122 336 l 151 253 q 32 294 93 253 m 32 294 l 88 419 l 235 419 l 235 336 l 32 294 m 507 0 l 507 861 l 594 861 l 594 0 l 507 0 m 371 788 l 371 875 l 731 875 l 731 788 l 371 788 z "},"घ":{"ha":765,"x_min":-35,"x_max":800,"o":"m 390 118 l 390 201 q 489 222 447 201 q 553 280 531 243 q 576 363 576 317 l 631 363 q 601 238 631 293 q 517 150 571 182 q 390 118 464 118 m 390 118 q 258 147 317 118 q 166 227 200 176 q 132 342 132 278 l 219 342 q 269 242 219 282 q 390 201 318 201 l 390 118 m 132 342 q 190 491 132 436 q 356 546 249 546 l 356 463 q 252 431 285 463 q 219 342 219 399 l 132 342 m 356 463 q 160 517 231 463 q 90 667 90 571 l 178 667 q 225 578 178 610 q 356 546 272 546 l 356 463 m 356 463 l 356 546 l 378 546 l 378 463 l 356 463 m 90 667 q 142 797 90 750 q 286 843 193 843 l 286 788 q 206 756 235 788 q 178 667 178 724 l 90 667 m -35 788 l -35 875 l 592 875 l 592 788 l -35 788 m 379 753 q 340 778 363 769 q 285 788 318 788 l 285 843 q 366 832 335 843 q 424 801 397 821 l 379 753 m 576 0 l 576 861 l 664 861 l 664 0 l 576 0 m 440 788 l 440 875 l 800 875 l 800 788 l 440 788 z "},"ङ":{"ha":611,"x_min":-35,"x_max":646,"o":"m 521 788 l 521 875 l 639 875 l 639 788 l 521 788 m 293 0 q 145 51 206 0 q 64 194 85 103 l 151 215 q 208 118 171 153 q 293 83 246 83 l 293 0 m -35 788 l -35 875 l 581 875 l 581 788 l -35 788 m 278 0 l 278 83 q 372 115 339 83 q 406 201 406 146 l 493 201 q 436 53 493 107 q 278 0 379 0 m 269 333 q 120 378 174 333 q 67 504 67 424 l 158 504 q 191 440 158 463 q 283 417 224 417 l 269 333 m 406 201 q 370 301 406 267 q 269 333 335 336 l 283 417 q 397 391 350 417 q 468 317 443 365 q 493 201 493 269 l 406 201 m 67 504 q 122 626 67 582 q 276 671 178 671 l 276 588 q 190 566 221 588 q 158 504 158 544 l 67 504 m 276 588 l 276 671 l 436 671 l 436 588 l 276 588 m 349 625 l 349 854 l 436 854 l 436 625 l 349 625 m 576 417 q 528 436 547 417 q 508 485 508 456 q 528 534 508 514 q 576 554 547 554 q 626 534 606 554 q 646 485 646 514 q 626 436 646 456 q 576 417 606 417 z "},"च":{"ha":708,"x_min":-35,"x_max":743,"o":"m 353 136 q 249 166 294 136 q 176 248 203 196 q 149 365 149 300 l 240 365 q 278 267 240 306 q 372 228 317 228 l 353 136 m 149 365 l 149 396 l 240 396 l 240 365 l 149 365 m 353 136 l 372 228 q 478 275 436 228 q 519 393 519 322 l 557 393 q 531 261 557 319 q 458 169 504 203 q 353 136 413 136 m 149 396 q 178 512 149 461 q 260 592 208 563 q 378 622 313 622 l 378 568 q 279 519 318 568 q 240 396 240 469 l 149 396 m 76 568 l 76 647 l 382 647 l 382 568 l 76 568 m -35 788 l -35 875 l 526 875 l 526 788 l -35 788 m 519 0 l 519 861 l 607 861 l 607 0 l 519 0 m 383 788 l 383 875 l 743 875 l 743 788 l 383 788 z "},"छ":{"ha":768,"x_min":-35,"x_max":803,"o":"m 492 601 l 492 813 l 583 813 l 583 601 q 553 607 568 606 q 522 607 538 608 q 492 601 507 606 m 408 15 l 394 107 q 515 153 463 107 q 599 276 568 199 q 631 446 631 353 l 714 446 q 676 230 714 328 q 569 74 638 132 q 408 15 500 15 m 367 15 q 242 46 301 15 q 144 133 182 76 q 107 265 107 189 l 194 265 q 223 184 194 219 q 294 128 251 149 q 381 107 338 107 l 367 15 m 365 15 l 379 107 l 396 107 l 410 15 l 365 15 m 107 265 q 124 365 107 319 q 174 442 142 410 q 251 493 207 475 q 349 511 296 511 l 349 428 q 269 407 304 428 q 214 350 233 386 q 194 265 194 314 l 107 265 m 349 428 q 215 456 274 428 q 124 534 157 483 q 90 653 90 585 l 178 653 q 226 549 178 588 q 349 511 274 511 l 349 428 m 90 653 q 119 755 90 713 q 203 820 149 797 q 335 843 258 843 l 335 788 q 251 772 286 788 q 197 726 215 756 q 178 653 178 696 l 90 653 m -35 788 l -35 875 l 803 875 l 803 788 l -35 788 m 631 446 q 608 535 631 503 q 544 568 585 568 l 544 647 q 631 621 593 647 q 692 549 669 594 q 714 446 714 504 l 631 446 m 435 356 q 403 426 411 400 q 394 492 394 453 l 478 492 q 485 440 478 465 q 515 375 493 415 l 435 356 m 394 492 q 414 572 394 536 q 467 627 433 607 q 544 647 501 647 l 544 568 q 497 546 517 568 q 478 492 478 524 l 394 492 z "},"ज":{"ha":808,"x_min":-35,"x_max":843,"o":"m 269 76 l 269 160 q 376 220 343 160 q 394 389 408 281 l 482 389 q 471 229 494 300 q 395 117 447 158 q 269 76 343 76 m 271 76 q 165 109 213 76 q 91 199 118 142 q 64 326 64 256 l 151 326 q 183 204 151 249 q 271 160 215 160 l 271 76 m 64 325 l 64 432 l 151 446 l 151 325 l 64 325 m 394 389 q 372 463 389 431 q 330 513 354 494 q 278 532 306 532 l 278 600 q 372 577 331 600 q 443 508 414 554 q 482 389 472 461 l 394 389 m 278 532 l 278 615 l 635 615 l 635 532 l 278 532 m -35 788 l -35 875 l 633 875 l 633 788 l -35 788 m 619 0 l 619 861 l 707 861 l 707 0 l 619 0 m 483 788 l 483 875 l 843 875 l 843 788 l 483 788 z "},"झ":{"ha":799,"x_min":-35,"x_max":833,"o":"m 631 333 l 297 335 l 265 417 l 631 415 l 631 333 m -35 788 l -35 875 l 581 875 l 581 788 l -35 788 m 278 0 l 278 83 q 372 115 339 83 q 406 201 406 146 l 493 201 q 436 53 493 107 q 278 0 379 0 m 269 333 q 120 378 174 333 q 67 504 67 424 l 158 504 q 191 440 158 463 q 283 417 224 417 l 269 333 m 406 201 q 370 301 406 267 q 269 333 335 336 l 283 417 q 397 391 350 417 q 468 317 443 365 q 493 201 493 269 l 406 201 m 67 504 q 122 626 67 582 q 276 671 178 671 l 276 588 q 190 566 221 588 q 158 504 158 544 l 67 504 m 276 588 l 276 671 l 436 671 l 436 588 l 276 588 m 349 625 l 349 854 l 436 854 l 436 625 l 349 625 m 54 150 l 138 150 q 160 101 138 119 q 221 83 182 83 l 221 18 q 99 53 143 18 q 54 150 54 88 m 96 269 l 179 228 q 138 150 138 179 l 54 150 q 96 269 54 208 m 96 269 l 221 214 l 221 67 l 138 67 l 96 269 m 286 0 q 217 10 247 0 q 149 42 186 19 l 163 125 q 228 93 200 103 q 286 83 256 83 l 286 0 m 263 -164 l 88 147 l 163 189 l 339 -119 l 263 -164 m 610 0 l 610 861 l 697 861 l 697 0 l 610 0 m 474 788 l 474 875 l 833 875 l 833 788 l 474 788 z "},"ञ":{"ha":811,"x_min":-35,"x_max":846,"o":"m -35 788 l -35 875 l 557 875 l 557 788 l -35 788 m 283 68 q 176 98 224 68 q 101 180 129 128 q 74 297 74 232 l 165 297 q 199 197 165 238 q 283 156 232 156 l 283 68 m 282 68 l 282 156 q 367 198 333 156 q 401 304 401 240 l 493 304 q 465 184 493 238 q 390 99 438 131 q 282 68 343 68 m 167 461 l 78 481 q 114 579 85 536 q 188 648 143 622 q 285 674 233 674 l 285 586 q 207 550 240 586 q 167 461 174 514 m 401 304 l 401 451 l 493 451 l 493 304 l 401 304 m 493 329 l 493 413 l 639 413 l 639 329 l 493 329 m 401 451 q 367 547 401 508 q 282 586 333 586 l 282 674 q 390 644 343 674 q 465 565 438 615 q 493 451 493 515 l 401 451 m 622 0 l 622 861 l 710 861 l 710 0 l 622 0 m 486 788 l 486 875 l 846 875 l 846 788 l 486 788 z "},"ट":{"ha":639,"x_min":-35,"x_max":674,"o":"m -35 788 l -35 875 l 674 875 l 674 788 l -35 788 m 340 11 l 340 94 q 410 110 383 94 q 454 156 438 125 q 483 232 471 186 l 561 218 q 490 64 546 117 q 340 11 435 11 m 342 11 q 153 77 217 11 q 90 261 90 143 l 178 261 q 196 172 178 210 q 250 115 214 135 q 342 94 286 94 l 342 11 m 90 260 l 90 376 l 178 376 l 178 260 l 90 260 m 90 375 q 147 537 90 482 q 314 611 203 592 l 314 528 q 210 478 242 514 q 178 375 178 443 l 90 375 m 314 528 l 314 611 l 481 639 l 481 556 l 314 528 m 393 607 l 393 875 l 481 875 l 481 607 l 393 607 z "},"ठ":{"ha":642,"x_min":-35,"x_max":676,"o":"m -35 788 l -35 875 l 676 875 l 676 788 l -35 788 m 297 11 l 297 94 l 328 94 l 328 11 l 297 11 m 61 261 l 61 369 l 149 369 l 149 261 l 61 261 m 476 261 l 476 369 l 564 369 l 564 261 l 476 261 m 297 535 l 297 618 l 328 618 l 328 535 l 297 535 m 326 579 l 326 847 l 414 847 l 414 579 l 326 579 m 564 261 q 535 127 564 183 q 454 41 507 71 q 326 11 401 11 l 326 94 q 437 139 397 94 q 476 261 476 183 l 564 261 m 564 368 l 476 368 q 437 490 476 446 q 326 535 397 535 l 326 618 q 454 588 401 618 q 535 503 507 558 q 564 368 564 447 m 61 261 l 149 261 q 188 139 149 183 q 299 94 228 94 l 299 11 q 172 41 225 11 q 90 127 118 71 q 61 261 61 183 m 61 368 q 90 503 61 447 q 172 588 118 558 q 299 618 225 618 l 299 535 q 188 490 228 535 q 149 368 149 446 l 61 368 z "},"ड":{"ha":546,"x_min":-35,"x_max":581,"o":"m 293 0 q 145 51 206 0 q 64 194 85 103 l 151 215 q 208 118 171 153 q 293 83 246 83 l 293 0 m -35 788 l -35 875 l 581 875 l 581 788 l -35 788 m 278 0 l 278 83 q 372 115 339 83 q 406 201 406 146 l 493 201 q 436 53 493 107 q 278 0 379 0 m 269 333 q 120 378 174 333 q 67 504 67 424 l 158 504 q 191 440 158 463 q 283 417 224 417 l 269 333 m 406 201 q 370 301 406 267 q 269 333 335 336 l 283 417 q 397 391 350 417 q 468 317 443 365 q 493 201 493 269 l 406 201 m 67 504 q 122 626 67 582 q 276 671 178 671 l 276 588 q 190 566 221 588 q 158 504 158 544 l 67 504 m 276 588 l 276 671 l 436 671 l 436 588 l 276 588 m 349 625 l 349 854 l 436 854 l 436 625 l 349 625 z "},"ढ":{"ha":600,"x_min":-35,"x_max":635,"o":"m -35 788 l -35 875 l 635 875 l 635 788 l -35 788 m 325 11 l 325 94 l 340 94 l 340 11 l 325 11 m 340 11 l 340 94 q 440 135 404 94 q 475 235 475 175 l 554 235 q 526 120 554 171 q 450 40 499 69 q 340 11 401 11 m 415 106 l 360 235 q 387 310 360 279 q 454 340 414 340 q 526 310 497 340 q 554 235 554 279 q 536 169 554 199 q 487 122 518 139 q 415 106 456 106 m 328 11 q 140 77 203 11 q 76 261 76 143 l 164 261 q 182 172 164 210 q 236 115 200 135 q 328 94 272 94 l 328 11 m 76 260 l 76 376 l 164 376 l 164 260 l 76 260 m 76 375 q 133 537 76 482 q 300 611 189 592 l 300 528 q 196 478 228 514 q 164 375 164 443 l 76 375 m 300 528 l 300 611 l 467 639 l 467 556 l 300 528 m 379 607 l 379 875 l 467 875 l 467 607 l 379 607 z "},"ण":{"ha":803,"x_min":-35,"x_max":838,"o":"m -35 788 l -35 875 l 582 875 l 582 788 l -35 788 m 282 179 q 184 207 228 179 q 115 285 140 235 q 90 401 90 335 l 182 401 q 208 299 182 332 q 282 267 235 267 l 282 179 m 279 179 l 279 267 q 353 299 326 267 q 379 401 379 332 l 471 401 q 446 285 471 335 q 378 207 421 235 q 279 179 335 179 m 90 401 l 90 875 l 182 875 l 182 401 l 90 401 m 379 401 l 379 875 l 471 875 l 471 401 l 379 401 m 614 0 l 614 861 l 701 861 l 701 0 l 614 0 m 478 788 l 478 875 l 838 875 l 838 788 l 478 788 z "},"त":{"ha":672,"x_min":-35,"x_max":707,"o":"m 117 304 q 122 549 71 461 q 308 636 172 636 l 389 636 l 408 553 l 328 553 q 248 539 279 553 q 201 497 217 525 q 187 426 186 469 q 204 325 188 383 l 117 304 m 207 0 l 117 304 l 204 325 l 299 0 l 207 0 m 388 553 l 388 636 l 506 636 l 506 553 l 388 553 m -35 788 l -35 875 l 576 875 l 576 788 l -35 788 m 483 0 l 483 861 l 571 861 l 571 0 l 483 0 m 347 788 l 347 875 l 707 875 l 707 788 l 347 788 z "},"थ":{"ha":785,"x_min":76,"x_max":819,"o":"m 596 0 l 596 875 l 683 875 l 683 0 l 596 0 m 626 788 l 626 875 l 819 875 l 819 788 l 626 788 m 99 361 l 85 444 q 235 483 171 451 q 335 572 299 514 q 371 715 371 631 l 454 715 q 430 570 454 632 q 360 465 406 508 q 248 397 314 422 q 99 361 182 372 m 368 176 q 218 213 285 178 q 114 309 151 249 q 76 444 76 369 l 164 444 q 191 350 164 392 q 264 284 218 308 q 368 260 310 260 l 368 176 m 368 176 l 368 260 q 485 280 433 260 q 566 336 536 300 q 596 417 596 372 l 650 417 q 613 294 650 349 q 513 208 576 239 q 368 176 449 176 m 371 715 q 348 805 371 772 q 285 838 325 838 l 285 917 q 372 890 333 917 q 432 819 410 864 q 454 715 454 774 l 371 715 m 175 625 q 143 696 151 669 q 135 761 135 722 l 218 761 q 226 710 218 735 q 256 644 233 685 l 175 625 m 135 761 q 154 841 135 806 q 208 897 174 876 q 285 917 242 917 l 285 838 q 238 815 257 838 q 218 761 218 793 l 135 761 z "},"द":{"ha":617,"x_min":-35,"x_max":651,"o":"m -35 788 l -35 875 l 651 875 l 651 788 l -35 788 m 328 11 q 140 77 203 11 q 76 261 76 143 l 164 261 q 182 172 164 210 q 236 115 200 135 q 328 94 272 94 l 328 11 m 76 260 l 76 376 l 164 376 l 164 260 l 76 260 m 76 375 q 133 537 76 482 q 300 611 189 592 l 300 528 q 196 478 228 514 q 164 375 164 443 l 76 375 m 300 528 l 300 611 l 467 639 l 467 556 l 300 528 m 379 607 l 379 875 l 467 875 l 467 607 l 379 607 m 549 239 q 531 134 565 179 q 422 69 497 89 l 406 132 q 460 165 443 142 q 468 218 476 188 l 549 239 m 478 344 q 549 239 535 296 l 468 218 q 408 282 461 246 l 478 344 m 478 344 l 490 138 l 410 115 l 372 258 l 478 344 m 474 -124 l 376 249 l 460 274 l 558 -97 l 474 -124 m 326 11 l 326 94 q 385 104 358 94 q 450 136 413 114 l 464 53 q 396 21 426 31 q 326 11 365 11 z "},"ध":{"ha":772,"x_min":63,"x_max":807,"o":"m 583 0 l 583 875 l 671 875 l 671 0 l 583 0 m 614 788 l 614 875 l 807 875 l 807 788 l 614 788 m 344 469 q 226 479 278 465 q 137 525 174 493 q 81 605 100 557 q 63 715 63 653 l 146 715 q 161 634 146 668 q 206 579 176 600 q 278 552 236 558 q 375 554 321 546 l 375 475 l 344 469 m 383 107 q 258 133 314 107 q 171 205 203 160 q 139 307 139 250 l 222 321 q 269 225 222 264 q 383 186 315 186 l 383 107 m 139 307 q 172 426 139 372 q 263 515 206 481 q 393 556 321 550 l 410 481 q 314 448 357 472 q 247 390 271 424 q 222 321 222 357 l 139 307 m 383 107 l 383 186 q 485 213 440 186 q 557 286 531 240 q 583 390 583 332 l 638 390 q 604 245 638 310 q 514 144 571 181 q 383 107 457 107 m 375 475 l 375 554 l 424 563 l 433 483 l 375 475 m 146 715 l 63 715 q 85 819 63 774 q 146 890 107 864 q 232 917 185 917 l 232 838 q 169 805 193 838 q 146 715 146 772 m 342 625 l 261 644 q 291 710 283 685 q 299 761 299 735 l 382 761 q 374 696 382 722 q 342 625 365 669 m 382 761 l 299 761 q 279 815 299 793 q 232 838 260 838 l 232 917 q 309 897 275 917 q 363 841 343 876 q 382 761 382 806 z "},"न":{"ha":643,"x_min":-35,"x_max":678,"o":"m -35 788 l -35 875 l 547 875 l 547 788 l -35 788 m 42 374 q 86 471 42 436 q 208 506 131 506 l 208 440 q 147 423 169 440 q 125 374 125 406 l 42 374 m 83 254 q 42 374 42 315 l 125 374 q 167 296 125 344 l 83 254 m 83 254 l 125 457 l 208 457 l 208 310 l 83 254 m 204 426 l 204 506 l 506 506 l 506 426 l 204 426 m 454 0 l 454 861 l 542 861 l 542 0 l 454 0 m 318 788 l 318 875 l 678 875 l 678 788 l 318 788 z "},"प":{"ha":636,"x_min":-35,"x_max":671,"o":"m 301 235 q 186 270 238 235 q 106 367 135 306 q 76 506 76 429 l 164 506 q 205 372 164 425 q 307 318 246 318 l 301 235 m 301 235 l 307 318 q 408 360 368 318 q 447 464 447 401 l 514 464 q 486 347 514 399 q 410 265 458 294 q 301 235 363 235 m 76 504 l 76 875 l 164 875 l 164 504 l 76 504 m -35 788 l -35 875 l 439 875 l 439 788 l -35 788 m 447 0 l 447 861 l 535 861 l 535 0 l 447 0 m 311 788 l 311 875 l 671 875 l 671 788 l 311 788 z "},"फ":{"ha":896,"x_min":-35,"x_max":931,"o":"m 521 788 l 521 875 l 931 875 l 931 788 l 521 788 m 776 390 l 776 396 l 864 396 l 864 390 l 776 390 m 638 115 l 624 200 q 736 258 696 207 q 776 390 776 308 l 864 390 q 837 249 864 308 q 759 155 810 189 q 638 115 708 121 m 776 396 q 744 534 776 485 q 654 583 711 583 l 660 667 q 769 635 724 667 q 840 542 815 603 q 864 396 864 482 l 776 396 m 454 438 q 481 555 454 503 q 555 637 508 607 q 660 667 601 667 l 654 583 q 559 542 597 583 q 521 438 521 500 l 454 438 m 301 235 q 194 274 242 235 q 118 376 146 313 q 90 513 90 439 l 178 513 q 196 418 179 463 q 242 346 213 374 q 307 318 271 318 l 301 235 m 301 235 l 307 318 q 397 360 361 318 q 433 464 433 401 l 500 464 q 474 347 500 399 q 403 265 449 294 q 301 235 358 235 m 90 511 l 90 875 l 178 875 l 178 511 l 90 511 m -35 788 l -35 875 l 425 875 l 425 788 l -35 788 m 433 0 l 433 861 l 521 861 l 521 0 l 433 0 m 297 788 l 297 875 l 657 875 l 657 788 l 297 788 z "},"ब":{"ha":649,"x_min":-35,"x_max":683,"o":"m 460 325 l 460 425 l 526 425 l 526 325 l 460 325 m 401 131 l 154 574 l 213 619 l 460 176 l 401 131 m -35 788 l -35 875 l 446 875 l 446 788 l -35 788 m 61 367 l 61 383 l 149 383 l 149 367 l 61 367 m 149 382 l 61 382 q 92 521 61 460 q 178 617 124 582 q 300 653 232 653 l 306 569 q 225 545 261 569 q 169 478 189 521 q 149 382 149 436 m 526 424 l 460 424 q 415 528 460 486 q 306 569 371 569 l 300 653 q 416 623 365 653 q 497 541 467 593 q 526 424 526 489 m 149 368 q 169 272 149 315 q 225 205 189 229 q 306 181 261 181 l 300 97 q 178 133 232 97 q 92 230 124 168 q 61 368 61 292 l 149 368 m 526 326 q 497 209 526 261 q 416 127 467 157 q 300 97 365 97 l 306 181 q 415 222 371 181 q 460 326 460 264 l 526 326 m 460 0 l 460 861 l 547 861 l 547 0 l 460 0 m 324 788 l 324 875 l 683 875 l 683 788 l 324 788 z "},"भ":{"ha":711,"x_min":22,"x_max":746,"o":"m 522 0 l 522 875 l 610 875 l 610 0 l 522 0 m 553 788 l 553 875 l 746 875 l 746 788 l 553 788 m 200 432 l 200 732 l 288 732 l 288 432 l 200 432 m 219 263 l 219 453 l 288 453 l 288 292 l 219 263 m 49 788 l 22 875 q 77 892 51 886 q 128 897 103 897 l 128 810 q 93 806 110 810 q 49 788 76 803 m 200 731 q 180 790 200 771 q 128 810 160 810 l 128 897 q 242 853 197 897 q 288 731 288 808 l 200 731 m 228 385 l 228 464 l 585 464 l 585 385 l 228 385 m 100 333 q 140 422 100 390 q 250 453 179 453 l 250 393 q 194 377 214 393 q 175 333 175 361 l 100 333 m 138 226 q 100 333 100 281 l 175 333 q 213 264 175 307 l 138 226 m 138 226 l 175 408 l 250 408 l 250 276 l 138 226 z "},"म":{"ha":719,"x_min":-35,"x_max":754,"o":"m -35 788 l -35 875 l 471 875 l 471 788 l -35 788 m 168 432 l 168 875 l 256 875 l 256 432 l 168 432 m 189 263 l 189 453 l 257 453 l 257 292 l 189 263 m 197 385 l 197 464 l 554 464 l 554 385 l 197 385 m 69 333 q 109 422 69 390 q 219 453 149 453 l 219 393 q 164 377 183 393 q 144 333 144 361 l 69 333 m 107 226 q 69 333 69 281 l 144 333 q 182 264 144 307 l 107 226 m 107 226 l 144 408 l 219 408 l 219 276 l 107 226 m 531 0 l 531 861 l 618 861 l 618 0 l 531 0 m 394 788 l 394 875 l 754 875 l 754 788 l 394 788 z "},"य":{"ha":771,"x_min":-35,"x_max":806,"o":"m 103 342 l 103 417 q 230 443 174 417 q 318 516 286 469 q 350 619 350 563 l 433 619 q 390 477 433 540 q 272 378 347 414 q 103 342 197 342 m 350 619 q 332 706 350 668 q 282 765 314 743 q 210 788 250 788 l 210 843 q 324 814 274 843 q 404 735 375 785 q 433 619 433 685 l 350 619 m -35 788 l -35 875 l 683 875 l 683 788 l -35 788 m 368 149 q 218 185 285 150 q 114 281 151 221 q 76 417 76 342 l 164 417 q 191 322 164 364 q 264 256 218 281 q 368 232 310 232 l 368 149 m 368 149 l 368 232 q 478 258 429 232 q 554 330 526 285 q 582 432 582 375 l 636 432 q 601 287 636 351 q 505 185 565 222 q 368 149 444 149 m 117 753 l 72 801 q 130 832 99 821 q 211 843 161 843 l 211 788 q 156 778 178 788 q 117 753 133 769 m 582 0 l 582 861 l 669 861 l 669 0 l 582 0 m 446 788 l 446 875 l 806 875 l 806 788 l 446 788 z "},"र":{"ha":451,"x_min":-35,"x_max":486,"o":"m 92 372 l 51 456 q 193 475 142 456 q 263 536 244 494 q 272 642 282 578 l 360 642 q 356 536 368 585 q 314 451 343 488 q 242 393 285 414 q 144 372 199 372 l 92 372 m 263 0 l 39 456 l 135 456 l 360 0 l 263 0 m 272 642 l 243 833 l 331 833 l 360 642 l 272 642 m -35 788 l -35 875 l 486 875 l 486 788 l -35 788 z "},"ऱ":{"ha":465,"x_min":-35,"x_max":500,"o":"m -35 788 l -35 875 l 56 875 l 56 788 l -35 788 m 106 372 l 65 456 q 207 475 156 456 q 277 536 258 494 q 286 642 296 578 l 374 642 q 369 536 382 585 q 328 451 357 488 q 256 393 299 414 q 158 372 213 372 l 106 372 m 276 0 l 53 456 l 149 456 l 374 0 l 276 0 m 286 642 l 257 833 l 344 833 l 374 642 l 286 642 m -21 788 l -21 875 l 500 875 l 500 788 l -21 788 m 43 -12 q -8 8 13 -12 q -29 58 -29 28 q -8 110 -29 89 q 43 132 13 132 q 94 110 74 132 q 115 58 115 89 q 94 8 115 28 q 43 -12 74 -12 z "},"ल":{"ha":824,"x_min":-35,"x_max":858,"o":"m 376 415 q 444 590 376 526 q 635 653 513 653 l 635 569 q 509 529 554 569 q 464 415 464 489 l 376 415 m 633 569 l 633 653 l 656 653 l 656 569 l 633 569 m 411 -21 q 232 17 307 -21 q 117 127 157 54 q 76 301 76 200 l 164 301 q 229 126 164 189 q 411 63 294 63 l 411 -21 m 76 301 l 76 361 l 164 361 l 164 301 l 76 301 m 76 360 q 130 576 76 499 q 278 653 183 653 l 278 569 q 194 514 224 569 q 164 360 164 458 l 76 360 m 376 296 l 376 415 l 464 415 l 464 296 l 376 296 m 376 415 q 351 529 376 489 q 278 569 325 569 l 278 653 q 415 592 365 654 q 464 415 464 529 l 376 415 m -35 788 l -35 875 l 619 875 l 619 788 l -35 788 m 635 0 l 635 861 l 722 861 l 722 0 l 635 0 m 499 788 l 499 875 l 858 875 l 858 788 l 499 788 z "},"ळ":{"ha":981,"x_min":-35,"x_max":1015,"o":"m 618 579 l 618 854 l 706 854 l 706 579 l 618 579 m -35 788 l -35 875 l 1015 875 l 1015 788 l -35 788 m 294 21 q 190 51 236 21 q 117 133 144 81 q 90 250 90 185 l 178 250 q 216 146 178 188 q 310 104 254 104 l 294 21 m 90 250 l 90 396 l 178 396 l 178 250 l 90 250 m 294 21 l 310 104 q 408 146 369 104 q 447 250 447 188 l 514 250 q 485 133 514 185 q 407 51 457 81 q 294 21 357 21 m 90 396 q 117 513 90 461 q 190 595 144 565 q 294 625 236 625 l 310 542 q 216 500 254 542 q 178 396 178 458 l 90 396 m 686 21 q 574 51 624 21 q 496 133 525 81 q 467 250 467 185 l 533 250 q 572 146 533 188 q 671 104 611 104 l 686 21 m 447 250 l 447 396 l 533 396 l 533 250 l 447 250 m 447 396 q 408 500 447 458 q 310 542 369 542 l 294 625 q 407 595 357 625 q 485 513 457 565 q 514 396 514 461 l 447 396 m 686 21 l 671 104 q 765 146 728 104 q 803 250 803 188 l 890 250 q 864 133 890 185 q 791 51 838 81 q 686 21 744 21 m 467 396 q 496 513 467 461 q 574 595 525 565 q 686 625 624 625 l 671 542 q 572 500 611 542 q 533 396 533 458 l 467 396 m 803 250 l 803 396 l 890 396 l 890 250 l 803 250 m 803 396 q 765 500 803 458 q 671 542 728 542 l 686 625 q 791 595 744 625 q 864 513 838 565 q 890 396 890 461 l 803 396 z "},"व":{"ha":649,"x_min":-35,"x_max":683,"o":"m -35 788 l -35 875 l 446 875 l 446 788 l -35 788 m 61 367 l 61 383 l 149 383 l 149 367 l 61 367 m 149 382 l 61 382 q 92 521 61 460 q 178 617 124 582 q 300 653 232 653 l 306 569 q 225 545 261 569 q 169 478 189 521 q 149 382 149 436 m 526 424 l 460 424 q 415 528 460 486 q 306 569 371 569 l 300 653 q 416 623 365 653 q 497 541 467 593 q 526 424 526 489 m 149 368 q 169 272 149 315 q 225 205 189 229 q 306 181 261 181 l 300 97 q 178 133 232 97 q 92 230 124 168 q 61 368 61 292 l 149 368 m 526 326 q 497 209 526 261 q 416 127 467 157 q 300 97 365 97 l 306 181 q 415 222 371 181 q 460 326 460 264 l 526 326 m 460 0 l 460 861 l 547 861 l 547 0 l 460 0 m 324 788 l 324 875 l 683 875 l 683 788 l 324 788 z "},"श":{"ha":829,"x_min":51,"x_max":864,"o":"m 640 0 l 640 875 l 728 875 l 728 0 l 640 0 m 671 788 l 671 875 l 864 875 l 864 788 l 671 788 m 51 293 l 85 374 q 210 358 150 349 q 319 406 271 368 q 394 506 367 444 q 422 643 422 567 l 506 643 q 468 463 506 542 q 366 333 431 383 q 220 272 301 283 q 51 293 139 260 m 293 571 q 201 592 242 571 q 136 651 160 614 q 113 733 113 688 l 196 733 q 224 674 196 699 q 293 650 251 650 l 293 571 m 293 571 l 293 650 q 324 653 308 650 q 357 663 339 657 l 365 582 q 330 574 347 576 q 293 571 313 571 m 113 733 q 134 817 113 781 q 194 874 156 853 q 279 896 232 896 l 279 817 q 220 793 244 817 q 196 733 196 769 l 113 733 m 422 643 q 385 771 422 725 q 279 817 347 817 l 279 896 q 401 866 350 896 q 478 779 451 836 q 506 643 506 722 l 422 643 m 396 -22 l 117 278 l 182 342 l 460 44 l 396 -22 z "},"ष":{"ha":636,"x_min":-35,"x_max":671,"o":"m 413 342 l 121 757 l 174 808 l 465 393 l 413 342 m 301 235 q 186 270 238 235 q 106 367 135 306 q 76 506 76 429 l 164 506 q 205 372 164 425 q 307 318 246 318 l 301 235 m 301 235 l 307 318 q 408 360 368 318 q 447 464 447 401 l 514 464 q 486 347 514 399 q 410 265 458 294 q 301 235 363 235 m 76 504 l 76 875 l 164 875 l 164 504 l 76 504 m -35 788 l -35 875 l 439 875 l 439 788 l -35 788 m 447 0 l 447 861 l 535 861 l 535 0 l 447 0 m 311 788 l 311 875 l 671 875 l 671 788 l 311 788 z "},"स":{"ha":769,"x_min":-42,"x_max":804,"o":"m 382 788 l 382 875 l 593 875 l 593 788 l 382 788 m 132 374 l 132 456 l 596 456 l 596 374 l 132 374 m 85 372 l 44 456 q 186 475 135 456 q 256 536 238 494 q 265 642 275 578 l 353 642 q 349 536 361 585 q 307 451 336 488 q 235 393 278 414 q 138 372 192 372 l 85 372 m 256 0 l 32 456 l 128 456 l 353 0 l 256 0 m 265 642 l 236 833 l 324 833 l 353 642 l 265 642 m -42 788 l -42 875 l 479 875 l 479 788 l -42 788 m 581 0 l 581 861 l 668 861 l 668 0 l 581 0 m 444 788 l 444 875 l 804 875 l 804 788 l 444 788 z "},"ह":{"ha":618,"x_min":-35,"x_max":653,"o":"m 494 -131 q 188 -52 286 -131 q 90 190 90 26 l 178 190 q 254 10 178 68 q 494 -47 331 -47 l 494 -131 m -35 788 l -35 875 l 653 875 l 653 788 l -35 788 m 90 189 q 121 319 90 263 q 205 407 151 375 q 328 439 258 439 l 328 360 q 221 311 264 360 q 178 189 178 263 l 90 189 m 192 346 q 131 424 154 382 q 107 507 107 467 l 194 507 q 210 449 194 479 q 254 392 226 418 l 192 346 m 107 507 q 164 632 107 583 q 307 681 221 681 l 307 597 q 224 574 254 597 q 194 507 194 550 l 107 507 m 307 597 l 307 681 l 521 681 l 521 597 l 307 597 m 433 681 l 433 875 l 521 875 l 521 681 l 433 681 m 565 174 l 478 175 l 478 210 l 565 210 l 565 174 m 478 210 q 435 317 478 275 q 328 360 393 360 l 328 439 q 451 410 397 439 q 535 329 504 381 q 565 210 565 278 l 478 210 z "},"क़":{"ha":865,"x_min":-36,"x_max":900,"o":"m 536 788 l 536 875 l 900 875 l 900 788 l 536 788 m -35 788 l -35 875 l 390 875 l 390 788 l -35 788 m 61 367 l 61 383 l 149 383 l 149 367 l 61 367 m 404 325 l 404 425 l 471 425 l 471 325 l 404 325 m 149 382 l 61 382 q 85 528 61 468 q 156 621 110 589 q 265 653 201 653 l 271 569 q 181 520 214 569 q 149 382 149 471 m 471 424 l 404 424 q 366 528 404 486 q 271 569 328 569 l 265 653 q 371 623 325 653 q 444 541 417 593 q 471 424 471 489 m 149 368 q 181 230 149 279 q 271 181 214 181 l 265 97 q 156 129 201 97 q 85 222 110 161 q 61 368 61 283 l 149 368 m 471 326 q 444 209 471 261 q 371 127 417 157 q 265 97 325 97 l 271 181 q 366 222 328 181 q 404 326 404 264 l 471 326 m 747 382 q 715 520 747 471 q 625 569 682 569 l 631 653 q 740 621 694 653 q 810 528 786 589 q 835 382 835 468 l 747 382 m 425 424 q 452 541 425 489 q 526 623 479 593 q 631 653 572 653 l 625 569 q 530 528 568 569 q 492 424 492 486 l 425 424 m 747 376 l 747 382 l 835 382 l 835 376 l 747 376 m 608 101 l 594 186 q 707 244 667 193 q 747 376 747 294 l 835 376 q 808 235 835 294 q 730 141 781 175 q 608 101 679 107 m 404 0 l 404 861 l 492 861 l 492 0 l 404 0 m 268 788 l 268 875 l 628 875 l 628 788 l 268 788 m 36 -7 q -15 13 6 -7 q -36 64 -36 33 q -15 116 -36 94 q 36 138 6 138 q 88 116 67 138 q 108 64 108 94 q 88 13 108 33 q 36 -7 67 -7 z "},"ख़":{"ha":954,"x_min":-35,"x_max":989,"o":"m 422 -21 q 275 33 335 -21 q 165 199 215 86 l 261 199 q 305 122 282 153 q 356 77 328 92 q 422 63 385 63 l 422 -21 m 165 199 l 61 425 l 158 425 l 261 199 l 165 199 m 422 -21 l 422 63 q 513 103 472 63 q 592 213 554 143 l 667 164 q 590 65 629 106 q 510 1 551 24 q 422 -21 468 -21 m 640 154 q 536 188 582 154 q 463 279 490 221 q 436 411 436 338 l 524 411 q 540 323 524 363 q 583 260 556 283 q 646 238 611 238 l 640 154 m 640 154 l 646 238 q 707 257 681 238 q 749 309 733 276 q 765 383 765 342 l 832 383 q 807 266 832 318 q 739 184 782 214 q 640 154 696 154 m 436 410 q 463 542 436 483 q 536 633 490 600 q 640 667 582 667 l 646 583 q 583 560 611 583 q 540 499 556 538 q 524 410 524 460 l 436 410 m -35 788 l -35 875 l 778 875 l 778 788 l -35 788 m 765 438 q 749 512 765 479 q 707 564 733 544 q 646 583 681 583 l 640 667 q 739 637 696 667 q 807 555 782 607 q 832 438 832 503 l 765 438 m 86 372 l 46 456 q 192 475 136 456 q 272 536 249 494 q 286 642 296 578 l 374 642 q 369 536 382 585 q 328 451 357 488 q 256 393 299 414 q 158 372 213 372 l 86 372 m 286 642 l 257 833 l 344 833 l 374 642 l 286 642 m 765 0 l 765 861 l 853 861 l 853 0 l 765 0 m 629 788 l 629 875 l 989 875 l 989 788 l 629 788 m 79 -43 q 28 -23 49 -43 q 7 28 7 -3 q 28 80 7 58 q 79 101 49 101 q 131 80 110 101 q 151 28 151 58 q 131 -23 151 -3 q 79 -43 110 -43 z "},"ग़":{"ha":696,"x_min":-35,"x_max":731,"o":"m -35 788 l -35 875 l 426 875 l 426 788 l -35 788 m 196 418 l 196 875 l 283 875 l 283 418 l 196 418 m 151 253 l 151 336 q 201 358 183 336 q 218 419 218 381 l 283 419 q 249 297 283 342 q 151 253 214 253 m 32 294 l 74 378 q 151 336 122 336 l 151 253 q 32 294 93 253 m 32 294 l 88 419 l 235 419 l 235 336 l 32 294 m 507 0 l 507 861 l 594 861 l 594 0 l 507 0 m 371 788 l 371 875 l 731 875 l 731 788 l 371 788 m 171 8 q 119 28 140 8 q 99 79 99 49 q 119 131 99 110 q 171 153 140 153 q 222 131 201 153 q 243 79 243 110 q 222 28 243 49 q 171 8 201 8 z "},"ज़":{"ha":808,"x_min":-35,"x_max":843,"o":"m 269 76 l 269 160 q 376 220 343 160 q 394 389 408 281 l 482 389 q 471 229 494 300 q 395 117 447 158 q 269 76 343 76 m 271 76 q 165 109 213 76 q 91 199 118 142 q 64 326 64 256 l 151 326 q 183 204 151 249 q 271 160 215 160 l 271 76 m 64 325 l 64 432 l 151 446 l 151 325 l 64 325 m 394 389 q 372 463 389 431 q 330 513 354 494 q 278 532 306 532 l 278 600 q 372 577 331 600 q 443 508 414 554 q 482 389 472 461 l 394 389 m 278 532 l 278 615 l 635 615 l 635 532 l 278 532 m -35 788 l -35 875 l 633 875 l 633 788 l -35 788 m 619 0 l 619 861 l 707 861 l 707 0 l 619 0 m 483 788 l 483 875 l 843 875 l 843 788 l 483 788 m 142 -125 q 90 -105 111 -125 q 69 -54 69 -85 q 90 -2 69 -24 q 142 19 111 19 q 193 -2 172 19 q 214 -54 214 -24 q 193 -105 214 -85 q 142 -125 172 -125 z "},"ड़":{"ha":546,"x_min":-35,"x_max":581,"o":"m 293 0 q 145 51 206 0 q 64 194 85 103 l 151 215 q 208 118 171 153 q 293 83 246 83 l 293 0 m -35 788 l -35 875 l 581 875 l 581 788 l -35 788 m 278 0 l 278 83 q 372 115 339 83 q 406 201 406 146 l 493 201 q 436 53 493 107 q 278 0 379 0 m 269 333 q 120 378 174 333 q 67 504 67 424 l 158 504 q 191 440 158 463 q 283 417 224 417 l 269 333 m 406 201 q 370 301 406 267 q 269 333 335 336 l 283 417 q 397 391 350 417 q 468 317 443 365 q 493 201 493 269 l 406 201 m 67 504 q 122 626 67 582 q 276 671 178 671 l 276 588 q 190 566 221 588 q 158 504 158 544 l 67 504 m 276 588 l 276 671 l 436 671 l 436 588 l 276 588 m 349 625 l 349 854 l 436 854 l 436 625 l 349 625 m 286 -186 q 235 -166 256 -186 q 214 -115 214 -146 q 235 -63 214 -85 q 286 -42 256 -42 q 338 -63 317 -42 q 358 -115 358 -85 q 338 -166 358 -146 q 286 -186 317 -186 z "},"ढ़":{"ha":600,"x_min":-35,"x_max":635,"o":"m -35 788 l -35 875 l 635 875 l 635 788 l -35 788 m 325 11 l 325 94 l 340 94 l 340 11 l 325 11 m 340 11 l 340 94 q 440 135 404 94 q 475 235 475 175 l 554 235 q 526 120 554 171 q 450 40 499 69 q 340 11 401 11 m 415 106 l 360 235 q 387 310 360 279 q 454 340 414 340 q 526 310 497 340 q 554 235 554 279 q 536 169 554 199 q 487 122 518 139 q 415 106 456 106 m 328 11 q 140 77 203 11 q 76 261 76 143 l 164 261 q 182 172 164 210 q 236 115 200 135 q 328 94 272 94 l 328 11 m 76 260 l 76 376 l 164 376 l 164 260 l 76 260 m 76 375 q 133 537 76 482 q 300 611 189 592 l 300 528 q 196 478 228 514 q 164 375 164 443 l 76 375 m 300 528 l 300 611 l 467 639 l 467 556 l 300 528 m 379 607 l 379 875 l 467 875 l 467 607 l 379 607 m 335 -182 q 283 -162 304 -182 q 263 -111 263 -142 q 283 -59 263 -81 q 335 -37 304 -37 q 386 -59 365 -37 q 407 -111 407 -81 q 386 -162 407 -142 q 335 -182 365 -182 z "},"फ़":{"ha":896,"x_min":-35,"x_max":931,"o":"m 521 788 l 521 875 l 931 875 l 931 788 l 521 788 m 776 390 l 776 396 l 864 396 l 864 390 l 776 390 m 638 115 l 624 200 q 736 258 696 207 q 776 390 776 308 l 864 390 q 837 249 864 308 q 759 155 810 189 q 638 115 708 121 m 776 396 q 744 534 776 485 q 654 583 711 583 l 660 667 q 769 635 724 667 q 840 542 815 603 q 864 396 864 482 l 776 396 m 454 438 q 481 555 454 503 q 555 637 508 607 q 660 667 601 667 l 654 583 q 559 542 597 583 q 521 438 521 500 l 454 438 m 301 235 q 194 274 242 235 q 118 376 146 313 q 90 513 90 439 l 178 513 q 196 418 179 463 q 242 346 213 374 q 307 318 271 318 l 301 235 m 301 235 l 307 318 q 397 360 361 318 q 433 464 433 401 l 500 464 q 474 347 500 399 q 403 265 449 294 q 301 235 358 235 m 90 511 l 90 875 l 178 875 l 178 511 l 90 511 m -35 788 l -35 875 l 425 875 l 425 788 l -35 788 m 433 0 l 433 861 l 521 861 l 521 0 l 433 0 m 297 788 l 297 875 l 657 875 l 657 788 l 297 788 m 72 93 q 21 113 42 93 q 0 164 0 133 q 21 216 0 194 q 72 238 42 238 q 124 216 103 238 q 144 164 144 194 q 124 113 144 133 q 72 93 103 93 z "},"य़":{"ha":771,"x_min":-35,"x_max":806,"o":"m 103 342 l 103 417 q 230 443 174 417 q 318 516 286 469 q 350 619 350 563 l 433 619 q 390 477 433 540 q 272 378 347 414 q 103 342 197 342 m 350 619 q 332 706 350 668 q 282 765 314 743 q 210 788 250 788 l 210 843 q 324 814 274 843 q 404 735 375 785 q 433 619 433 685 l 350 619 m -35 788 l -35 875 l 683 875 l 683 788 l -35 788 m 368 149 q 218 185 285 150 q 114 281 151 221 q 76 417 76 342 l 164 417 q 191 322 164 364 q 264 256 218 281 q 368 232 310 232 l 368 149 m 368 149 l 368 232 q 478 258 429 232 q 554 330 526 285 q 582 432 582 375 l 636 432 q 601 287 636 351 q 505 185 565 222 q 368 149 444 149 m 117 753 l 72 801 q 130 832 99 821 q 211 843 161 843 l 211 788 q 156 778 178 788 q 117 753 133 769 m 582 0 l 582 861 l 669 861 l 669 0 l 582 0 m 446 788 l 446 875 l 806 875 l 806 788 l 446 788 m 93 6 q 42 26 63 6 q 21 76 21 46 q 42 128 21 107 q 93 150 63 150 q 144 128 124 150 q 165 76 165 107 q 144 26 165 46 q 93 6 124 6 z "},"ॹ":{"ha":808,"x_min":-35,"x_max":843,"o":"m 269 76 l 269 160 q 376 220 343 160 q 394 389 408 281 l 482 389 q 471 229 494 300 q 395 117 447 158 q 269 76 343 76 m 271 76 q 165 109 213 76 q 91 199 118 142 q 64 326 64 256 l 151 326 q 183 204 151 249 q 271 160 215 160 l 271 76 m 64 325 l 64 432 l 151 446 l 151 325 l 64 325 m 394 389 q 372 463 389 431 q 330 513 354 494 q 278 532 306 532 l 278 600 q 372 577 331 600 q 443 508 414 554 q 482 389 472 461 l 394 389 m 278 532 l 278 615 l 635 615 l 635 532 l 278 532 m -35 788 l -35 875 l 633 875 l 633 788 l -35 788 m 619 0 l 619 861 l 707 861 l 707 0 l 619 0 m 483 788 l 483 875 l 843 875 l 843 788 l 483 788 m 310 -307 q 267 -290 285 -307 q 250 -249 250 -274 q 267 -206 250 -224 q 310 -189 285 -189 q 352 -206 335 -189 q 369 -249 369 -224 q 352 -290 369 -274 q 310 -307 335 -307 m 431 -146 q 388 -129 406 -146 q 371 -87 371 -112 q 388 -45 371 -62 q 431 -28 406 -28 q 473 -45 456 -28 q 490 -87 490 -62 q 473 -129 490 -112 q 431 -146 456 -146 m 194 -146 q 152 -129 169 -146 q 135 -87 135 -112 q 152 -45 135 -62 q 194 -28 169 -28 q 237 -45 219 -28 q 254 -87 254 -62 q 237 -129 254 -112 q 194 -146 219 -146 z "},"ॻ":{"ha":696,"x_min":-35,"x_max":731,"o":"m -35 788 l -35 875 l 426 875 l 426 788 l -35 788 m 196 418 l 196 875 l 283 875 l 283 418 l 196 418 m 151 253 l 151 336 q 201 358 183 336 q 218 419 218 381 l 283 419 q 249 297 283 342 q 151 253 214 253 m 32 294 l 74 378 q 151 336 122 336 l 151 253 q 32 294 93 253 m 32 294 l 88 419 l 235 419 l 235 336 l 32 294 m 507 0 l 507 861 l 594 861 l 594 0 l 507 0 m 371 788 l 371 875 l 731 875 l 731 788 l 371 788 m 122 -140 l 122 -69 l 594 -69 l 594 -140 l 122 -140 z "},"ॼ":{"ha":808,"x_min":-35,"x_max":843,"o":"m 269 76 l 269 160 q 376 220 343 160 q 394 389 408 281 l 482 389 q 471 229 494 300 q 395 117 447 158 q 269 76 343 76 m 271 76 q 165 109 213 76 q 91 199 118 142 q 64 326 64 256 l 151 326 q 183 204 151 249 q 271 160 215 160 l 271 76 m 64 325 l 64 432 l 151 446 l 151 325 l 64 325 m 394 389 q 372 463 389 431 q 330 513 354 494 q 278 532 306 532 l 278 600 q 372 577 331 600 q 443 508 414 554 q 482 389 472 461 l 394 389 m 278 532 l 278 615 l 635 615 l 635 532 l 278 532 m -35 788 l -35 875 l 633 875 l 633 788 l -35 788 m 619 0 l 619 861 l 707 861 l 707 0 l 619 0 m 483 788 l 483 875 l 843 875 l 843 788 l 483 788 m 235 -140 l 235 -69 l 707 -69 l 707 -140 l 235 -140 z "},"ॾ":{"ha":546,"x_min":-35,"x_max":581,"o":"m 293 0 q 145 51 206 0 q 64 194 85 103 l 151 215 q 208 118 171 153 q 293 83 246 83 l 293 0 m -35 788 l -35 875 l 581 875 l 581 788 l -35 788 m 278 0 l 278 83 q 372 115 339 83 q 406 201 406 146 l 493 201 q 436 53 493 107 q 278 0 379 0 m 269 333 q 120 378 174 333 q 67 504 67 424 l 158 504 q 191 440 158 463 q 283 417 224 417 l 269 333 m 406 201 q 370 301 406 267 q 269 333 335 336 l 283 417 q 397 391 350 417 q 468 317 443 365 q 493 201 493 269 l 406 201 m 67 504 q 122 626 67 582 q 276 671 178 671 l 276 588 q 190 566 221 588 q 158 504 158 544 l 67 504 m 276 588 l 276 671 l 436 671 l 436 588 l 276 588 m 349 625 l 349 854 l 436 854 l 436 625 l 349 625 m 46 -142 l 46 -71 l 518 -71 l 518 -142 l 46 -142 z "},"ॿ":{"ha":649,"x_min":-35,"x_max":683,"o":"m 460 325 l 460 425 l 526 425 l 526 325 l 460 325 m 401 131 l 154 574 l 213 619 l 460 176 l 401 131 m -35 788 l -35 875 l 446 875 l 446 788 l -35 788 m 61 367 l 61 383 l 149 383 l 149 367 l 61 367 m 149 382 l 61 382 q 92 521 61 460 q 178 617 124 582 q 300 653 232 653 l 306 569 q 225 545 261 569 q 169 478 189 521 q 149 382 149 436 m 526 424 l 460 424 q 415 528 460 486 q 306 569 371 569 l 300 653 q 416 623 365 653 q 497 541 467 593 q 526 424 526 489 m 149 368 q 169 272 149 315 q 225 205 189 229 q 306 181 261 181 l 300 97 q 178 133 232 97 q 92 230 124 168 q 61 368 61 292 l 149 368 m 526 326 q 497 209 526 261 q 416 127 467 157 q 300 97 365 97 l 306 181 q 415 222 371 181 q 460 326 460 264 l 526 326 m 460 0 l 460 861 l 547 861 l 547 0 l 460 0 m 324 788 l 324 875 l 683 875 l 683 788 l 324 788 m 75 -140 l 75 -69 l 547 -69 l 547 -140 l 75 -140 z "},"¹":{"ha":222,"x_min":25,"x_max":146,"o":"m 104 629 l 104 1067 l 146 1067 l 146 629 l 104 629 m 51 951 l 25 979 l 104 1067 l 104 1010 l 51 951 z "},"²":{"ha":365,"x_min":76,"x_max":289,"o":"m 83 671 q 100 757 83 722 q 141 817 117 792 q 190 866 165 843 q 231 915 214 889 q 247 979 247 942 q 253 979 247 979 q 268 979 260 979 q 283 979 276 979 q 289 979 289 979 q 272 901 289 932 q 231 846 256 869 q 181 799 206 822 q 140 745 157 775 q 122 671 122 715 l 83 671 m 83 629 l 83 671 l 289 671 l 289 629 l 83 629 m 117 986 l 76 996 q 111 1057 81 1032 q 182 1082 142 1082 l 182 1043 q 138 1029 157 1043 q 117 986 119 1015 m 289 979 l 247 979 q 228 1025 247 1007 q 182 1043 210 1043 l 182 1082 q 258 1053 228 1082 q 289 979 289 1024 z "},"³":{"ha":364,"x_min":76,"x_max":288,"o":"m 181 842 l 181 881 q 224 903 207 881 q 240 960 240 925 l 282 960 q 253 875 282 908 q 181 842 224 842 m 246 722 l 246 778 l 288 778 l 288 722 l 246 722 m 143 842 l 143 881 l 182 881 l 182 842 l 143 842 m 240 960 q 224 1015 240 993 q 181 1036 207 1036 l 181 1076 q 253 1043 224 1076 q 282 960 282 1010 l 240 960 m 288 722 q 257 649 288 678 q 181 619 226 619 l 181 658 q 227 676 208 658 q 246 722 246 694 l 288 722 m 288 778 l 246 778 q 227 823 246 804 q 181 842 208 842 l 181 881 q 257 851 226 881 q 288 778 288 821 m 115 981 l 76 989 q 110 1051 81 1026 q 182 1076 140 1076 l 182 1036 q 138 1023 157 1036 q 115 981 119 1010 m 115 715 q 138 672 119 686 q 182 658 157 658 l 182 619 q 110 644 140 619 q 76 706 81 669 l 115 715 z "},"⁴":{"ha":396,"x_min":76,"x_max":319,"o":"m 76 763 l 194 1063 l 236 1063 l 117 763 l 76 763 m 76 722 l 76 763 l 319 763 l 319 722 l 76 722 m 229 625 l 229 875 l 269 875 l 269 625 l 229 625 z "},"⁄":{"ha":286,"x_min":-69,"x_max":425,"o":"m -69 -21 l 363 1099 l 425 1099 l -7 -21 l -69 -21 z "},"½":{"ha":1028,"x_min":25,"x_max":951,"o":"m 142 413 l 142 1054 l 203 1054 l 203 413 l 142 413 m 64 886 l 25 926 l 142 1054 l 142 971 l 64 886 m 210 -21 l 642 1099 l 704 1099 l 272 -21 l 210 -21 m 650 61 q 676 188 651 136 q 736 276 700 239 q 808 348 772 314 q 867 421 843 382 q 892 514 892 460 q 901 514 892 514 q 922 514 910 514 q 942 514 933 514 q 951 514 951 514 q 927 398 951 444 q 867 317 903 351 q 794 248 831 282 q 733 170 758 214 q 708 61 708 126 l 650 61 m 650 0 l 650 61 l 951 61 l 951 0 l 650 0 m 700 525 l 642 538 q 692 628 649 592 q 796 665 736 665 l 796 607 q 732 587 760 607 q 700 525 704 567 m 951 514 l 892 514 q 864 580 892 553 q 794 607 836 607 l 794 665 q 876 645 840 665 q 931 591 911 625 q 951 514 951 557 z "},"¼":{"ha":1018,"x_min":25,"x_max":942,"o":"m 142 413 l 142 1054 l 203 1054 l 203 413 l 142 413 m 64 886 l 25 926 l 142 1054 l 142 971 l 64 886 m 210 -21 l 642 1099 l 704 1099 l 272 -21 l 210 -21 m 585 203 l 758 642 l 818 642 l 646 203 l 585 203 m 585 142 l 585 203 l 942 203 l 942 142 l 585 142 m 810 0 l 810 365 l 868 365 l 868 0 l 810 0 z "},"¾":{"ha":1203,"x_min":76,"x_max":1126,"o":"m 231 724 l 231 781 q 293 814 268 781 q 318 897 318 847 l 379 897 q 337 773 379 822 q 231 724 294 724 m 326 549 l 326 629 l 388 629 l 388 549 l 326 549 m 175 724 l 175 781 l 232 781 l 232 724 l 175 724 m 318 896 q 293 978 318 946 q 231 1010 268 1010 l 231 1068 q 337 1019 294 1068 q 379 896 379 969 l 318 896 m 388 549 q 367 472 388 506 q 310 417 346 438 q 231 397 275 397 l 231 456 q 299 483 272 456 q 326 549 326 510 l 388 549 m 388 629 l 326 629 q 299 697 326 669 q 231 724 272 724 l 231 781 q 310 761 275 781 q 367 707 346 742 q 388 629 388 672 m 135 928 l 76 940 q 127 1031 83 994 q 232 1068 171 1068 l 232 1010 q 167 990 194 1010 q 135 928 140 971 m 135 538 q 167 476 140 496 q 232 456 194 456 l 232 397 q 127 434 171 397 q 76 525 83 471 l 135 538 m 394 -21 l 826 1099 l 889 1099 l 457 -21 l 394 -21 m 769 203 l 943 642 l 1003 642 l 831 203 l 769 203 m 769 142 l 769 203 l 1126 203 l 1126 142 l 769 142 m 994 0 l 994 365 l 1053 365 l 1053 0 l 994 0 z "},"⅛":{"ha":1031,"x_min":25,"x_max":954,"o":"m 142 413 l 142 1054 l 203 1054 l 203 413 l 142 413 m 64 886 l 25 926 l 142 1054 l 142 971 l 64 886 m 210 -21 l 642 1099 l 704 1099 l 272 -21 l 210 -21 m 894 204 q 869 283 894 254 q 797 311 843 311 l 797 368 q 913 324 871 368 q 954 204 954 281 l 894 204 m 797 -14 q 683 30 724 -14 q 642 151 642 74 l 701 151 q 727 72 701 100 q 797 44 753 44 l 797 -14 m 642 151 l 642 204 l 701 204 l 701 151 l 642 151 m 797 -14 l 797 44 q 869 72 843 44 q 894 151 894 100 l 954 151 q 913 30 954 74 q 797 -14 871 -14 m 642 204 q 683 324 642 281 q 797 368 724 368 l 797 311 q 727 283 753 311 q 701 204 701 254 l 642 204 m 894 151 l 894 204 l 954 204 l 954 151 l 894 151 m 797 311 q 690 353 731 311 q 650 467 650 396 l 710 467 q 732 393 710 418 q 797 368 754 368 l 797 311 m 650 467 l 650 500 l 710 500 l 710 467 l 650 467 m 797 311 l 797 368 q 864 393 842 368 q 886 467 886 418 l 946 467 q 905 353 946 396 q 797 311 864 311 m 650 500 q 690 613 650 569 q 797 656 731 656 l 797 597 q 732 572 754 597 q 710 500 710 547 l 650 500 m 886 467 l 886 500 l 946 500 l 946 467 l 886 467 m 886 500 q 864 572 886 547 q 797 597 842 597 l 797 656 q 905 613 864 656 q 946 500 946 569 l 886 500 z "},"⅜":{"ha":1215,"x_min":76,"x_max":1139,"o":"m 231 724 l 231 781 q 293 814 268 781 q 318 897 318 847 l 379 897 q 337 773 379 822 q 231 724 294 724 m 326 549 l 326 629 l 388 629 l 388 549 l 326 549 m 175 724 l 175 781 l 232 781 l 232 724 l 175 724 m 318 896 q 293 978 318 946 q 231 1010 268 1010 l 231 1068 q 337 1019 294 1068 q 379 896 379 969 l 318 896 m 388 549 q 367 472 388 506 q 310 417 346 438 q 231 397 275 397 l 231 456 q 299 483 272 456 q 326 549 326 510 l 388 549 m 388 629 l 326 629 q 299 697 326 669 q 231 724 272 724 l 231 781 q 310 761 275 781 q 367 707 346 742 q 388 629 388 672 m 135 928 l 76 940 q 127 1031 83 994 q 232 1068 171 1068 l 232 1010 q 167 990 194 1010 q 135 928 140 971 m 135 538 q 167 476 140 496 q 232 456 194 456 l 232 397 q 127 434 171 397 q 76 525 83 471 l 135 538 m 394 -21 l 826 1099 l 889 1099 l 457 -21 l 394 -21 m 1079 204 q 1053 283 1079 254 q 982 311 1028 311 l 982 368 q 1097 324 1056 368 q 1139 204 1139 281 l 1079 204 m 982 -14 q 867 30 908 -14 q 826 151 826 74 l 886 151 q 912 72 886 100 q 982 44 938 44 l 982 -14 m 826 151 l 826 204 l 886 204 l 886 151 l 826 151 m 982 -14 l 982 44 q 1053 72 1028 44 q 1079 151 1079 100 l 1139 151 q 1097 30 1139 74 q 982 -14 1056 -14 m 826 204 q 867 324 826 281 q 982 368 908 368 l 982 311 q 912 283 938 311 q 886 204 886 254 l 826 204 m 1079 151 l 1079 204 l 1139 204 l 1139 151 l 1079 151 m 982 311 q 875 353 915 311 q 835 467 835 396 l 894 467 q 917 393 894 418 q 982 368 939 368 l 982 311 m 835 467 l 835 500 l 894 500 l 894 467 l 835 467 m 982 311 l 982 368 q 1049 393 1026 368 q 1071 467 1071 418 l 1131 467 q 1090 353 1131 396 q 982 311 1049 311 m 835 500 q 875 613 835 569 q 982 656 915 656 l 982 597 q 917 572 939 597 q 894 500 894 547 l 835 500 m 1071 467 l 1071 500 l 1131 500 l 1131 467 l 1071 467 m 1071 500 q 1049 572 1071 547 q 982 597 1026 597 l 982 656 q 1090 613 1049 656 q 1131 500 1131 569 l 1071 500 z "},"⅝":{"ha":1214,"x_min":76,"x_max":1138,"o":"m 85 683 l 85 1054 l 146 1054 l 146 683 l 85 683 m 326 563 l 326 683 l 386 683 l 386 563 l 326 563 m 85 993 l 85 1054 l 372 1054 l 372 993 l 85 993 m 326 682 q 299 751 326 724 q 231 779 271 779 l 235 835 q 313 815 278 835 q 367 760 347 794 q 386 682 386 725 l 326 682 m 101 683 q 140 791 101 747 q 235 835 178 835 l 232 779 q 170 751 194 779 q 146 683 146 724 l 101 683 m 386 563 q 366 478 386 515 q 310 419 346 442 q 229 397 275 397 l 229 456 q 301 484 275 456 q 326 563 326 513 l 386 563 m 135 538 q 167 476 139 496 q 231 456 194 456 l 231 397 q 127 434 171 397 q 76 525 83 471 l 135 538 m 393 -21 l 825 1099 l 888 1099 l 456 -21 l 393 -21 m 1078 204 q 1052 283 1078 254 q 981 311 1026 311 l 981 368 q 1096 324 1054 368 q 1138 204 1138 281 l 1078 204 m 981 -14 q 866 30 907 -14 q 825 151 825 74 l 885 151 q 910 72 885 100 q 981 44 936 44 l 981 -14 m 825 151 l 825 204 l 885 204 l 885 151 l 825 151 m 981 -14 l 981 44 q 1052 72 1026 44 q 1078 151 1078 100 l 1138 151 q 1096 30 1138 74 q 981 -14 1054 -14 m 825 204 q 866 324 825 281 q 981 368 907 368 l 981 311 q 910 283 936 311 q 885 204 885 254 l 825 204 m 1078 151 l 1078 204 l 1138 204 l 1138 151 l 1078 151 m 981 311 q 874 353 914 311 q 833 467 833 396 l 893 467 q 915 393 893 418 q 981 368 938 368 l 981 311 m 833 467 l 833 500 l 893 500 l 893 467 l 833 467 m 981 311 l 981 368 q 1047 393 1025 368 q 1069 467 1069 418 l 1129 467 q 1088 353 1129 396 q 981 311 1047 311 m 833 500 q 874 613 833 569 q 981 656 914 656 l 981 597 q 915 572 938 597 q 893 500 893 547 l 833 500 m 1069 467 l 1069 500 l 1129 500 l 1129 467 l 1069 467 m 1069 500 q 1047 572 1069 547 q 981 597 1025 597 l 981 656 q 1088 613 1047 656 q 1129 500 1129 569 l 1069 500 z "},"⅞":{"ha":1071,"x_min":76,"x_max":994,"o":"m 135 413 l 336 993 l 396 993 l 196 413 l 135 413 m 76 993 l 76 1054 l 396 1054 l 396 993 l 76 993 m 250 -21 l 682 1099 l 744 1099 l 313 -21 l 250 -21 m 935 204 q 909 283 935 254 q 838 311 883 311 l 838 368 q 953 324 911 368 q 994 204 994 281 l 935 204 m 838 -14 q 723 30 764 -14 q 682 151 682 74 l 742 151 q 767 72 742 100 q 838 44 793 44 l 838 -14 m 682 151 l 682 204 l 742 204 l 742 151 l 682 151 m 838 -14 l 838 44 q 909 72 883 44 q 935 151 935 100 l 994 151 q 953 30 994 74 q 838 -14 911 -14 m 682 204 q 723 324 682 281 q 838 368 764 368 l 838 311 q 767 283 793 311 q 742 204 742 254 l 682 204 m 935 151 l 935 204 l 994 204 l 994 151 l 935 151 m 838 311 q 731 353 771 311 q 690 467 690 396 l 750 467 q 772 393 750 418 q 838 368 794 368 l 838 311 m 690 467 l 690 500 l 750 500 l 750 467 l 690 467 m 838 311 l 838 368 q 904 393 882 368 q 926 467 926 418 l 986 467 q 945 353 986 396 q 838 311 904 311 m 690 500 q 731 613 690 569 q 838 656 771 656 l 838 597 q 772 572 794 597 q 750 500 750 547 l 690 500 m 926 467 l 926 500 l 986 500 l 986 467 l 926 467 m 926 500 q 904 572 926 547 q 838 597 882 597 l 838 656 q 945 613 904 656 q 986 500 986 569 l 926 500 z "},"०":{"ha":544,"x_min":35,"x_max":510,"o":"m 422 313 l 422 563 l 510 563 l 510 313 l 422 313 m 35 313 l 35 563 l 122 563 l 122 313 l 35 313 m 35 563 q 63 697 35 642 q 145 783 92 753 q 272 813 199 813 l 272 729 q 162 685 201 729 q 122 563 122 640 l 35 563 m 510 563 l 422 563 q 383 685 422 640 q 272 729 343 729 l 272 813 q 400 783 347 813 q 481 697 453 753 q 510 563 510 642 m 35 313 l 122 313 q 162 190 122 235 q 272 146 201 146 l 272 63 q 145 92 199 63 q 63 178 92 122 q 35 313 35 235 m 510 313 q 481 178 510 235 q 400 92 453 122 q 272 63 347 63 l 272 146 q 383 190 343 146 q 422 313 422 235 l 510 313 z "},"१":{"ha":392,"x_min":0,"x_max":357,"o":"m 208 221 q 219 382 208 300 q 240 550 229 464 q 250 729 250 636 l 333 729 q 323 550 333 636 q 302 382 313 464 q 292 221 292 300 l 208 221 m 153 554 q 40 613 81 565 q 0 728 0 660 l 83 728 q 108 664 83 688 q 167 633 132 640 l 153 554 m 313 0 q 235 98 261 43 q 208 221 208 153 l 292 221 q 308 135 292 174 q 357 67 324 97 l 313 0 m 0 728 q 22 813 0 774 q 81 877 43 853 q 167 901 119 901 l 167 822 q 108 795 132 822 q 83 728 83 768 l 0 728 m 250 728 q 228 797 250 772 q 167 822 207 822 l 167 901 q 289 856 244 901 q 333 728 333 810 l 250 728 z "},"२":{"ha":525,"x_min":31,"x_max":490,"o":"m 89 721 l 49 792 q 139 853 89 832 q 239 875 189 875 l 239 792 q 162 773 201 792 q 89 721 122 754 m 407 572 q 387 690 407 642 q 329 765 367 739 q 239 792 292 792 l 239 875 q 374 839 318 875 q 460 735 431 803 q 490 572 490 668 l 407 572 m 76 265 l 108 343 q 263 325 196 303 q 369 414 331 347 q 407 574 407 481 l 490 574 q 459 407 490 481 q 372 288 428 333 q 240 235 315 243 q 76 265 164 226 m 328 -26 l 140 289 l 217 338 l 404 26 l 328 -26 m 60 282 l 131 324 q 175 293 147 297 q 236 308 203 289 l 269 251 q 146 220 201 213 q 60 282 90 228 m 35 407 l 128 413 q 131 324 117 350 l 60 282 q 35 407 31 333 m 35 407 l 171 421 l 244 293 l 172 251 l 35 407 z "},"३":{"ha":517,"x_min":35,"x_max":482,"o":"m 378 660 q 340 766 378 724 q 244 808 301 808 l 244 896 q 360 865 310 896 q 440 781 411 833 q 469 660 469 728 l 378 660 m 267 44 l 267 128 q 358 165 322 128 q 394 258 394 203 l 482 258 q 454 149 482 197 q 378 72 426 100 q 267 44 329 44 m 188 424 l 201 511 l 244 511 l 244 424 l 188 424 m 122 667 l 35 681 q 63 792 35 743 q 138 868 90 840 q 244 896 185 896 l 244 808 q 158 768 193 808 q 122 667 122 728 m 482 257 l 394 257 q 355 379 394 335 q 244 424 315 424 l 244 507 q 372 477 319 507 q 453 392 425 447 q 482 257 482 336 m 469 660 q 440 540 469 593 q 360 455 411 486 q 244 424 310 424 l 244 511 q 340 553 301 511 q 378 660 378 596 l 469 660 m 268 44 q 199 54 229 44 q 131 86 168 64 l 144 169 q 210 138 182 147 q 268 128 238 128 l 268 44 m 244 -119 l 69 192 l 144 233 l 321 -75 l 244 -119 m 36 194 l 119 194 q 142 146 119 164 q 203 128 164 128 l 203 63 q 81 97 125 63 q 36 194 36 132 m 78 314 l 161 272 q 119 194 119 224 l 36 194 q 78 314 36 253 m 78 314 l 203 258 l 203 111 l 119 111 l 78 314 z "},"४":{"ha":544,"x_min":35,"x_max":510,"o":"m 272 401 l 272 485 q 383 529 343 485 q 422 651 422 574 l 510 651 q 481 517 510 574 q 400 431 453 461 q 272 401 347 401 m 272 0 q 158 32 208 0 q 78 119 107 64 q 49 243 49 174 l 136 243 q 175 129 136 175 q 272 83 214 83 l 272 0 m 272 0 l 272 83 q 369 129 331 83 q 408 243 408 175 l 496 243 q 467 119 496 174 q 387 32 438 64 q 272 0 336 0 m 49 242 q 78 366 49 311 q 158 453 107 421 q 272 485 208 485 l 272 401 q 175 356 214 401 q 136 242 136 311 l 49 242 m 272 401 q 145 431 199 401 q 63 517 92 461 q 35 651 35 574 l 122 651 q 162 529 122 574 q 272 485 201 485 l 272 401 m 408 242 q 369 356 408 311 q 272 401 331 401 l 272 485 q 387 453 336 485 q 467 366 438 421 q 496 242 496 311 l 408 242 m 35 649 q 42 724 35 681 q 63 808 49 767 q 96 875 76 850 l 175 849 q 147 783 158 821 q 128 708 135 744 q 122 649 122 671 l 35 649 m 422 649 q 416 708 422 671 q 398 783 410 744 q 369 849 386 821 l 449 875 q 482 808 468 850 q 503 724 496 767 q 510 649 510 681 l 422 649 z "},"५":{"ha":499,"x_min":35,"x_max":465,"o":"m 35 693 l 35 875 l 122 875 l 122 693 l 35 693 m 376 285 l 376 875 l 464 875 l 464 285 l 376 285 m 265 44 l 265 128 q 325 147 300 128 q 363 201 350 165 q 376 286 376 236 l 464 286 q 413 108 465 172 q 265 44 360 44 m 122 694 q 155 556 122 606 q 244 507 188 507 l 239 424 q 129 456 175 424 q 59 549 83 488 q 35 694 35 610 l 122 694 m 444 653 q 417 535 444 588 q 344 453 390 483 q 239 424 299 424 l 244 507 q 340 549 301 507 q 378 653 378 590 l 444 653 m 35 194 l 118 194 q 140 146 118 164 q 201 128 163 128 l 201 63 q 79 97 124 63 q 35 194 35 132 m 76 314 l 160 272 q 118 194 118 224 l 35 194 q 76 314 35 253 m 76 314 l 201 258 l 201 111 l 118 111 l 76 314 m 267 44 q 197 54 228 44 q 129 86 167 64 l 143 169 q 208 138 181 147 q 267 128 236 128 l 267 44 m 243 -119 l 68 192 l 143 233 l 319 -75 l 243 -119 z "},"६":{"ha":531,"x_min":35,"x_max":503,"o":"m 264 31 q 147 58 199 31 q 65 135 94 86 q 35 244 35 183 l 122 244 q 163 151 122 189 q 264 114 204 114 l 264 31 m 272 424 q 157 455 208 424 q 76 540 106 486 q 47 660 47 593 l 139 660 q 177 553 139 596 q 272 511 215 511 l 272 424 m 35 243 l 35 257 l 122 257 l 122 243 l 35 243 m 272 424 l 272 511 l 315 511 l 329 424 l 272 424 m 394 667 q 360 768 394 728 q 272 808 325 808 l 272 896 q 379 868 332 896 q 454 792 426 840 q 482 681 482 743 l 394 667 m 35 257 q 63 392 35 336 q 145 477 92 447 q 272 507 199 507 l 272 424 q 162 379 201 424 q 122 257 122 335 l 35 257 m 47 660 q 76 781 47 728 q 157 865 106 833 q 272 896 208 896 l 272 808 q 177 766 215 808 q 139 660 139 724 l 47 660 m 411 -104 l 314 268 l 397 293 l 496 -78 l 411 -104 m 264 31 l 264 114 q 323 124 296 114 q 388 156 350 133 l 401 72 q 333 40 364 50 q 264 31 303 31 m 486 258 q 469 153 503 199 q 360 89 435 108 l 343 151 q 397 184 381 161 q 406 238 414 207 l 486 258 m 415 364 q 486 258 472 315 l 406 238 q 346 301 399 265 l 415 364 m 415 364 l 428 157 l 347 135 l 310 278 l 415 364 z "},"७":{"ha":589,"x_min":35,"x_max":554,"o":"m 310 25 q 170 81 232 25 q 72 233 108 136 q 35 451 36 329 l 126 451 q 140 317 126 379 q 179 210 154 256 q 238 138 204 164 q 310 113 271 113 l 310 25 m 310 25 l 310 113 q 371 134 342 113 q 422 194 400 156 q 458 286 444 233 q 471 400 471 339 l 554 400 q 521 208 554 293 q 432 74 488 124 q 310 25 376 25 m 35 451 q 47 589 35 522 q 83 720 58 656 q 144 847 108 785 l 233 814 q 152 635 178 725 q 126 451 126 546 l 35 451 m 471 399 q 448 488 471 456 q 385 521 425 521 l 385 600 q 472 574 433 600 q 532 502 510 547 q 554 399 554 457 l 471 399 m 275 308 q 243 379 251 353 q 235 444 235 406 l 318 444 q 326 393 318 418 q 356 328 333 368 l 275 308 m 235 444 q 254 524 235 489 q 308 580 274 560 q 385 600 342 600 l 385 521 q 338 499 357 521 q 318 444 318 476 l 235 444 z "},"८":{"ha":538,"x_min":25,"x_max":503,"o":"m 161 347 l 75 367 l 301 867 l 389 846 l 161 347 m 297 25 q 115 69 182 25 q 37 190 49 113 q 75 367 25 267 l 161 347 q 128 219 125 272 q 175 137 132 165 q 297 108 218 108 l 297 25 m 297 25 l 297 108 q 364 112 329 108 q 434 122 399 115 q 503 136 469 128 l 503 53 q 435 38 472 44 q 363 28 399 32 q 297 25 326 25 z "},"९":{"ha":472,"x_min":35,"x_max":438,"o":"m 350 221 q 318 298 350 263 q 240 370 286 333 q 146 451 193 407 q 67 551 99 494 q 35 685 35 608 l 122 685 q 145 589 122 631 q 203 513 168 547 q 280 447 239 478 q 356 382 321 415 q 415 310 392 349 q 438 221 438 271 l 350 221 m 343 0 l 278 65 q 306 103 289 78 q 337 160 324 129 q 350 221 350 192 l 438 221 q 422 138 438 181 q 385 58 407 94 q 343 0 364 22 m 35 685 q 60 794 35 747 q 130 869 85 842 q 233 896 175 896 l 233 813 q 152 779 182 813 q 122 685 122 746 l 35 685 m 256 544 l 233 626 q 302 651 278 626 q 326 719 326 676 l 414 719 q 394 636 414 674 q 338 574 374 599 q 256 544 303 550 m 326 719 q 302 788 326 764 q 233 813 278 813 l 233 896 q 327 873 286 896 q 391 810 368 850 q 414 719 414 771 l 326 719 z "},".":{"ha":276,"x_min":69,"x_max":207,"o":"m 138 0 q 89 19 108 0 q 69 68 69 39 q 89 117 69 97 q 138 138 108 138 q 187 117 167 138 q 207 68 207 97 q 187 19 207 39 q 138 0 167 0 z "},",":{"ha":282,"x_min":69,"x_max":213,"o":"m 69 -99 q 99 -54 86 -74 q 119 -16 111 -35 q 131 24 126 3 q 135 74 135 46 l 213 88 q 202 10 213 46 q 172 -59 192 -25 q 128 -131 153 -93 l 69 -99 m 143 19 q 94 39 114 19 q 75 88 75 58 q 94 137 75 117 q 143 157 114 157 q 192 137 172 157 q 213 88 213 117 q 192 39 213 58 q 143 19 172 19 z "},":":{"ha":347,"x_min":139,"x_max":278,"o":"m 207 57 q 158 76 178 57 q 139 125 139 96 q 158 174 139 154 q 207 194 178 194 q 256 174 236 194 q 276 125 276 154 q 256 76 276 96 q 207 57 236 57 m 208 506 q 160 525 179 506 q 140 574 140 544 q 160 623 140 603 q 208 643 179 643 q 258 623 238 643 q 278 574 278 603 q 258 525 278 544 q 208 506 238 506 z "},";":{"ha":367,"x_min":139,"x_max":297,"o":"m 207 506 q 158 525 178 506 q 139 574 139 544 q 158 623 139 603 q 207 643 178 643 q 256 623 236 643 q 276 574 276 603 q 256 525 276 544 q 207 506 236 506 m 154 -99 q 183 -54 171 -74 q 203 -16 196 -35 q 215 24 211 3 q 219 74 219 46 l 297 88 q 287 10 297 46 q 257 -59 276 -25 q 213 -131 238 -93 l 154 -99 m 228 19 q 179 39 199 19 q 160 88 160 58 q 179 137 160 117 q 228 157 199 157 q 277 137 257 157 q 297 88 297 117 q 277 39 297 58 q 228 19 257 19 z "},"…":{"ha":721,"x_min":69,"x_max":651,"o":"m 360 0 q 311 19 331 0 q 292 68 292 39 q 311 117 292 97 q 360 138 331 138 q 409 117 389 138 q 429 68 429 97 q 409 19 429 39 q 360 0 389 0 m 138 0 q 89 19 108 0 q 69 68 69 39 q 89 117 69 97 q 138 138 108 138 q 187 117 167 138 q 207 68 207 97 q 187 19 207 39 q 138 0 167 0 m 582 0 q 533 19 553 0 q 514 68 514 39 q 533 117 514 97 q 582 138 553 138 q 631 117 611 138 q 651 68 651 97 q 631 19 651 39 q 582 0 611 0 z "},"!":{"ha":276,"x_min":69,"x_max":207,"o":"m 100 286 l 92 972 l 183 972 l 175 286 l 100 286 m 138 0 q 89 19 108 0 q 69 68 69 39 q 89 117 69 97 q 138 138 108 138 q 187 117 167 138 q 207 68 207 97 q 187 19 207 39 q 138 0 167 0 z "},"¡":{"ha":276,"x_min":69,"x_max":207,"o":"m 138 972 q 187 953 167 972 q 207 904 207 933 q 187 855 207 875 q 138 835 167 835 q 89 855 108 835 q 69 904 69 875 q 89 953 69 933 q 138 972 108 972 m 100 686 l 175 686 l 183 0 l 92 0 l 100 686 z "},"?":{"ha":576,"x_min":49,"x_max":507,"o":"m 208 256 q 230 404 208 343 q 283 510 251 465 q 345 592 314 554 q 398 668 376 629 q 419 757 419 707 q 381 868 419 831 q 264 906 342 906 q 196 892 224 906 q 154 851 168 878 q 140 785 140 825 l 49 785 q 76 894 49 847 q 151 967 103 942 q 264 993 200 993 q 392 964 338 993 q 476 881 446 935 q 507 757 507 828 q 485 654 507 697 q 433 574 464 611 q 370 494 401 536 q 317 394 339 451 q 296 256 296 338 l 208 256 m 208 224 l 208 256 l 296 256 l 296 224 l 208 224 m 251 0 q 203 19 222 0 q 183 68 183 39 q 203 117 183 97 q 251 138 222 138 q 301 117 281 138 q 321 68 321 97 q 301 19 321 39 q 251 0 281 0 z "},"¿":{"ha":576,"x_min":69,"x_max":528,"o":"m 325 972 q 374 953 354 972 q 393 904 393 933 q 374 855 393 875 q 325 835 354 835 q 276 855 296 835 q 256 904 256 875 q 276 953 256 933 q 325 972 296 972 m 368 717 q 347 568 368 629 q 294 463 325 507 q 231 381 263 418 q 178 304 200 343 q 157 215 157 265 q 197 105 157 143 q 313 67 236 67 q 381 81 353 67 q 422 122 408 94 q 436 188 436 149 l 528 188 q 501 78 528 125 q 426 6 474 32 q 313 -21 378 -21 q 185 9 240 -21 q 100 92 131 39 q 69 215 69 144 q 91 318 69 275 q 144 399 113 361 q 206 478 175 436 q 259 578 238 521 q 281 717 281 635 l 368 717 m 368 749 l 368 717 l 281 717 l 281 749 l 368 749 z "},"·":{"ha":276,"x_min":69,"x_max":207,"o":"m 138 417 q 89 436 108 417 q 69 485 69 456 q 89 534 69 514 q 138 554 108 554 q 187 534 167 554 q 207 485 207 514 q 187 436 207 456 q 138 417 167 417 z "},"•":{"ha":414,"x_min":69,"x_max":344,"o":"m 206 346 q 108 385 147 346 q 69 482 69 424 q 88 552 69 521 q 136 602 106 583 q 206 621 167 621 q 276 602 244 621 q 326 552 307 583 q 344 482 344 521 q 326 413 344 443 q 276 364 307 382 q 206 346 244 346 z "},"*":{"ha":517,"x_min":69,"x_max":447,"o":"m 406 665 l 238 763 l 69 860 l 111 932 l 279 835 l 447 738 l 406 665 m 111 665 l 69 738 l 238 835 l 406 932 l 447 860 l 279 763 l 111 665 m 217 604 l 217 799 l 217 993 l 300 993 l 300 799 l 300 604 l 217 604 z "},"#":{"ha":829,"x_min":69,"x_max":760,"o":"m 397 43 l 594 876 l 686 876 l 489 43 l 397 43 m 69 286 l 88 378 l 699 378 l 681 286 l 69 286 m 136 43 l 333 876 l 425 876 l 228 43 l 136 43 m 131 540 l 149 632 l 760 632 l 742 540 l 131 540 z "},"/":{"ha":444,"x_min":35,"x_max":410,"o":"m 35 0 l 314 972 l 410 972 l 131 0 l 35 0 z "},"\\":{"ha":444,"x_min":35,"x_max":410,"o":"m 410 0 l 314 0 l 35 972 l 131 972 l 410 0 z "},"(":{"ha":332,"x_min":69,"x_max":332,"o":"m 240 -167 q 69 465 69 144 q 240 1097 69 786 l 332 1097 q 183 465 183 786 q 332 -167 183 144 l 240 -167 z "},")":{"ha":332,"x_min":0,"x_max":263,"o":"m 92 -167 l 0 -167 q 149 465 149 144 q 0 1097 149 786 l 92 1097 q 263 465 263 786 q 92 -167 263 144 z "},"{":{"ha":453,"x_min":69,"x_max":453,"o":"m 215 653 l 215 853 l 307 853 l 307 653 l 215 653 m 215 42 l 215 242 l 307 242 l 307 42 l 215 42 m 215 853 q 247 981 215 925 q 331 1070 278 1038 q 453 1103 385 1103 l 453 1015 q 346 973 385 1015 q 307 853 307 931 l 215 853 m 215 42 l 307 42 q 346 -78 307 -35 q 453 -121 385 -121 l 453 -208 q 331 -176 385 -208 q 247 -86 278 -143 q 215 42 215 -29 m 307 653 q 276 525 307 582 q 191 435 244 468 q 69 403 138 403 l 69 490 q 177 533 139 490 q 215 653 215 576 l 307 653 m 307 242 l 215 242 q 177 362 215 319 q 69 404 139 404 l 69 492 q 191 459 138 492 q 276 370 244 426 q 307 242 307 314 z "},"}":{"ha":453,"x_min":0,"x_max":383,"o":"m 238 653 l 146 653 l 146 853 l 238 853 l 238 653 m 238 42 l 146 42 l 146 242 l 238 242 l 238 42 m 238 853 l 146 853 q 108 973 146 931 q 0 1015 69 1015 l 0 1103 q 122 1070 68 1103 q 206 981 175 1038 q 238 853 238 925 m 238 42 q 206 -86 238 -29 q 122 -176 175 -143 q 0 -208 68 -208 l 0 -121 q 108 -78 69 -121 q 146 42 146 -35 l 238 42 m 146 653 l 238 653 q 276 533 238 576 q 383 490 315 490 l 383 403 q 262 435 315 403 q 177 525 208 468 q 146 653 146 582 m 146 242 q 177 370 146 314 q 262 459 208 426 q 383 492 315 492 l 383 404 q 276 362 315 404 q 238 242 238 319 l 146 242 z "},"[":{"ha":375,"x_min":69,"x_max":375,"o":"m 69 -167 l 69 1097 l 161 1097 l 161 -167 l 69 -167 m 69 -167 l 69 -75 l 375 -75 l 375 -167 l 69 -167 m 69 1006 l 69 1097 l 375 1097 l 375 1006 l 69 1006 z "},"]":{"ha":375,"x_min":0,"x_max":306,"o":"m 306 -167 l 214 -167 l 214 1097 l 306 1097 l 306 -167 m 306 -167 l 0 -167 l 0 -75 l 306 -75 l 306 -167 m 306 1006 l 0 1006 l 0 1097 l 306 1097 l 306 1006 z "},"-":{"ha":514,"x_min":69,"x_max":444,"o":"m 69 399 l 69 490 l 444 490 l 444 399 l 69 399 z "},"­":{"ha":514,"x_min":69,"x_max":444,"o":"m 69 399 l 69 490 l 444 490 l 444 399 l 69 399 z "},"–":{"ha":589,"x_min":69,"x_max":519,"o":"m 69 399 l 69 490 l 519 490 l 519 399 l 69 399 z "},"—":{"ha":814,"x_min":69,"x_max":744,"o":"m 69 399 l 69 490 l 744 490 l 744 399 l 69 399 z "},"_":{"ha":589,"x_min":69,"x_max":519,"o":"m 69 -42 l 69 50 l 519 50 l 519 -42 l 69 -42 z "},"‚":{"ha":282,"x_min":69,"x_max":213,"o":"m 69 -99 q 99 -54 86 -74 q 119 -16 111 -35 q 131 24 126 3 q 135 74 135 46 l 213 88 q 202 10 213 46 q 172 -59 192 -25 q 128 -131 153 -93 l 69 -99 m 143 19 q 94 39 114 19 q 75 88 75 58 q 94 137 75 117 q 143 157 114 157 q 192 137 172 157 q 213 88 213 117 q 192 39 213 58 q 143 19 172 19 z "},"„":{"ha":475,"x_min":69,"x_max":406,"o":"m 263 -99 q 292 -54 279 -74 q 312 -16 304 -35 q 324 24 319 3 q 328 74 328 46 l 406 88 q 395 10 406 46 q 365 -59 385 -25 q 321 -131 346 -93 l 263 -99 m 336 19 q 288 39 307 19 q 268 88 268 58 q 288 137 268 117 q 336 157 307 157 q 385 137 365 157 q 406 88 406 117 q 385 39 406 58 q 336 19 365 19 m 69 -99 q 99 -54 86 -74 q 119 -16 111 -35 q 131 24 126 3 q 135 74 135 46 l 213 88 q 202 10 213 46 q 172 -59 192 -25 q 128 -131 153 -93 l 69 -99 m 143 19 q 94 39 114 19 q 75 88 75 58 q 94 137 75 117 q 143 157 114 157 q 192 137 172 157 q 213 88 213 117 q 192 39 213 58 q 143 19 172 19 z "},"“":{"ha":504,"x_min":83,"x_max":421,"o":"m 153 836 q 201 817 182 836 q 221 768 221 797 q 201 719 221 739 q 153 699 182 699 q 103 719 124 699 q 83 768 83 739 q 103 817 83 797 q 153 836 124 836 m 226 954 q 197 910 210 929 q 177 872 185 890 q 165 831 169 853 q 161 782 161 810 l 83 768 q 94 846 83 811 q 124 915 106 881 q 168 986 143 949 l 226 954 m 347 836 q 396 817 376 836 q 415 768 415 797 q 396 719 415 739 q 347 699 376 699 q 298 719 318 699 q 278 768 278 739 q 298 817 278 797 q 347 836 318 836 m 421 954 q 392 910 404 929 q 372 872 379 890 q 360 831 364 853 q 356 782 356 810 l 278 768 q 289 846 278 811 q 319 915 300 881 q 363 986 338 949 l 421 954 z "},"”":{"ha":504,"x_min":83,"x_max":421,"o":"m 278 731 q 307 775 294 756 q 327 813 319 794 q 339 853 335 832 q 343 903 343 875 l 421 917 q 410 840 421 875 q 381 770 400 804 q 336 699 361 736 l 278 731 m 351 849 q 303 868 322 849 q 283 917 283 888 q 303 966 283 946 q 351 986 322 986 q 401 966 381 986 q 421 917 421 946 q 401 868 421 888 q 351 849 381 849 m 83 731 q 113 775 100 756 q 133 813 125 794 q 144 853 140 832 q 149 903 149 875 l 226 917 q 216 840 226 875 q 186 770 206 804 q 142 699 167 736 l 83 731 m 157 849 q 108 868 128 849 q 89 917 89 888 q 108 966 89 946 q 157 986 128 986 q 206 966 186 986 q 226 917 226 946 q 206 868 226 888 q 157 849 186 849 z "},"‘":{"ha":310,"x_min":83,"x_max":226,"o":"m 153 847 q 201 828 182 847 q 221 779 221 808 q 201 730 221 750 q 153 710 182 710 q 103 730 124 710 q 83 779 83 750 q 103 828 83 808 q 153 847 124 847 m 226 965 q 197 921 210 940 q 177 883 185 901 q 165 842 169 864 q 161 793 161 821 l 83 779 q 94 857 83 822 q 124 926 106 892 q 168 997 143 960 l 226 965 z "},"’":{"ha":310,"x_min":83,"x_max":226,"o":"m 83 728 q 113 772 100 753 q 133 810 125 792 q 144 851 140 829 q 149 900 149 872 l 226 914 q 216 837 226 872 q 186 767 206 801 q 142 696 167 733 l 83 728 m 157 846 q 108 865 128 846 q 89 914 89 885 q 108 963 89 943 q 157 983 128 983 q 206 963 186 983 q 226 914 226 943 q 206 865 226 885 q 157 846 186 846 z "},"«":{"ha":671,"x_min":28,"x_max":643,"o":"m 101 283 l 101 406 l 379 650 l 379 536 l 101 283 m 101 283 l 28 344 l 101 406 l 101 283 m 379 39 l 101 283 l 101 406 l 379 153 l 379 39 m 365 283 l 365 406 l 643 650 l 643 536 l 365 283 m 365 283 l 292 344 l 365 406 l 365 283 m 643 39 l 365 283 l 365 406 l 643 153 l 643 39 z "},"»":{"ha":671,"x_min":28,"x_max":643,"o":"m 569 283 l 292 536 l 292 650 l 569 406 l 569 283 m 569 283 l 569 406 l 643 344 l 569 283 m 292 39 l 292 153 l 569 406 l 569 283 l 292 39 m 306 283 l 28 536 l 28 650 l 306 406 l 306 283 m 306 283 l 306 406 l 379 344 l 306 283 m 28 39 l 28 153 l 306 406 l 306 283 l 28 39 z "},"‹":{"ha":407,"x_min":28,"x_max":379,"o":"m 101 283 l 101 406 l 379 650 l 379 536 l 101 283 m 101 283 l 28 344 l 101 406 l 101 283 m 379 39 l 101 283 l 101 406 l 379 153 l 379 39 z "},"›":{"ha":407,"x_min":28,"x_max":379,"o":"m 306 283 l 28 536 l 28 650 l 306 406 l 306 283 m 306 283 l 306 406 l 379 344 l 306 283 m 28 39 l 28 153 l 306 406 l 306 283 l 28 39 z "},"\"":{"ha":385,"x_min":83,"x_max":301,"o":"m 226 694 l 210 993 l 301 993 l 285 694 l 226 694 m 100 694 l 83 993 l 175 993 l 158 694 l 100 694 z "},"'":{"ha":258,"x_min":83,"x_max":175,"o":"m 100 694 l 83 993 l 175 993 l 158 694 l 100 694 z "},"ॽ":{"ha":597,"x_min":69,"x_max":528,"o":"m 229 256 q 251 404 229 343 q 303 510 272 465 q 366 592 335 554 q 419 668 397 629 q 440 757 440 707 q 401 868 440 831 q 285 906 363 906 q 217 892 244 906 q 175 851 189 878 q 161 785 161 825 l 69 785 q 97 894 69 847 q 172 967 124 942 q 285 993 221 993 q 413 964 358 993 q 497 881 467 935 q 528 757 528 828 q 506 654 528 697 q 453 574 485 611 q 391 494 422 536 q 338 394 360 451 q 317 256 317 338 l 229 256 m 229 71 l 229 256 l 317 256 l 317 71 l 229 71 z "},"।":{"ha":425,"x_min":250,"x_max":342,"o":"m 250 -42 l 250 931 l 342 931 l 342 -42 l 250 -42 z "},"॥":{"ha":683,"x_min":250,"x_max":600,"o":"m 508 -42 l 508 931 l 600 931 l 600 -42 l 508 -42 m 250 -42 l 250 931 l 342 931 l 342 -42 l 250 -42 z "},"॰":{"ha":508,"x_min":35,"x_max":474,"o":"m 253 267 l 253 357 q 347 394 310 357 q 383 488 383 431 l 474 488 q 444 375 474 425 q 365 296 415 325 q 253 267 315 267 m 253 267 q 141 296 190 267 q 63 375 92 325 q 35 488 35 425 l 125 488 q 162 394 125 431 q 253 357 199 357 l 253 267 m 35 488 q 63 599 35 550 q 141 677 92 649 q 253 706 190 706 l 253 615 q 162 578 199 615 q 125 488 125 542 l 35 488 m 383 488 q 347 578 383 542 q 253 615 310 615 l 253 706 q 365 677 315 706 q 444 599 415 649 q 474 488 474 550 l 383 488 z "}," ":{"ha":250,"x_min":0,"x_max":0,"o":""}," ":{"ha":250,"x_min":0,"x_max":0,"o":""},"¢":{"ha":518,"x_min":63,"x_max":486,"o":"m 239 7 l 239 197 l 313 197 l 313 7 l 239 7 m 238 736 l 238 926 l 311 926 l 311 736 l 238 736 m 63 360 l 63 576 l 144 576 l 144 360 l 63 360 m 63 575 q 90 691 63 640 q 166 771 118 742 q 275 800 214 800 l 275 722 q 179 683 214 722 q 144 575 144 644 l 63 575 m 406 610 q 361 695 399 668 q 275 722 324 722 l 275 800 q 374 777 329 800 q 449 715 419 754 q 486 626 479 676 l 406 610 m 63 361 l 144 361 q 179 253 144 292 q 275 214 214 214 l 275 136 q 166 165 214 136 q 90 245 118 194 q 63 361 63 296 m 406 326 l 486 310 q 449 221 479 260 q 374 159 419 182 q 275 136 329 136 l 275 214 q 361 241 324 214 q 406 326 399 268 z "},"¤":{"ha":688,"x_min":69,"x_max":618,"o":"m 472 553 l 411 615 l 557 761 l 618 699 l 472 553 m 131 211 l 69 274 l 215 419 l 276 357 l 131 211 m 215 553 l 69 699 l 131 761 l 276 615 l 215 553 m 557 211 l 411 357 l 472 419 l 618 274 l 557 211 m 346 283 l 346 367 q 431 401 397 367 q 465 486 465 435 l 549 486 q 522 383 549 429 q 450 310 496 336 q 346 283 404 283 m 346 283 q 242 310 288 283 q 171 383 197 336 q 144 486 144 429 l 226 486 q 260 401 226 435 q 346 367 294 367 l 346 283 m 144 486 q 171 590 144 544 q 242 663 197 636 q 346 689 288 689 l 346 606 q 260 572 294 606 q 226 486 226 538 l 144 486 m 465 486 q 431 572 465 538 q 346 606 397 606 l 346 689 q 450 663 404 689 q 522 590 496 636 q 549 486 549 544 l 465 486 z "},"$":{"ha":622,"x_min":49,"x_max":574,"o":"m 272 921 l 272 1111 l 346 1111 l 346 921 l 272 921 m 272 -140 l 272 50 l 346 50 l 346 -140 l 272 -140 m 479 213 q 451 307 479 265 q 377 386 422 349 q 281 461 332 424 q 184 542 229 499 q 110 638 139 585 q 82 760 82 692 l 174 760 q 202 666 174 708 q 276 586 231 624 q 372 511 321 549 q 469 431 424 474 q 542 335 514 388 q 571 213 571 282 l 479 213 m 82 757 q 114 885 82 832 q 204 965 146 938 q 339 993 263 993 l 339 906 q 217 866 261 906 q 174 757 174 826 l 82 757 m 571 215 q 539 88 571 140 q 449 7 507 35 q 314 -21 392 -21 l 314 67 q 435 106 392 67 q 479 215 479 146 l 571 215 m 485 781 q 436 876 478 846 q 339 906 394 906 l 339 993 q 451 967 400 993 q 534 899 501 942 q 574 800 567 856 l 485 781 m 133 260 q 190 118 143 169 q 314 67 238 67 l 314 -21 q 134 49 204 -21 q 49 242 64 118 l 133 260 z "},"€":{"ha":713,"x_min":83,"x_max":671,"o":"m 199 208 l 199 764 l 290 764 l 290 208 l 199 208 m 83 364 l 83 447 l 569 447 l 569 364 l 83 364 m 83 529 l 83 613 l 569 613 l 569 529 l 83 529 m 199 764 q 230 881 199 829 q 315 963 261 933 q 436 993 368 993 l 436 906 q 332 865 374 906 q 290 764 290 825 l 199 764 m 199 208 l 290 208 q 332 108 290 149 q 436 67 374 67 l 436 -21 q 315 9 368 -21 q 230 91 261 39 q 199 208 199 143 m 582 781 q 533 876 575 846 q 436 906 492 906 l 436 993 q 548 967 497 993 q 631 899 599 942 q 671 800 664 856 l 582 781 m 581 192 l 669 172 q 630 74 663 118 q 547 5 597 31 q 435 -21 496 -21 l 435 67 q 532 97 490 67 q 581 192 574 128 z "},"₹":{"ha":757,"x_min":83,"x_max":674,"o":"m 83 685 l 83 776 l 674 776 l 674 685 l 83 685 m 447 -1 l 217 431 l 313 431 l 544 -1 l 447 -1 m 403 83 l 164 528 l 260 528 l 499 83 l 403 83 m 219 460 l 174 528 q 317 539 264 528 q 392 581 369 550 q 415 669 415 611 l 503 669 q 451 512 503 564 q 304 460 399 460 l 219 460 m 415 669 l 415 924 l 503 924 l 503 669 l 415 669 m 83 871 l 83 958 l 674 958 l 674 871 l 83 871 z "},"£":{"ha":694,"x_min":83,"x_max":639,"o":"m 229 693 q 301 899 229 825 q 500 972 372 972 l 481 885 q 395 863 431 886 q 340 797 360 840 q 321 693 321 754 l 229 693 m 83 0 l 83 88 l 639 88 l 639 0 l 83 0 m 229 229 l 229 693 l 321 693 l 321 229 l 229 229 m 107 444 l 107 528 l 538 528 l 538 444 l 107 444 m 583 853 q 532 878 556 871 q 481 885 508 885 l 500 972 q 577 960 543 972 q 638 928 611 947 l 583 853 m 321 229 q 290 112 321 164 q 205 30 258 60 q 83 0 151 0 l 83 88 q 188 128 146 88 q 229 229 229 169 l 321 229 z "},"¥":{"ha":685,"x_min":83,"x_max":601,"o":"m 83 374 l 83 457 l 583 457 l 583 374 l 83 374 m 83 215 l 83 299 l 583 299 l 583 215 l 83 215 m 301 331 l 510 972 l 601 972 l 393 331 l 301 331 m 301 0 l 301 331 l 393 331 l 393 0 l 301 0 m 301 331 l 93 972 l 185 972 l 393 331 l 301 331 z "},"∕":{"ha":444,"x_min":35,"x_max":410,"o":"m 35 -1 l 314 971 l 410 971 l 131 -1 l 35 -1 z "},"+":{"ha":625,"x_min":42,"x_max":583,"o":"m 267 174 l 267 715 l 358 715 l 358 174 l 267 174 m 42 399 l 42 490 l 583 490 l 583 399 l 42 399 z "},"−":{"ha":625,"x_min":42,"x_max":583,"o":"m 42 440 l 42 532 l 583 532 l 583 440 l 42 440 z "},"×":{"ha":532,"x_min":42,"x_max":490,"o":"m 426 221 l 43 604 l 107 668 l 490 285 l 426 221 m 107 219 l 42 285 l 425 668 l 490 603 l 107 219 z "},"÷":{"ha":625,"x_min":42,"x_max":583,"o":"m 42 440 l 42 532 l 583 532 l 583 440 l 42 440 m 313 625 q 264 644 283 625 q 244 693 244 664 q 264 742 244 722 q 313 763 283 763 q 362 742 342 763 q 382 693 382 722 q 362 644 382 664 q 313 625 342 625 m 313 210 q 264 229 283 210 q 244 278 244 249 q 264 327 244 307 q 313 347 283 347 q 362 327 342 347 q 382 278 382 307 q 362 229 382 249 q 313 210 342 210 z "},"=":{"ha":539,"x_min":42,"x_max":497,"o":"m 42 551 l 42 643 l 497 643 l 497 551 l 42 551 m 42 329 l 42 421 l 497 421 l 497 329 l 42 329 z "},"≠":{"ha":539,"x_min":42,"x_max":497,"o":"m 68 215 l 381 757 l 472 757 l 160 215 l 68 215 m 42 551 l 42 643 l 497 643 l 497 551 l 42 551 m 42 329 l 42 421 l 497 421 l 497 329 l 42 329 z "},">":{"ha":571,"x_min":42,"x_max":529,"o":"m 529 392 l 42 639 l 42 731 l 529 483 l 529 392 m 42 144 l 42 236 l 529 483 l 529 392 l 42 144 z "},"<":{"ha":571,"x_min":42,"x_max":529,"o":"m 42 392 l 42 483 l 529 731 l 529 639 l 42 392 m 529 144 l 42 392 l 42 483 l 529 236 l 529 144 z "},"≥":{"ha":571,"x_min":42,"x_max":529,"o":"m 42 117 l 42 208 l 529 456 l 529 364 l 42 117 m 529 574 l 42 821 l 42 913 l 529 665 l 529 574 m 42 326 l 42 418 l 529 665 l 529 574 l 42 326 z "},"≤":{"ha":571,"x_min":42,"x_max":529,"o":"m 42 574 l 42 665 l 529 913 l 529 821 l 42 574 m 529 326 l 42 574 l 42 665 l 529 418 l 529 326 m 529 117 l 42 364 l 42 456 l 529 208 l 529 117 z "},"±":{"ha":625,"x_min":42,"x_max":583,"o":"m 267 271 l 267 813 l 358 813 l 358 271 l 267 271 m 42 496 l 42 588 l 583 588 l 583 496 l 42 496 m 42 83 l 42 175 l 583 175 l 583 83 l 42 83 z "},"≈":{"ha":628,"x_min":42,"x_max":586,"o":"m 442 389 q 376 400 404 389 q 324 428 347 411 q 281 461 301 444 q 238 489 260 478 q 186 500 215 500 l 186 575 q 252 564 224 575 q 303 536 281 553 q 347 503 326 519 q 390 475 368 486 q 442 464 413 464 l 442 389 m 42 440 q 83 538 43 501 q 186 575 122 575 l 186 500 q 139 485 156 500 q 121 440 122 469 l 42 440 m 442 389 l 442 464 q 490 479 474 464 q 507 524 506 494 l 586 524 q 545 426 585 464 q 442 389 506 389 m 442 181 q 376 192 404 181 q 324 219 347 203 q 281 253 301 236 q 238 281 260 269 q 186 292 215 292 l 186 367 q 252 356 224 367 q 303 328 281 344 q 347 294 326 311 q 390 267 368 278 q 442 256 413 256 l 442 181 m 42 232 q 83 330 43 293 q 186 367 122 367 l 186 292 q 139 276 156 292 q 121 232 122 261 l 42 232 m 442 181 l 442 256 q 490 271 474 256 q 507 315 506 286 l 586 315 q 545 218 585 256 q 442 181 506 181 z "},"~":{"ha":628,"x_min":42,"x_max":586,"o":"m 442 319 q 376 331 404 319 q 324 358 347 342 q 281 392 301 375 q 238 419 260 408 q 186 431 215 431 l 186 506 q 252 494 224 506 q 303 467 281 483 q 347 433 326 450 q 390 406 368 417 q 442 394 413 394 l 442 319 m 42 371 q 83 469 43 432 q 186 506 122 506 l 186 431 q 139 415 156 431 q 121 371 122 400 l 42 371 m 442 319 l 442 394 q 490 410 474 394 q 507 454 506 425 l 586 454 q 545 357 585 394 q 442 319 506 319 z "},"¬":{"ha":639,"x_min":49,"x_max":590,"o":"m 49 482 l 49 574 l 590 574 l 590 482 l 49 482 m 499 303 l 499 574 l 590 574 l 590 303 l 499 303 z "},"^":{"ha":669,"x_min":42,"x_max":628,"o":"m 289 972 l 381 972 l 628 485 l 536 485 l 289 972 m 42 485 l 289 972 l 381 972 l 133 485 l 42 485 z "},"µ":{"ha":622,"x_min":63,"x_max":539,"o":"m 447 0 l 447 78 l 447 694 l 539 694 l 539 0 l 447 0 m 154 208 q 196 110 154 149 q 300 71 238 71 l 281 -21 q 169 9 218 -21 q 91 91 119 39 q 63 208 63 143 l 154 208 m 500 208 q 472 91 500 143 q 393 9 443 39 q 281 -21 343 -21 l 300 71 q 406 110 364 71 q 447 208 447 149 l 500 208 m 63 -278 l 63 694 l 154 694 l 154 -278 l 63 -278 z "},"%":{"ha":867,"x_min":69,"x_max":797,"o":"m 103 -4 l 674 976 l 764 976 l 193 -4 l 103 -4 m 614 -17 l 614 58 q 692 89 661 58 q 722 167 722 119 l 797 167 q 773 74 797 115 q 708 8 749 32 q 614 -17 667 -17 m 614 -17 q 521 8 563 -17 q 456 74 479 32 q 432 167 432 115 l 507 167 q 538 89 507 119 q 614 58 568 58 l 614 -17 m 432 167 q 456 260 432 219 q 521 325 479 301 q 614 349 563 349 l 614 274 q 538 243 568 274 q 507 167 507 213 l 432 167 m 722 167 q 692 243 722 213 q 614 274 661 274 l 614 349 q 708 325 667 349 q 773 260 749 301 q 797 167 797 219 l 722 167 m 251 624 l 251 699 q 329 729 299 699 q 360 807 360 760 l 435 807 q 410 714 435 756 q 345 648 386 672 q 251 624 304 624 m 251 624 q 158 648 200 624 q 93 714 117 672 q 69 807 69 756 l 144 807 q 175 729 144 760 q 251 699 206 699 l 251 624 m 69 807 q 93 901 69 860 q 158 965 117 942 q 251 989 200 989 l 251 914 q 175 883 206 914 q 144 807 144 853 l 69 807 m 360 807 q 329 883 360 853 q 251 914 299 914 l 251 989 q 345 965 304 989 q 410 901 386 942 q 435 807 435 860 l 360 807 z "},"@":{"ha":997,"x_min":54,"x_max":944,"o":"m 72 456 q 117 642 81 558 q 216 785 154 725 q 359 877 278 844 q 538 910 440 910 l 531 825 q 342 781 422 825 q 214 655 261 738 q 157 456 167 572 l 72 456 m 460 -125 q 238 -68 331 -125 q 100 91 146 -11 q 64 329 54 193 l 149 329 q 175 131 140 214 q 284 3 210 47 q 467 -40 358 -40 l 460 -125 m 64 329 l 72 456 l 157 456 l 149 329 l 64 329 m 460 -125 l 467 -40 q 572 -28 518 -40 q 661 6 625 -15 l 701 -61 q 587 -108 653 -90 q 460 -125 521 -125 m 447 104 q 342 133 386 104 q 277 213 299 161 q 261 333 256 265 l 353 333 q 378 231 347 265 q 472 196 408 196 l 447 104 m 261 333 l 268 432 l 360 432 l 353 333 l 261 333 m 447 104 l 472 196 q 554 231 525 196 q 589 333 583 265 l 643 333 q 611 213 638 265 q 543 133 585 161 q 447 104 501 104 m 840 329 l 925 329 q 892 205 919 254 q 824 131 864 156 q 740 106 783 106 q 660 131 697 106 q 603 208 624 157 q 589 333 583 258 l 681 333 q 697 222 675 260 q 749 185 718 185 q 808 221 781 185 q 840 329 835 257 m 268 432 q 303 553 274 501 q 381 633 333 604 q 490 661 429 661 l 503 569 q 403 535 439 569 q 360 432 367 500 l 268 432 m 596 432 q 578 535 601 500 q 503 569 554 569 l 490 661 q 582 633 544 661 q 638 553 619 604 q 650 432 656 501 l 596 432 m 589 333 l 608 614 l 611 653 l 703 653 l 681 333 l 589 333 m 840 329 l 849 456 l 933 456 l 925 329 l 840 329 m 849 456 q 823 655 858 572 q 714 781 788 738 q 531 825 640 825 l 538 910 q 759 853 667 910 q 898 694 851 796 q 933 456 944 592 l 849 456 z "},"&":{"ha":879,"x_min":82,"x_max":796,"o":"m 733 0 l 279 531 l 340 596 l 796 57 l 733 0 m 328 -22 q 148 42 213 -22 q 83 213 83 107 l 174 213 q 192 131 174 165 q 244 79 210 97 q 328 61 279 61 l 328 -22 m 328 -22 l 328 61 q 378 70 351 61 q 434 99 406 79 q 490 150 463 119 l 542 79 q 471 22 508 44 q 397 -11 433 0 q 328 -22 361 -22 m 83 213 q 101 306 82 260 q 151 396 119 353 q 217 476 182 439 q 285 543 253 513 q 340 596 318 574 l 400 525 q 345 469 382 503 q 269 394 308 435 q 201 307 229 353 q 174 213 174 261 l 83 213 m 542 79 l 490 150 l 692 367 l 749 310 l 542 79 m 279 531 q 219 606 251 565 q 163 693 186 646 q 139 793 139 740 l 226 793 q 245 723 226 758 q 291 656 264 688 q 340 596 318 624 l 279 531 m 139 793 q 165 895 139 850 q 238 967 192 940 q 342 993 285 993 l 342 906 q 260 874 293 906 q 226 793 226 842 l 139 793 m 486 781 q 438 876 479 846 q 340 906 396 906 l 340 993 q 452 967 401 993 q 535 899 503 942 q 575 800 568 856 l 486 781 z "},"¶":{"ha":714,"x_min":49,"x_max":631,"o":"m 289 493 q 168 526 222 493 q 81 613 114 558 q 49 733 49 667 q 81 854 49 800 q 168 940 114 908 q 289 972 222 972 l 289 493 m 289 -278 l 289 972 l 381 972 l 381 -278 l 289 -278 m 539 -278 l 539 972 l 631 972 l 631 -278 l 539 -278 m 289 881 l 289 972 l 631 972 l 631 881 l 289 881 z "},"§":{"ha":563,"x_min":49,"x_max":514,"o":"m 419 438 q 394 500 419 475 q 331 545 369 525 q 248 585 292 565 q 165 631 204 606 q 101 696 126 657 q 76 792 76 735 q 85 792 76 792 q 108 792 94 792 q 136 792 122 792 q 159 792 150 792 q 168 792 168 792 q 193 729 168 754 q 257 685 218 704 q 340 645 296 665 q 422 599 383 625 q 486 534 461 572 q 511 438 511 496 q 502 438 511 438 q 479 438 493 438 q 451 438 465 438 q 428 438 438 438 q 419 438 419 438 m 288 243 l 288 331 q 382 361 344 331 q 419 438 419 392 l 511 438 q 482 338 511 382 q 402 269 453 294 q 288 243 351 243 m 76 792 q 103 888 76 846 q 176 956 129 931 q 279 981 222 981 l 279 893 q 200 865 232 893 q 168 792 168 836 l 76 792 m 142 456 q 190 361 149 392 q 288 331 232 331 l 288 243 q 176 269 228 243 q 92 338 125 294 q 53 436 60 382 l 142 456 m 425 768 q 376 863 418 833 q 279 893 335 893 l 279 981 q 391 955 340 981 q 474 886 442 929 q 514 788 507 843 l 425 768 m 143 446 q 168 383 143 408 q 232 338 193 358 q 315 298 271 318 q 397 252 358 278 q 461 188 436 226 q 486 92 486 149 q 477 92 486 92 q 454 92 468 92 q 426 92 440 92 q 403 92 413 92 q 394 92 394 92 q 369 154 394 129 q 306 199 344 179 q 223 238 267 218 q 140 285 179 258 q 76 350 101 311 q 51 446 51 389 q 60 446 51 446 q 83 446 69 446 q 111 446 97 446 q 134 446 125 446 q 143 446 143 446 m 275 640 l 275 553 q 181 522 219 553 q 143 446 143 492 l 51 446 q 81 545 51 501 q 160 615 110 589 q 275 640 211 640 m 486 92 q 460 -5 486 38 q 388 -72 433 -47 q 283 -97 342 -97 l 283 -10 q 363 19 332 -10 q 394 92 394 49 l 486 92 m 421 428 q 372 523 414 493 q 275 553 331 553 l 275 640 q 387 615 336 640 q 470 546 438 589 q 510 447 503 503 l 421 428 m 138 115 q 186 21 144 51 q 283 -10 228 -10 l 283 -97 q 172 -72 224 -97 q 88 -2 121 -46 q 49 96 56 42 l 138 115 z "},"©":{"ha":986,"x_min":63,"x_max":924,"o":"m 851 535 q 807 737 851 651 q 682 869 763 822 q 492 917 601 917 l 492 989 q 718 932 621 989 q 869 773 815 875 q 924 535 924 671 l 851 535 m 492 -17 q 266 40 363 -17 q 116 199 169 97 q 63 438 63 301 l 135 438 q 179 235 135 321 q 303 103 224 150 q 492 56 383 56 l 492 -17 m 63 438 l 63 535 l 135 535 l 135 438 l 63 438 m 492 -17 l 492 56 q 682 103 601 56 q 807 235 763 150 q 851 438 851 321 l 924 438 q 869 199 924 301 q 718 40 815 97 q 492 -17 621 -17 m 63 535 q 116 773 63 671 q 266 932 169 875 q 492 989 363 989 l 492 917 q 303 869 383 917 q 179 737 224 822 q 135 535 135 651 l 63 535 m 851 438 l 851 535 l 924 535 l 924 438 l 851 438 m 311 389 l 311 585 l 386 585 l 386 389 l 311 389 m 311 583 q 337 688 311 642 q 406 760 363 733 q 504 786 449 786 l 504 715 q 417 681 449 715 q 386 583 386 646 l 311 583 m 621 614 q 581 691 615 667 q 503 715 547 715 l 503 786 q 631 741 576 786 q 693 629 685 696 l 621 614 m 311 390 l 386 390 q 417 293 386 328 q 504 258 449 258 l 504 188 q 406 214 449 188 q 337 286 363 240 q 311 390 311 332 m 621 360 l 693 344 q 631 233 685 278 q 503 188 576 188 l 503 258 q 581 283 547 258 q 621 360 615 307 z "},"®":{"ha":643,"x_min":63,"x_max":581,"o":"m 322 385 q 186 419 244 385 q 96 515 128 453 q 63 658 64 576 l 106 658 q 132 537 106 589 q 208 457 158 485 q 322 429 257 429 l 322 385 m 63 658 l 63 717 l 106 717 l 106 658 l 63 658 m 322 385 l 322 429 q 436 457 388 429 q 511 537 485 485 q 538 658 538 589 l 581 658 q 548 515 581 576 q 458 419 515 453 q 322 385 400 385 m 63 717 q 96 860 64 799 q 186 955 128 921 q 322 989 244 989 l 322 946 q 208 917 257 946 q 132 838 158 889 q 106 717 106 786 l 63 717 m 538 658 l 538 717 l 581 717 l 581 658 l 538 658 m 538 717 q 511 838 538 786 q 436 917 485 889 q 322 946 388 946 l 322 989 q 458 955 400 989 q 548 860 515 921 q 581 717 581 799 l 538 717 m 240 494 l 240 874 l 276 874 l 276 494 l 240 494 m 382 494 l 311 683 l 350 683 l 419 494 l 382 494 m 256 663 l 256 697 l 319 697 l 319 663 l 256 663 m 256 839 l 256 874 l 319 874 l 319 839 l 256 839 m 383 760 l 383 776 l 419 776 l 419 760 l 383 760 m 419 776 l 383 776 q 367 822 383 806 q 319 839 350 839 l 319 874 q 392 847 364 874 q 419 776 419 819 m 419 760 q 392 690 419 717 q 319 663 364 663 l 319 697 q 367 714 350 697 q 383 760 383 731 l 419 760 z "},"™":{"ha":672,"x_min":28,"x_max":589,"o":"m 122 564 l 122 972 l 161 972 l 161 564 l 122 564 m 28 936 l 28 972 l 256 972 l 256 936 l 28 936 m 550 564 l 550 972 l 589 972 l 589 564 l 550 564 m 438 564 l 529 972 l 568 972 l 476 564 l 438 564 m 436 564 l 344 972 l 383 972 l 475 564 l 436 564 m 324 564 l 324 972 l 363 972 l 363 564 l 324 564 z "},"°":{"ha":504,"x_min":69,"x_max":435,"o":"m 251 690 l 251 765 q 329 796 299 765 q 360 874 360 826 l 435 874 q 410 781 435 822 q 345 715 386 739 q 251 690 304 690 m 251 690 q 158 715 200 690 q 93 781 117 739 q 69 874 69 822 l 144 874 q 175 796 144 826 q 251 765 206 765 l 251 690 m 69 874 q 93 967 69 926 q 158 1032 117 1008 q 251 1056 200 1056 l 251 981 q 175 950 206 981 q 144 874 144 919 l 69 874 m 360 874 q 329 950 360 919 q 251 981 299 981 l 251 1056 q 345 1032 304 1056 q 410 967 386 1008 q 435 874 435 926 l 360 874 z "},"|":{"ha":282,"x_min":97,"x_max":185,"o":"m 97 -125 l 97 1097 l 185 1097 l 185 -125 l 97 -125 z "},"¦":{"ha":282,"x_min":97,"x_max":185,"o":"m 97 538 l 97 1079 l 185 1079 l 185 538 l 97 538 m 97 -143 l 97 399 l 185 399 l 185 -143 l 97 -143 z "},"࿕":{"ha":708,"x_min":42,"x_max":667,"o":"m 308 90 l 308 715 l 400 715 l 400 90 l 308 90 m 46 90 l 46 182 l 358 182 l 358 90 l 46 90 m 42 399 l 42 711 l 133 711 l 133 399 l 42 399 m 42 357 l 42 449 l 667 449 l 667 357 l 42 357 m 575 94 l 575 407 l 667 407 l 667 94 l 575 94 m 350 624 l 350 715 l 663 715 l 663 624 l 350 624 z "},"ऽ":{"ha":619,"x_min":49,"x_max":571,"o":"m 479 226 q 458 292 479 265 q 401 338 436 318 q 323 374 365 357 q 238 411 281 390 q 160 460 196 432 q 103 528 125 488 q 82 628 82 569 l 174 628 q 195 558 174 586 q 252 511 217 531 q 330 475 288 492 q 415 439 372 458 q 492 392 457 419 q 549 325 528 365 q 571 226 571 285 l 479 226 m 339 788 l 339 875 l 557 875 l 557 788 l 339 788 m 82 625 q 114 756 82 700 q 204 844 146 813 q 339 875 263 875 l 339 788 q 217 745 261 788 q 174 625 174 703 l 82 625 m 571 229 q 539 98 571 154 q 449 10 507 42 q 314 -21 392 -21 l 314 67 q 435 110 392 67 q 479 229 479 153 l 571 229 m 133 260 q 190 118 143 169 q 314 67 238 67 l 314 -21 q 134 49 204 -21 q 49 242 64 118 l 133 260 z "},"ॐ":{"ha":1089,"x_min":35,"x_max":1054,"o":"m 549 196 l 549 275 q 592 294 579 275 q 604 346 604 313 l 696 346 q 656 238 696 281 q 549 196 615 196 m 549 196 q 478 212 508 196 q 431 258 447 228 q 415 329 415 288 l 478 329 q 502 289 485 303 q 549 275 519 275 l 549 196 m 829 76 q 740 97 785 76 q 669 147 694 118 l 736 208 q 778 176 754 188 q 829 164 803 164 l 829 76 m 604 346 l 604 521 l 696 521 l 696 346 l 604 346 m 963 313 l 963 521 l 1054 521 l 1054 313 l 963 313 m 390 688 q 354 774 390 740 q 264 808 318 808 l 264 896 q 376 869 326 896 q 453 794 425 842 q 482 688 482 747 l 390 688 m 133 683 l 44 703 q 83 801 51 758 q 162 870 114 844 q 265 896 210 896 l 265 808 q 176 772 214 808 q 133 683 139 736 m 1054 521 l 963 521 q 924 627 963 585 q 829 669 886 669 l 829 757 q 945 726 894 757 q 1025 642 996 694 q 1054 521 1054 589 m 604 521 q 633 642 604 589 q 714 726 663 694 q 829 757 765 757 l 829 669 q 734 627 772 669 q 696 521 696 585 l 604 521 m 1054 313 q 1025 192 1054 246 q 945 108 996 139 q 829 76 894 76 l 829 164 q 924 206 886 164 q 963 313 963 249 l 1054 313 m 394 286 q 352 406 394 358 q 244 453 310 453 l 244 536 q 366 503 313 536 q 451 415 419 471 q 482 286 482 358 l 394 286 m 258 38 q 94 103 153 38 q 35 288 35 169 l 122 288 q 158 165 122 210 q 258 121 194 121 l 258 38 m 258 38 l 258 121 q 359 165 324 121 q 394 288 394 210 l 482 288 q 456 153 482 210 q 379 67 429 97 q 258 38 329 38 m 188 453 l 188 540 l 258 540 l 258 453 l 188 453 m 257 453 l 257 540 q 352 583 314 540 q 390 689 390 625 l 482 689 q 452 569 482 622 q 372 484 422 515 q 257 453 321 453 m 671 835 l 671 919 q 787 948 733 919 q 872 1026 840 976 l 957 986 q 831 874 907 914 q 671 835 754 835 m 671 835 q 510 874 586 835 q 385 986 435 914 l 468 1026 q 555 948 501 976 q 671 919 608 919 l 671 835 m 671 1008 q 613 1031 636 1008 q 590 1088 590 1054 q 613 1147 590 1124 q 671 1171 636 1171 q 728 1147 704 1171 q 751 1088 751 1124 q 728 1031 751 1054 q 671 1008 704 1008 z "}}}
